SplineFontDB: 3.2
FontName: AcariSans-ExtraBoldItalic
FullName: Acari Sans ExtraBold Italic
FamilyName: Acari Sans ExtraBold
Weight: Heavy
Copyright: Copyright (c)2015, HK Grotesk Latin by Alfredo Marco Pradil (ammpradil@gmail.com) and HK Grotesk Cyrillic by Stefan Peev (http://www.contextbg.net/). HK Grotesk is a trademark of Alfredo Marco Pradil. Copyright (c) 2018-2023 The Acari Sans Project Authors (https://github.com/cssobral2013/acari-sans)
Version: 1.063; ttfautohint (v1.8.3)
ItalicAngle: -13
UnderlinePosition: -250
UnderlineWidth: 100
Ascent: 1600
Descent: 400
InvalidEm: 0
sfntRevision: 0x00011020
LayerCount: 2
Layer: 0 1 "Back" 1
Layer: 1 1 "Fore" 0
XUID: [1021 467 -1401554168 9432578]
StyleMap: 0x0021
FSType: 0
OS2Version: 4
OS2_WeightWidthSlopeOnly: 0
OS2_UseTypoMetrics: 0
CreationTime: 1480856841
ModificationTime: 1686781784
PfmFamily: 81
TTFWeight: 800
TTFWidth: 5
LineGap: 26
VLineGap: 0
Panose: 0 0 0 0 0 0 0 0 0 0
OS2TypoAscent: 1900
OS2TypoAOffset: 0
OS2TypoDescent: -487
OS2TypoDOffset: 0
OS2TypoLinegap: 26
OS2WinAscent: 1913
OS2WinAOffset: 0
OS2WinDescent: 500
OS2WinDOffset: 0
HheadAscent: 1900
HheadAOffset: 0
HheadDescent: -487
HheadDOffset: 0
OS2SubXSize: 1331
OS2SubYSize: 1228
OS2SubXOff: 0
OS2SubYOff: 153
OS2SupXSize: 1331
OS2SupYSize: 1228
OS2SupXOff: 0
OS2SupYOff: 716
OS2StrikeYSize: 82
OS2StrikeYPos: 599
OS2CapHeight: 1413
OS2XHeight: 1039
OS2Vendor: 'AMSP'
OS2CodePages: 20000197.00000000
OS2UnicodeRanges: 2000020f.00000001.00000000.00000000
Lookup: 1 0 0 "'aalt' Access All Alternates lookup 0" { "'aalt' Access All Alternates lookup 0 subtable"  } ['aalt' ('DFLT' <'dflt' > 'cyrl' <'BGR ' 'RUS ' 'SRB ' 'dflt' > 'latn' <'AZE ' 'CRT ' 'KAZ ' 'MOL ' 'ROM ' 'TAT ' 'TRK ' 'dflt' > ) ]
Lookup: 3 0 0 "'aalt' Access All Alternates lookup 1" { "'aalt' Access All Alternates lookup 1 subtable"  } ['aalt' ('DFLT' <'dflt' > 'cyrl' <'BGR ' 'RUS ' 'SRB ' 'dflt' > 'latn' <'AZE ' 'CRT ' 'KAZ ' 'MOL ' 'ROM ' 'TAT ' 'TRK ' 'dflt' > ) ]

StartChar: .notdef
Encoding: 65536 -1 0
Width: 728
GlyphClass: 1
Flags: W
LayerCount: 2
Fore
SplineSet
596 0 m 1,0,-1
 66 0 l 1,1,-1
 66 1333 l 1,2,-1
 596 1333 l 1,3,-1
 596 0 l 1,0,-1
530 66 m 1,4,-1
 530 1267 l 1,5,-1
 132 1267 l 1,6,-1
 132 66 l 1,7,-1
 530 66 l 1,4,-1
EndSplineSet
EndChar

StartChar: exclam
Encoding: 33 33 4
Width: 634
GlyphClass: 1
Flags: W
LayerCount: 2
Fore
SplineSet
407 443 m 1,0,-1
 201 443 l 1,1,-1
 400 1433 l 1,2,-1
 663 1433 l 1,3,-1
 407 443 l 1,0,-1
347 0 m 1,4,-1
 59 0 l 1,5,-1
 122 286 l 1,6,-1
 410 286 l 1,7,-1
 347 0 l 1,4,-1
EndSplineSet
EndChar

StartChar: quotedbl
Encoding: 34 34 5
Width: 972
GlyphClass: 1
Flags: W
LayerCount: 2
Fore
SplineSet
929 829 m 1,0,-1
 702 829 l 1,1,-1
 838 1413 l 1,2,-1
 1065 1413 l 1,3,-1
 929 829 l 1,0,-1
421 829 m 1,4,-1
 195 829 l 1,5,-1
 330 1413 l 1,6,-1
 556 1413 l 1,7,-1
 421 829 l 1,4,-1
EndSplineSet
EndChar

StartChar: numbersign
Encoding: 35 35 6
Width: 1384
GlyphClass: 1
Flags: W
LayerCount: 2
Fore
SplineSet
745 0 m 1,0,-1
 531 0 l 1,1,-1
 723 436 l 1,2,-1
 496 436 l 1,3,-1
 307 0 l 1,4,-1
 91 0 l 1,5,-1
 277 406 l 1,6,-1
 45 406 l 1,7,-1
 90 597 l 1,8,-1
 361 597 l 1,9,-1
 466 837 l 1,10,-1
 227 837 l 1,11,-1
 275 1039 l 1,12,-1
 553 1039 l 1,13,-1
 740 1434 l 1,14,-1
 956 1434 l 1,15,-1
 759 997 l 1,16,-1
 982 997 l 1,17,-1
 1178 1434 l 1,18,-1
 1394 1434 l 1,19,-1
 1205 1028 l 1,20,-1
 1437 1028 l 1,21,-1
 1391 837 l 1,22,-1
 1121 837 l 1,23,-1
 1015 597 l 1,24,-1
 1255 597 l 1,25,-1
 1207 395 l 1,26,-1
 929 395 l 1,27,-1
 745 0 l 1,0,-1
801 597 m 1,28,-1
 907 837 l 1,29,-1
 681 837 l 1,30,-1
 575 597 l 1,31,-1
 801 597 l 1,28,-1
EndSplineSet
EndChar

StartChar: dollar
Encoding: 36 36 7
Width: 1114
GlyphClass: 1
Flags: W
LayerCount: 2
Fore
SplineSet
508 -246 m 1,0,-1
 278 -246 l 1,1,-1
 339 -10 l 1,2,3
 267 5 267 5 206 38 c 128,-1,4
 145 71 145 71 101 119 c 128,-1,5
 57 167 57 167 32 230.5 c 128,-1,6
 7 294 7 294 7 370 c 2,7,-1
 8 401 l 1,8,9
 78 410 78 410 147.5 419 c 128,-1,10
 217 428 217 428 287 436 c 1,11,12
 286 429 286 429 285.5 422.5 c 128,-1,13
 285 416 285 416 285 409 c 0,14,15
 285 358 285 358 303.5 324.5 c 128,-1,16
 322 291 322 291 353 271 c 128,-1,17
 384 251 384 251 424.5 243 c 128,-1,18
 465 235 465 235 509 235 c 0,19,20
 551 235 551 235 589.5 242 c 128,-1,21
 628 249 628 249 662 265.5 c 128,-1,22
 696 282 696 282 723 309 c 128,-1,23
 750 336 750 336 769 376 c 0,24,25
 775 390 775 390 781 405 c 128,-1,26
 787 420 787 420 790 435 c 0,27,28
 791 440 791 440 792 446.5 c 128,-1,29
 793 453 793 453 793 458 c 0,30,31
 793 496 793 496 766 524 c 0,32,33
 753 537 753 537 734 549 c 128,-1,34
 715 561 715 561 694 572 c 128,-1,35
 673 583 673 583 651.5 592.5 c 128,-1,36
 630 602 630 602 613 609 c 0,37,38
 571 627 571 627 527.5 646.5 c 128,-1,39
 484 666 484 666 443 689.5 c 128,-1,40
 402 713 402 713 366 741 c 128,-1,41
 330 769 330 769 302.5 804.5 c 128,-1,42
 275 840 275 840 259.5 883 c 128,-1,43
 244 926 244 926 244 979 c 0,44,45
 244 1068 244 1068 278 1142.5 c 128,-1,46
 312 1217 312 1217 369.5 1275 c 128,-1,47
 427 1333 427 1333 502 1372 c 128,-1,48
 577 1411 577 1411 659 1430 c 1,49,-1
 718 1659 l 1,50,-1
 948 1659 l 1,51,-1
 888 1429 l 1,52,53
 994 1409 994 1409 1066 1349 c 128,-1,54
 1138 1289 1138 1289 1172 1186 c 1,55,-1
 921 1076 l 1,56,57
 912 1108 912 1108 894.5 1129.5 c 128,-1,58
 877 1151 877 1151 854 1164.5 c 128,-1,59
 831 1178 831 1178 803 1183.5 c 128,-1,60
 775 1189 775 1189 744 1189 c 0,61,62
 709 1189 709 1189 670.5 1176.5 c 128,-1,63
 632 1164 632 1164 599.5 1140.5 c 128,-1,64
 567 1117 567 1117 546 1084.5 c 128,-1,65
 525 1052 525 1052 525 1013 c 0,66,67
 525 976 525 976 553.5 951 c 128,-1,68
 582 926 582 926 622 907.5 c 128,-1,69
 662 889 662 889 695 875 c 0,70,71
 760 846 760 846 827 814.5 c 128,-1,72
 894 783 894 783 948 739.5 c 128,-1,73
 1002 696 1002 696 1036.5 637 c 128,-1,74
 1071 578 1071 578 1071 494 c 0,75,76
 1071 389 1071 389 1029 300.5 c 128,-1,77
 987 212 987 212 917 145 c 128,-1,78
 847 78 847 78 756 35.5 c 128,-1,79
 665 -7 665 -7 567 -19 c 1,80,-1
 508 -246 l 1,0,-1
EndSplineSet
EndChar

StartChar: percent
Encoding: 37 37 8
Width: 1526
GlyphClass: 1
Flags: W
LayerCount: 2
Fore
SplineSet
353 -27 m 1,0,-1
 111 -27 l 1,1,-1
 1259 1469 l 1,2,-1
 1501 1469 l 1,3,-1
 353 -27 l 1,0,-1
427 757 m 0,4,5
 366 757 366 757 321 776 c 128,-1,6
 276 795 276 795 246.5 829 c 128,-1,7
 217 863 217 863 202.5 911 c 128,-1,8
 188 959 188 959 188 1017 c 0,9,10
 188 1094 188 1094 213.5 1169 c 128,-1,11
 239 1244 239 1244 286 1303 c 128,-1,12
 333 1362 333 1362 400 1399 c 128,-1,13
 467 1436 467 1436 549 1436 c 0,14,15
 608 1436 608 1436 652 1415.5 c 128,-1,16
 696 1395 696 1395 725 1359.5 c 128,-1,17
 754 1324 754 1324 768.5 1276 c 128,-1,18
 783 1228 783 1228 783 1173 c 0,19,20
 783 1098 783 1098 758 1023.5 c 128,-1,21
 733 949 733 949 686.5 890 c 128,-1,22
 640 831 640 831 574 794 c 128,-1,23
 508 757 508 757 427 757 c 0,4,5
438 951 m 0,24,25
 467 951 467 951 491 968.5 c 128,-1,26
 515 986 515 986 533 1012 c 128,-1,27
 551 1038 551 1038 563 1067.5 c 128,-1,28
 575 1097 575 1097 581 1121 c 0,29,30
 583 1129 583 1129 585 1136.5 c 128,-1,31
 587 1144 587 1144 587 1152 c 0,32,33
 587 1167 587 1167 585.5 1182.5 c 128,-1,34
 584 1198 584 1198 578.5 1210.5 c 128,-1,35
 573 1223 573 1223 562 1231 c 128,-1,36
 551 1239 551 1239 531 1239 c 0,37,38
 498 1239 498 1239 470.5 1219 c 128,-1,39
 443 1199 443 1199 423.5 1169.5 c 128,-1,40
 404 1140 404 1140 393 1106 c 128,-1,41
 382 1072 382 1072 382 1043 c 0,42,43
 382 1028 382 1028 383.5 1012 c 128,-1,44
 385 996 385 996 390.5 982.5 c 128,-1,45
 396 969 396 969 407 960 c 128,-1,46
 418 951 418 951 438 951 c 0,24,25
1075 -14 m 0,47,48
 1014 -14 1014 -14 969.5 5.5 c 128,-1,49
 925 25 925 25 896 60 c 128,-1,50
 867 95 867 95 853 143.5 c 128,-1,51
 839 192 839 192 839 249 c 0,52,53
 839 327 839 327 864 403.5 c 128,-1,54
 889 480 889 480 935.5 541.5 c 128,-1,55
 982 603 982 603 1050 641 c 128,-1,56
 1118 679 1118 679 1203 679 c 0,57,58
 1263 679 1263 679 1307 659 c 128,-1,59
 1351 639 1351 639 1379.5 604 c 128,-1,60
 1408 569 1408 569 1422 520.5 c 128,-1,61
 1436 472 1436 472 1436 416 c 0,62,63
 1436 362 1436 362 1422 306 c 128,-1,64
 1408 250 1408 250 1382 198.5 c 128,-1,65
 1356 147 1356 147 1319 103 c 128,-1,66
 1282 59 1282 59 1237 30 c 0,67,68
 1200 7 1200 7 1159 -3.5 c 128,-1,69
 1118 -14 1118 -14 1075 -14 c 0,47,48
1093 180 m 0,70,71
 1125 180 1125 180 1152 205.5 c 128,-1,72
 1179 231 1179 231 1198 266.5 c 128,-1,73
 1217 302 1217 302 1227.5 340.5 c 128,-1,74
 1238 379 1238 379 1238 406 c 0,75,76
 1238 419 1238 419 1235.5 432.5 c 128,-1,77
 1233 446 1233 446 1227 457.5 c 128,-1,78
 1221 469 1221 469 1210.5 476 c 128,-1,79
 1200 483 1200 483 1185 483 c 0,80,81
 1152 483 1152 483 1124 461 c 128,-1,82
 1096 439 1096 439 1075 407 c 128,-1,83
 1054 375 1054 375 1042.5 339 c 128,-1,84
 1031 303 1031 303 1031 274 c 0,85,86
 1031 258 1031 258 1033 241 c 128,-1,87
 1035 224 1035 224 1041 210.5 c 128,-1,88
 1047 197 1047 197 1059.5 188.5 c 128,-1,89
 1072 180 1072 180 1093 180 c 0,70,71
EndSplineSet
EndChar

StartChar: ampersand
Encoding: 38 38 9
Width: 1381
GlyphClass: 1
Flags: W
LayerCount: 2
Fore
SplineSet
1016 -83 m 1,0,-1
 883 121 l 1,1,2
 783 55 783 55 669 15.5 c 128,-1,3
 555 -24 555 -24 434 -24 c 0,4,5
 388 -24 388 -24 335.5 -17 c 128,-1,6
 283 -10 283 -10 232.5 6 c 128,-1,7
 182 22 182 22 137.5 48 c 128,-1,8
 93 74 93 74 63 113 c 0,9,10
 36 148 36 148 26 193 c 128,-1,11
 16 238 16 238 16 281 c 0,12,13
 16 343 16 343 34 397 c 128,-1,14
 52 451 52 451 83.5 498 c 128,-1,15
 115 545 115 545 157.5 585.5 c 128,-1,16
 200 626 200 626 247.5 661 c 128,-1,17
 295 696 295 696 346 725 c 128,-1,18
 397 754 397 754 446 779 c 1,19,20
 401 835 401 835 376.5 894 c 128,-1,21
 352 953 352 953 352 1025 c 0,22,23
 352 1091 352 1091 375.5 1149.5 c 128,-1,24
 399 1208 399 1208 439.5 1256.5 c 128,-1,25
 480 1305 480 1305 533 1341.5 c 128,-1,26
 586 1378 586 1378 645 1400 c 0,27,28
 690 1417 690 1417 735 1423.5 c 128,-1,29
 780 1430 780 1430 827 1430 c 0,30,31
 895 1430 895 1430 955 1410.5 c 128,-1,32
 1015 1391 1015 1391 1061 1353 c 128,-1,33
 1107 1315 1107 1315 1133.5 1260 c 128,-1,34
 1160 1205 1160 1205 1160 1133 c 0,35,36
 1160 1060 1160 1060 1130 996.5 c 128,-1,37
 1100 933 1100 933 1053 880 c 128,-1,38
 1006 827 1006 827 947 784 c 128,-1,39
 888 741 888 741 829 708 c 1,40,-1
 948 535 l 1,41,42
 971 576 971 576 988.5 619.5 c 128,-1,43
 1006 663 1006 663 1014 710 c 1,44,-1
 1272 659 l 1,45,46
 1248 564 1248 564 1202 478.5 c 128,-1,47
 1156 393 1156 393 1095 317 c 1,48,-1
 1246 92 l 1,49,-1
 1016 -83 l 1,0,-1
668 891 m 1,50,51
 702 908 702 908 744 932.5 c 128,-1,52
 786 957 786 957 822.5 988 c 128,-1,53
 859 1019 859 1019 883.5 1056.5 c 128,-1,54
 908 1094 908 1094 908 1138 c 0,55,56
 908 1183 908 1183 879 1200.5 c 128,-1,57
 850 1218 850 1218 810 1218 c 0,58,59
 775 1218 775 1218 740.5 1203.5 c 128,-1,60
 706 1189 706 1189 678 1164.5 c 128,-1,61
 650 1140 650 1140 633 1107.5 c 128,-1,62
 616 1075 616 1075 616 1039 c 0,63,64
 616 1001 616 1001 633 962 c 128,-1,65
 650 923 650 923 668 891 c 1,50,51
453 206 m 0,66,67
 536 206 536 206 613 236.5 c 128,-1,68
 690 267 690 267 756 315 c 1,69,70
 712 381 712 381 669.5 445.5 c 128,-1,71
 627 510 627 510 585 576 c 1,72,73
 561 564 561 564 529 546.5 c 128,-1,74
 497 529 497 529 463.5 508 c 128,-1,75
 430 487 430 487 397.5 462 c 128,-1,76
 365 437 365 437 339.5 409 c 128,-1,77
 314 381 314 381 298.5 351 c 128,-1,78
 283 321 283 321 283 289 c 0,79,80
 283 260 283 260 302 243.5 c 128,-1,81
 321 227 321 227 347.5 218.5 c 128,-1,82
 374 210 374 210 403 208 c 128,-1,83
 432 206 432 206 453 206 c 0,66,67
EndSplineSet
EndChar

StartChar: quotesingle
Encoding: 39 39 10
Width: 609
GlyphClass: 1
Flags: W
LayerCount: 2
Fore
SplineSet
503 858 m 1,0,-1
 275 858 l 1,1,-1
 409 1442 l 1,2,-1
 636 1442 l 1,3,-1
 503 858 l 1,0,-1
EndSplineSet
EndChar

StartChar: parenleft
Encoding: 40 40 11
Width: 575
GlyphClass: 1
Flags: W
LayerCount: 2
Fore
SplineSet
297 302 m 0,0,1
 297 79 297 79 423 -144 c 1,2,3
 195 -145 195 -145 195 -145 c 1,4,5
 95 -8 95 -8 95 298 c 0,6,7
 95 628 95 628 216 985 c 0,8,9
 298 1227 298 1227 430 1411 c 0,10,11
 496 1504 496 1504 576 1572 c 1,12,13
 576 1572 576 1572 830 1572 c 1,14,15
 587 1346 587 1346 434 983 c 0,16,17
 297 655 297 655 297 302 c 0,0,1
EndSplineSet
EndChar

StartChar: parenright
Encoding: 41 41 12
Width: 574
GlyphClass: 1
Flags: W
LayerCount: 2
Fore
SplineSet
370 1103 m 0,0,1
 370 1355 370 1355 247 1554 c 1,2,3
 364 1554 364 1554 482 1554 c 1,4,5
 583 1399 583 1399 583 1132 c 0,6,7
 583 717 583 717 398 300 c 0,8,9
 250 -30 250 -30 88 -163 c 1,10,-1
 -156 -163 l 1,11,12
 31 22 31 22 154 252 c 0,13,14
 299 521 299 521 356 914 c 0,15,16
 370 1007 370 1007 370 1103 c 0,0,1
EndSplineSet
EndChar

StartChar: asterisk
Encoding: 42 42 13
Width: 908
GlyphClass: 1
Flags: W
LayerCount: 2
Fore
SplineSet
642 829 m 1,0,-1
 581 1029 l 1,1,-1
 429 829 l 1,2,-1
 272 942 l 1,3,-1
 456 1090 l 1,4,-1
 243 1117 l 1,5,-1
 353 1302 l 1,6,-1
 541 1226 l 1,7,-1
 556 1413 l 1,8,-1
 777 1413 l 1,9,-1
 704 1226 l 1,10,-1
 921 1302 l 1,11,-1
 948 1117 l 1,12,-1
 719 1090 l 1,13,-1
 840 942 l 1,14,-1
 642 829 l 1,0,-1
EndSplineSet
EndChar

StartChar: plus
Encoding: 43 43 14
Width: 1246
GlyphClass: 1
Flags: W
LayerCount: 2
Fore
SplineSet
727 106 m 1,0,-1
 521 106 l 1,1,-1
 521 520 l 1,2,-1
 64 520 l 1,3,-1
 64 728 l 1,4,-1
 521 728 l 1,5,-1
 521 1143 l 1,6,-1
 727 1143 l 1,7,-1
 727 728 l 1,8,-1
 1184 728 l 1,9,-1
 1184 520 l 1,10,-1
 727 520 l 1,11,-1
 727 106 l 1,0,-1
EndSplineSet
EndChar

StartChar: comma
Encoding: 44 44 15
Width: 600
GlyphClass: 1
Flags: W
LayerCount: 2
Fore
SplineSet
98 -225 m 1,0,-1
 -88 -225 l 1,1,-1
 125 264 l 1,2,-1
 436 264 l 1,3,-1
 98 -225 l 1,0,-1
EndSplineSet
EndChar

StartChar: hyphen
Encoding: 45 45 16
Width: 875
GlyphClass: 1
Flags: W
LayerCount: 2
Fore
SplineSet
742 504 m 1,0,-1
 137 504 l 1,1,-1
 182 711 l 1,2,-1
 788 711 l 1,3,-1
 742 504 l 1,0,-1
EndSplineSet
EndChar

StartChar: period
Encoding: 46 46 17
Width: 600
GlyphClass: 1
Flags: W
LayerCount: 2
Fore
SplineSet
324 0 m 1,0,-1
 63 0 l 1,1,-1
 127 286 l 1,2,-1
 388 286 l 1,3,-1
 324 0 l 1,0,-1
EndSplineSet
EndChar

StartChar: slash
Encoding: 47 47 18
Width: 933
GlyphClass: 1
Flags: W
LayerCount: 2
Fore
SplineSet
-17 -430 m 1,0,-1
 -271 -430 l 1,1,-1
 966 1516 l 1,2,-1
 1224 1516 l 1,3,-1
 -17 -430 l 1,0,-1
EndSplineSet
EndChar

StartChar: zero
Encoding: 48 48 19
Width: 1200
GlyphClass: 1
Flags: W
LayerCount: 2
Fore
SplineSet
513 -20 m 0,0,1
 399 -20 399 -20 321 23 c 128,-1,2
 243 66 243 66 194.5 138 c 128,-1,3
 146 210 146 210 124.5 303 c 128,-1,4
 103 396 103 396 103 496 c 0,5,6
 103 594 103 594 122.5 701.5 c 128,-1,7
 142 809 142 809 181 913.5 c 128,-1,8
 220 1018 220 1018 277.5 1113 c 128,-1,9
 335 1208 335 1208 412 1279.5 c 128,-1,10
 489 1351 489 1351 584.5 1393.5 c 128,-1,11
 680 1436 680 1436 794 1436 c 0,12,13
 905 1436 905 1436 982.5 1389.5 c 128,-1,14
 1060 1343 1060 1343 1108.5 1268 c 128,-1,15
 1157 1193 1157 1193 1179 1098.5 c 128,-1,16
 1201 1004 1201 1004 1201 908 c 0,17,18
 1201 813 1201 813 1181 707 c 128,-1,19
 1161 601 1161 601 1121.5 498 c 128,-1,20
 1082 395 1082 395 1023.5 301 c 128,-1,21
 965 207 965 207 888.5 136 c 128,-1,22
 812 65 812 65 718 22.5 c 128,-1,23
 624 -20 624 -20 513 -20 c 0,0,1
557 249 m 0,24,25
 604 249 604 249 646.5 274.5 c 128,-1,26
 689 300 689 300 725 338.5 c 128,-1,27
 761 377 761 377 788.5 421.5 c 128,-1,28
 816 466 816 466 834 504 c 0,29,30
 876 595 876 595 901 695 c 128,-1,31
 926 795 926 795 926 895 c 0,32,33
 926 941 926 941 919 988.5 c 128,-1,34
 912 1036 912 1036 892.5 1074.5 c 128,-1,35
 873 1113 873 1113 838 1137.5 c 128,-1,36
 803 1162 803 1162 746 1162 c 0,37,38
 720 1162 720 1162 696 1155.5 c 128,-1,39
 672 1149 672 1149 649 1137 c 0,40,41
 603 1113 603 1113 564 1071.5 c 128,-1,42
 525 1030 525 1030 493.5 977 c 128,-1,43
 462 924 462 924 438 864 c 128,-1,44
 414 804 414 804 398 743.5 c 128,-1,45
 382 683 382 683 374 624.5 c 128,-1,46
 366 566 366 566 366 518 c 0,47,48
 366 469 366 469 374 421 c 128,-1,49
 382 373 382 373 403 335 c 128,-1,50
 424 297 424 297 461.5 273 c 128,-1,51
 499 249 499 249 557 249 c 0,24,25
EndSplineSet
Substitution2: "'subs' Subscript lookup 20 subtable" uni2080
Substitution2: "'sinf' Scientific Inferiors lookup 19 subtable" uni2080
Substitution2: "'sups' Superscript lookup 17 subtable" uni2070
AlternateSubs2: "'aalt' Access All Alternates lookup 1 subtable" uni2070 uni2080
EndChar

StartChar: one
Encoding: 49 49 20
Width: 1200
GlyphClass: 1
Flags: W
LayerCount: 2
Fore
SplineSet
718 0 m 1,0,-1
 439 0 l 1,1,-1
 674 1014 l 1,2,-1
 367 1014 l 1,3,-1
 414 1227 l 1,4,-1
 580 1227 l 2,5,6
 624 1227 624 1227 656.5 1241 c 128,-1,7
 689 1255 689 1255 713 1280 c 128,-1,8
 737 1305 737 1305 752 1339 c 128,-1,9
 767 1373 767 1373 774 1413 c 1,10,-1
 1044 1413 l 1,11,-1
 718 0 l 1,0,-1
EndSplineSet
Substitution2: "'subs' Subscript lookup 20 subtable" uni2081
Substitution2: "'sinf' Scientific Inferiors lookup 19 subtable" uni2081
Substitution2: "'sups' Superscript lookup 17 subtable" onesuperior
AlternateSubs2: "'aalt' Access All Alternates lookup 1 subtable" onesuperior uni2081
EndChar

StartChar: two
Encoding: 50 50 21
Width: 1200
GlyphClass: 1
Flags: W
LayerCount: 2
Fore
SplineSet
1030 0 m 1,0,-1
 -70 0 l 1,1,2
 -59 57 -59 57 -46.5 113 c 128,-1,3
 -34 169 -34 169 -23 226 c 1,4,5
 122 299 122 299 256.5 385 c 128,-1,6
 391 471 391 471 519 570 c 0,7,8
 541 586 541 586 561.5 603.5 c 128,-1,9
 582 621 582 621 603 637 c 0,10,11
 650 673 650 673 699.5 713.5 c 128,-1,12
 749 754 749 754 792 801 c 128,-1,13
 835 848 835 848 867.5 902 c 128,-1,14
 900 956 900 956 913 1017 c 0,15,16
 918 1040 918 1040 918 1061 c 0,17,18
 918 1094 918 1094 907.5 1116 c 128,-1,19
 897 1138 897 1138 878 1151.5 c 128,-1,20
 859 1165 859 1165 833.5 1171 c 128,-1,21
 808 1177 808 1177 779 1177 c 0,22,23
 714 1177 714 1177 662 1151 c 128,-1,24
 610 1125 610 1125 570.5 1082.5 c 128,-1,25
 531 1040 531 1040 503.5 985 c 128,-1,26
 476 930 476 930 461 872 c 1,27,-1
 195 912 l 1,28,29
 219 1016 219 1016 277 1110 c 128,-1,30
 335 1204 335 1204 417.5 1275.5 c 128,-1,31
 500 1347 500 1347 601 1389.5 c 128,-1,32
 702 1432 702 1432 811 1432 c 0,33,34
 889 1432 889 1432 959.5 1409 c 128,-1,35
 1030 1386 1030 1386 1083 1342 c 128,-1,36
 1136 1298 1136 1298 1167 1233 c 128,-1,37
 1198 1168 1198 1168 1198 1085 c 0,38,39
 1198 1022 1198 1022 1179.5 962 c 128,-1,40
 1161 902 1161 902 1130 846 c 128,-1,41
 1099 790 1099 790 1060.5 739.5 c 128,-1,42
 1022 689 1022 689 981 644 c 0,43,44
 956 617 956 617 927 586.5 c 128,-1,45
 898 556 898 556 867 526 c 128,-1,46
 836 496 836 496 805 468.5 c 128,-1,47
 774 441 774 441 745 419 c 0,48,49
 717 398 717 398 683 375.5 c 128,-1,50
 649 353 649 353 613 331.5 c 128,-1,51
 577 310 577 310 541.5 289.5 c 128,-1,52
 506 269 506 269 474 252 c 1,53,-1
 1090 258 l 1,54,55
 1075 193 1075 193 1060.5 129 c 128,-1,56
 1046 65 1046 65 1030 0 c 1,0,-1
EndSplineSet
Substitution2: "'subs' Subscript lookup 20 subtable" uni2082
Substitution2: "'sinf' Scientific Inferiors lookup 19 subtable" uni2082
Substitution2: "'sups' Superscript lookup 17 subtable" twosuperior
AlternateSubs2: "'aalt' Access All Alternates lookup 1 subtable" twosuperior uni2082
EndChar

StartChar: three
Encoding: 51 51 22
Width: 1200
GlyphClass: 1
Flags: W
LayerCount: 2
Fore
SplineSet
470 -20 m 0,0,1
 384 -20 384 -20 304 3 c 128,-1,2
 224 26 224 26 162.5 72.5 c 128,-1,3
 101 119 101 119 64 189.5 c 128,-1,4
 27 260 27 260 27 354 c 0,5,6
 27 384 27 384 31 414 c 128,-1,7
 35 444 35 444 42 473 c 1,8,-1
 311 465 l 1,9,10
 305 437 305 437 305 408 c 0,11,12
 305 362 305 362 322.5 330 c 128,-1,13
 340 298 340 298 369 279 c 128,-1,14
 398 260 398 260 436 251.5 c 128,-1,15
 474 243 474 243 514 243 c 0,16,17
 569 243 569 243 628.5 259.5 c 128,-1,18
 688 276 688 276 737.5 308.5 c 128,-1,19
 787 341 787 341 819 389 c 128,-1,20
 851 437 851 437 851 500 c 0,21,22
 851 541 851 541 830 565 c 128,-1,23
 809 589 809 589 777.5 602.5 c 128,-1,24
 746 616 746 616 709.5 620 c 128,-1,25
 673 624 673 624 642 624 c 2,26,-1
 475 624 l 1,27,-1
 535 875 l 1,28,-1
 687 875 l 2,29,30
 726 875 726 875 762.5 885.5 c 128,-1,31
 799 896 799 896 830 922 c 256,32,33
 861 948 861 948 883.5 989 c 128,-1,34
 906 1030 906 1030 906 1072 c 0,35,36
 906 1102 906 1102 890.5 1120.5 c 128,-1,37
 875 1139 875 1139 852 1149.5 c 128,-1,38
 829 1160 829 1160 802 1164 c 128,-1,39
 775 1168 775 1168 752 1168 c 0,40,41
 706 1168 706 1168 664 1154 c 128,-1,42
 622 1140 622 1140 588.5 1114.5 c 128,-1,43
 555 1089 555 1089 530.5 1052 c 128,-1,44
 506 1015 506 1015 495 970 c 1,45,-1
 234 1010 l 1,46,47
 255 1111 255 1111 308.5 1189.5 c 128,-1,48
 362 1268 362 1268 437.5 1322.5 c 128,-1,49
 513 1377 513 1377 605.5 1405.5 c 128,-1,50
 698 1434 698 1434 797 1434 c 0,51,52
 871 1434 871 1434 940 1413 c 128,-1,53
 1009 1392 1009 1392 1063 1350.5 c 128,-1,54
 1117 1309 1117 1309 1149.5 1247.5 c 128,-1,55
 1182 1186 1182 1186 1182 1106 c 0,56,57
 1182 1055 1182 1055 1168.5 1005.5 c 128,-1,58
 1155 956 1155 956 1130.5 911 c 128,-1,59
 1106 866 1106 866 1072.5 826.5 c 128,-1,60
 1039 787 1039 787 999 756 c 1,61,62
 1062 709 1062 709 1089 646.5 c 128,-1,63
 1116 584 1116 584 1116 506 c 0,64,65
 1116 418 1116 418 1090 345 c 128,-1,66
 1064 272 1064 272 1018.5 213.5 c 128,-1,67
 973 155 973 155 911 111 c 128,-1,68
 849 67 849 67 777 38 c 128,-1,69
 705 9 705 9 626.5 -5.5 c 128,-1,70
 548 -20 548 -20 470 -20 c 0,0,1
EndSplineSet
Substitution2: "'subs' Subscript lookup 20 subtable" uni2083
Substitution2: "'sinf' Scientific Inferiors lookup 19 subtable" uni2083
Substitution2: "'sups' Superscript lookup 17 subtable" threesuperior
AlternateSubs2: "'aalt' Access All Alternates lookup 1 subtable" threesuperior uni2083
EndChar

StartChar: four
Encoding: 52 52 23
Width: 1200
GlyphClass: 1
Flags: W
LayerCount: 2
Fore
SplineSet
677 578 m 1,0,-1
 762 959 l 1,1,-1
 420 578 l 1,2,-1
 677 578 l 1,0,-1
830 0 m 1,3,-1
 552 0 l 1,4,-1
 620 317 l 1,5,-1
 0 317 l 1,6,-1
 33 478 l 1,7,-1
 903 1413 l 1,8,-1
 1140 1413 l 1,9,-1
 956 578 l 1,10,-1
 1170 578 l 1,11,-1
 1113 317 l 1,12,-1
 899 317 l 1,13,-1
 830 0 l 1,3,-1
EndSplineSet
Substitution2: "'subs' Subscript lookup 20 subtable" uni2084
Substitution2: "'sinf' Scientific Inferiors lookup 19 subtable" uni2084
Substitution2: "'sups' Superscript lookup 17 subtable" uni2074
AlternateSubs2: "'aalt' Access All Alternates lookup 1 subtable" uni2074 uni2084
EndChar

StartChar: five
Encoding: 53 53 24
Width: 1200
GlyphClass: 1
Flags: W
LayerCount: 2
Fore
SplineSet
469 -20 m 0,0,1
 403 -20 403 -20 342.5 0.5 c 128,-1,2
 282 21 282 21 231.5 57.5 c 128,-1,3
 181 94 181 94 142.5 145 c 128,-1,4
 104 196 104 196 80 257 c 0,5,6
 63 302 63 302 56.5 343.5 c 128,-1,7
 50 385 50 385 50 433 c 1,8,-1
 322 481 l 1,9,10
 322 428 322 428 331.5 383.5 c 128,-1,11
 341 339 341 339 364.5 307 c 128,-1,12
 388 275 388 275 427 257 c 128,-1,13
 466 239 466 239 524 239 c 0,14,15
 579 239 579 239 636 269 c 128,-1,16
 693 299 693 299 739 346 c 128,-1,17
 785 393 785 393 814.5 450.5 c 128,-1,18
 844 508 844 508 844 563 c 0,19,20
 844 606 844 606 828.5 637 c 128,-1,21
 813 668 813 668 787 688 c 128,-1,22
 761 708 761 708 726 717.5 c 128,-1,23
 691 727 691 727 652 727 c 0,24,25
 616 727 616 727 579 716 c 128,-1,26
 542 705 542 705 507.5 686.5 c 128,-1,27
 473 668 473 668 442 644 c 128,-1,28
 411 620 411 620 388 593 c 1,29,-1
 140 660 l 1,30,31
 218 849 218 849 293.5 1038 c 128,-1,32
 369 1227 369 1227 453 1413 c 1,33,-1
 1269 1413 l 1,34,-1
 1209 1150 l 1,35,-1
 621 1150 l 1,36,-1
 526 953 l 1,37,38
 578 971 578 971 629 978.5 c 128,-1,39
 680 986 680 986 735 986 c 0,40,41
 821 986 821 986 893 954 c 128,-1,42
 965 922 965 922 1017 866.5 c 128,-1,43
 1069 811 1069 811 1098 737.5 c 128,-1,44
 1127 664 1127 664 1127 580 c 0,45,46
 1127 507 1127 507 1103 437 c 128,-1,47
 1079 367 1079 367 1042 306 c 0,48,49
 996 230 996 230 934 169.5 c 128,-1,50
 872 109 872 109 798 67 c 128,-1,51
 724 25 724 25 641 2.5 c 128,-1,52
 558 -20 558 -20 469 -20 c 0,0,1
EndSplineSet
Substitution2: "'subs' Subscript lookup 20 subtable" uni2085
Substitution2: "'sinf' Scientific Inferiors lookup 19 subtable" uni2085
Substitution2: "'sups' Superscript lookup 17 subtable" uni2075
AlternateSubs2: "'aalt' Access All Alternates lookup 1 subtable" uni2075 uni2085
EndChar

StartChar: six
Encoding: 54 54 25
Width: 1200
GlyphClass: 1
Flags: W
LayerCount: 2
Fore
SplineSet
484 -20 m 0,0,1
 396 -20 396 -20 318.5 9 c 128,-1,2
 241 38 241 38 183 91 c 128,-1,3
 125 144 125 144 91.5 218.5 c 128,-1,4
 58 293 58 293 58 384 c 0,5,6
 58 489 58 489 94.5 573 c 128,-1,7
 131 657 131 657 198 735 c 2,8,-1
 784 1413 l 1,9,-1
 1116 1413 l 1,10,11
 1098 1393 1098 1393 1060 1352 c 128,-1,12
 1022 1311 1022 1311 976 1261.5 c 128,-1,13
 930 1212 930 1212 881 1159 c 128,-1,14
 832 1106 832 1106 791.5 1062.5 c 128,-1,15
 751 1019 751 1019 724 991 c 128,-1,16
 697 963 697 963 695 963 c 1,17,18
 781 963 781 963 860.5 937 c 128,-1,19
 940 911 940 911 1001 861.5 c 128,-1,20
 1062 812 1062 812 1098.5 740 c 128,-1,21
 1135 668 1135 668 1135 575 c 0,22,23
 1135 474 1135 474 1096.5 382.5 c 128,-1,24
 1058 291 1058 291 992.5 216 c 128,-1,25
 927 141 927 141 842 86 c 128,-1,26
 757 31 757 31 664 4 c 0,27,28
 619 -9 619 -9 574.5 -14.5 c 128,-1,29
 530 -20 530 -20 484 -20 c 0,0,1
538 247 m 0,30,31
 594 247 594 247 650.5 272.5 c 128,-1,32
 707 298 707 298 753 340 c 128,-1,33
 799 382 799 382 828 436.5 c 128,-1,34
 857 491 857 491 857 548 c 0,35,36
 857 590 857 590 840 621.5 c 128,-1,37
 823 653 823 653 795.5 673 c 128,-1,38
 768 693 768 693 732 703 c 128,-1,39
 696 713 696 713 658 713 c 0,40,41
 603 713 603 713 545 688 c 128,-1,42
 487 663 487 663 440.5 621.5 c 128,-1,43
 394 580 394 580 364 526 c 128,-1,44
 334 472 334 472 334 414 c 0,45,46
 334 372 334 372 351.5 340.5 c 128,-1,47
 369 309 369 309 398 288 c 128,-1,48
 427 267 427 267 463.5 257 c 128,-1,49
 500 247 500 247 538 247 c 0,30,31
EndSplineSet
Substitution2: "'subs' Subscript lookup 20 subtable" uni2086
Substitution2: "'sinf' Scientific Inferiors lookup 19 subtable" uni2086
Substitution2: "'sups' Superscript lookup 17 subtable" uni2076
AlternateSubs2: "'aalt' Access All Alternates lookup 1 subtable" uni2076 uni2086
EndChar

StartChar: seven
Encoding: 55 55 26
Width: 1200
GlyphClass: 1
Flags: W
LayerCount: 2
Fore
SplineSet
381 0 m 1,0,-1
 63 0 l 1,1,-1
 928 1153 l 1,2,-1
 232 1153 l 1,3,-1
 292 1413 l 1,4,-1
 1337 1413 l 1,5,-1
 1304 1268 l 1,6,-1
 381 0 l 1,0,-1
EndSplineSet
Substitution2: "'subs' Subscript lookup 20 subtable" uni2087
Substitution2: "'sinf' Scientific Inferiors lookup 19 subtable" uni2087
Substitution2: "'sups' Superscript lookup 17 subtable" uni2077
AlternateSubs2: "'aalt' Access All Alternates lookup 1 subtable" uni2077 uni2087
EndChar

StartChar: eight
Encoding: 56 56 27
Width: 1200
GlyphClass: 1
Flags: W
LayerCount: 2
Fore
SplineSet
480 -20 m 0,0,1
 401 -20 401 -20 322 0.5 c 128,-1,2
 243 21 243 21 179 64 c 128,-1,3
 115 107 115 107 75 172.5 c 128,-1,4
 35 238 35 238 35 328 c 0,5,6
 35 401 35 401 55.5 467.5 c 128,-1,7
 76 534 76 534 113.5 591.5 c 128,-1,8
 151 649 151 649 203 696.5 c 128,-1,9
 255 744 255 744 318 778 c 1,10,11
 284 820 284 820 269 869 c 128,-1,12
 254 918 254 918 254 972 c 0,13,14
 254 1045 254 1045 276 1107.5 c 128,-1,15
 298 1170 298 1170 337 1221.5 c 128,-1,16
 376 1273 376 1273 428.5 1312.5 c 128,-1,17
 481 1352 481 1352 542 1379 c 128,-1,18
 603 1406 603 1406 669.5 1420 c 128,-1,19
 736 1434 736 1434 802 1434 c 0,20,21
 879 1434 879 1434 950 1414 c 128,-1,22
 1021 1394 1021 1394 1075.5 1353.5 c 128,-1,23
 1130 1313 1130 1313 1163 1251 c 128,-1,24
 1196 1189 1196 1189 1196 1104 c 0,25,26
 1196 1050 1196 1050 1181 1000.5 c 128,-1,27
 1166 951 1166 951 1139.5 906 c 128,-1,28
 1113 861 1113 861 1078 822 c 128,-1,29
 1043 783 1043 783 1002 750 c 1,30,31
 1068 705 1068 705 1096.5 640.5 c 128,-1,32
 1125 576 1125 576 1125 498 c 0,33,34
 1125 417 1125 417 1101 346.5 c 128,-1,35
 1077 276 1077 276 1034 218 c 128,-1,36
 991 160 991 160 931 115 c 128,-1,37
 871 70 871 70 798 39 c 0,38,39
 720 6 720 6 642.5 -7 c 128,-1,40
 565 -20 565 -20 480 -20 c 0,0,1
676 873 m 0,41,42
 717 873 717 873 760.5 887 c 128,-1,43
 804 901 804 901 840 927.5 c 128,-1,44
 876 954 876 954 899.5 991 c 128,-1,45
 923 1028 923 1028 923 1073 c 0,46,47
 923 1104 923 1104 908.5 1123 c 128,-1,48
 894 1142 894 1142 871.5 1153 c 128,-1,49
 849 1164 849 1164 822.5 1168 c 128,-1,50
 796 1172 796 1172 771 1172 c 0,51,52
 731 1172 731 1172 687.5 1158.5 c 128,-1,53
 644 1145 644 1145 608 1119.5 c 128,-1,54
 572 1094 572 1094 549 1058 c 128,-1,55
 526 1022 526 1022 526 977 c 0,56,57
 526 946 526 946 539.5 925.5 c 128,-1,58
 553 905 553 905 575 893.5 c 128,-1,59
 597 882 597 882 623.5 877.5 c 128,-1,60
 650 873 650 873 676 873 c 0,41,42
524 237 m 0,61,62
 578 237 578 237 630 251 c 128,-1,63
 682 265 682 265 725 293 c 128,-1,64
 768 321 768 321 799.5 362.5 c 128,-1,65
 831 404 831 404 845 459 c 0,66,67
 850 481 850 481 850 498 c 0,68,69
 850 538 850 538 829 563 c 128,-1,70
 808 588 808 588 776.5 602.5 c 128,-1,71
 745 617 745 617 708.5 622 c 128,-1,72
 672 627 672 627 641 627 c 0,73,74
 584 627 584 627 526 611.5 c 128,-1,75
 468 596 468 596 421 564 c 128,-1,76
 374 532 374 532 344.5 484 c 128,-1,77
 315 436 315 436 315 371 c 0,78,79
 315 329 315 329 335.5 303 c 128,-1,80
 356 277 356 277 387 262.5 c 128,-1,81
 418 248 418 248 454.5 242.5 c 128,-1,82
 491 237 491 237 524 237 c 0,61,62
EndSplineSet
Substitution2: "'subs' Subscript lookup 20 subtable" uni2088
Substitution2: "'sinf' Scientific Inferiors lookup 19 subtable" uni2088
Substitution2: "'sups' Superscript lookup 17 subtable" uni2078
AlternateSubs2: "'aalt' Access All Alternates lookup 1 subtable" uni2078 uni2088
EndChar

StartChar: nine
Encoding: 57 57 28
Width: 1200
GlyphClass: 1
Flags: W
LayerCount: 2
Fore
SplineSet
511 0 m 1,0,-1
 176 0 l 1,1,2
 184 9 184 9 218 45.5 c 128,-1,3
 252 82 252 82 298.5 132 c 128,-1,4
 345 182 345 182 397 237.5 c 128,-1,5
 449 293 449 293 493.5 340 c 128,-1,6
 538 387 538 387 567.5 418.5 c 128,-1,7
 597 450 597 450 599 450 c 1,8,9
 513 450 513 450 434 476 c 128,-1,10
 355 502 355 502 294 552 c 128,-1,11
 233 602 233 602 197 674 c 128,-1,12
 161 746 161 746 161 838 c 0,13,14
 161 940 161 940 200 1032 c 128,-1,15
 239 1124 239 1124 304 1199.5 c 128,-1,16
 369 1275 369 1275 455 1329.5 c 128,-1,17
 541 1384 541 1384 635 1411 c 0,18,19
 678 1423 678 1423 722.5 1428.5 c 128,-1,20
 767 1434 767 1434 812 1434 c 0,21,22
 900 1434 900 1434 978 1404.5 c 128,-1,23
 1056 1375 1056 1375 1114 1321.5 c 128,-1,24
 1172 1268 1172 1268 1205.5 1193.5 c 128,-1,25
 1239 1119 1239 1119 1239 1028 c 0,26,27
 1239 928 1239 928 1201 840.5 c 128,-1,28
 1163 753 1163 753 1098 678 c 2,29,-1
 511 0 l 1,0,-1
638 699 m 0,30,31
 694 699 694 699 751.5 724.5 c 128,-1,32
 809 750 809 750 855.5 792 c 128,-1,33
 902 834 902 834 932 888 c 128,-1,34
 962 942 962 942 962 1000 c 0,35,36
 962 1043 962 1043 944.5 1074 c 128,-1,37
 927 1105 927 1105 898.5 1125.5 c 128,-1,38
 870 1146 870 1146 833.5 1156 c 128,-1,39
 797 1166 797 1166 759 1166 c 0,40,41
 703 1166 703 1166 645.5 1140.5 c 128,-1,42
 588 1115 588 1115 541.5 1073 c 128,-1,43
 495 1031 495 1031 465.5 977 c 128,-1,44
 436 923 436 923 436 865 c 0,45,46
 436 823 436 823 453.5 792 c 128,-1,47
 471 761 471 761 499.5 740.5 c 128,-1,48
 528 720 528 720 564.5 709.5 c 128,-1,49
 601 699 601 699 638 699 c 0,30,31
EndSplineSet
Substitution2: "'subs' Subscript lookup 20 subtable" uni2089
Substitution2: "'sinf' Scientific Inferiors lookup 19 subtable" uni2089
Substitution2: "'sups' Superscript lookup 17 subtable" uni2079
AlternateSubs2: "'aalt' Access All Alternates lookup 1 subtable" uni2079 uni2089
EndChar

StartChar: colon
Encoding: 58 58 29
Width: 600
GlyphClass: 1
Flags: W
LayerCount: 2
Fore
SplineSet
489 668 m 1,0,-1
 202 668 l 1,1,-1
 268 954 l 1,2,-1
 556 954 l 1,3,-1
 489 668 l 1,0,-1
337 0 m 1,4,-1
 49 0 l 1,5,-1
 113 286 l 1,6,-1
 401 286 l 1,7,-1
 337 0 l 1,4,-1
EndSplineSet
EndChar

StartChar: semicolon
Encoding: 59 59 30
Width: 600
GlyphClass: 1
Flags: W
LayerCount: 2
Fore
SplineSet
465 668 m 1,0,-1
 175 668 l 1,1,-1
 243 954 l 1,2,-1
 531 954 l 1,3,-1
 465 668 l 1,0,-1
99 -225 m 1,4,-1
 -86 -225 l 1,5,-1
 126 264 l 1,6,-1
 439 264 l 1,7,-1
 99 -225 l 1,4,-1
EndSplineSet
EndChar

StartChar: less
Encoding: 60 60 31
Width: 1241
GlyphClass: 1
Flags: W
LayerCount: 2
Fore
SplineSet
1037 146 m 1,0,-1
 25 674 l 1,1,-1
 1037 1201 l 1,2,-1
 1151 1005 l 1,3,-1
 465 674 l 1,4,-1
 1151 343 l 1,5,-1
 1037 146 l 1,0,-1
EndSplineSet
EndChar

StartChar: equal
Encoding: 61 61 32
Width: 1267
GlyphClass: 1
Flags: W
LayerCount: 2
Fore
SplineSet
1060 745 m 1,0,-1
 208 745 l 1,1,-1
 208 973 l 1,2,-1
 1060 973 l 1,3,-1
 1060 745 l 1,0,-1
1060 370 m 1,4,-1
 208 370 l 1,5,-1
 208 599 l 1,6,-1
 1060 599 l 1,7,-1
 1060 370 l 1,4,-1
EndSplineSet
EndChar

StartChar: greater
Encoding: 62 62 33
Width: 1242
GlyphClass: 1
Flags: W
LayerCount: 2
Fore
SplineSet
204 146 m 1,0,-1
 90 343 l 1,1,-1
 776 674 l 1,2,-1
 90 1005 l 1,3,-1
 204 1201 l 1,4,-1
 1216 674 l 1,5,-1
 204 146 l 1,0,-1
EndSplineSet
EndChar

StartChar: question
Encoding: 63 63 34
Width: 987
GlyphClass: 1
Flags: W
LayerCount: 2
Fore
SplineSet
583 439 m 1,0,-1
 356 439 l 1,1,2
 370 496 370 496 382 556 c 128,-1,3
 394 616 394 616 419 668 c 0,4,5
 436 703 436 703 459.5 732.5 c 128,-1,6
 483 762 483 762 515 785 c 0,7,8
 561 818 561 818 617 845.5 c 128,-1,9
 673 873 673 873 722.5 906.5 c 128,-1,10
 772 940 772 940 805.5 986 c 128,-1,11
 839 1032 839 1032 839 1102 c 0,12,13
 839 1116 839 1116 835 1135 c 128,-1,14
 831 1154 831 1154 822 1165 c 0,15,16
 812 1179 812 1179 791.5 1187.5 c 128,-1,17
 771 1196 771 1196 747.5 1201 c 128,-1,18
 724 1206 724 1206 701 1207.5 c 128,-1,19
 678 1209 678 1209 662 1209 c 0,20,21
 599 1209 599 1209 550.5 1192 c 128,-1,22
 502 1175 502 1175 466.5 1143 c 128,-1,23
 431 1111 431 1111 408 1064.5 c 128,-1,24
 385 1018 385 1018 371 958 c 1,25,-1
 141 980 l 1,26,27
 164 1083 164 1083 210 1167 c 128,-1,28
 256 1251 256 1251 324 1310 c 128,-1,29
 392 1369 392 1369 481 1401.5 c 128,-1,30
 570 1434 570 1434 678 1434 c 0,31,32
 756 1434 756 1434 827 1413.5 c 128,-1,33
 898 1393 898 1393 952.5 1351 c 128,-1,34
 1007 1309 1007 1309 1039.5 1246 c 128,-1,35
 1072 1183 1072 1183 1072 1098 c 0,36,37
 1072 1005 1072 1005 1041 931.5 c 128,-1,38
 1010 858 1010 858 957 800.5 c 128,-1,39
 904 743 904 743 834 699.5 c 128,-1,40
 764 656 764 656 685 623 c 0,41,42
 672 618 672 618 659.5 611.5 c 128,-1,43
 647 605 647 605 636 597 c 0,44,45
 623 587 623 587 614.5 567 c 128,-1,46
 606 547 606 547 600.5 523.5 c 128,-1,47
 595 500 595 500 591 477 c 128,-1,48
 587 454 587 454 583 439 c 1,0,-1
518 0 m 1,49,-1
 230 0 l 1,50,-1
 293 286 l 1,51,-1
 581 286 l 1,52,-1
 518 0 l 1,49,-1
EndSplineSet
EndChar

StartChar: at
Encoding: 64 64 35
Width: 1993
GlyphClass: 1
Flags: W
LayerCount: 2
Fore
SplineSet
796 -348 m 0,0,1
 690 -348 690 -348 587.5 -324.5 c 128,-1,2
 485 -301 485 -301 395.5 -252 c 128,-1,3
 306 -203 306 -203 234.5 -128.5 c 128,-1,4
 163 -54 163 -54 118 47 c 0,5,6
 88 116 88 116 76.5 183.5 c 128,-1,7
 65 251 65 251 65 326 c 0,8,9
 65 482 65 482 113.5 630 c 128,-1,10
 162 778 162 778 247.5 907 c 128,-1,11
 333 1036 333 1036 450 1140.5 c 128,-1,12
 567 1245 567 1245 704 1314 c 0,13,14
 827 1376 827 1376 952 1404 c 128,-1,15
 1077 1432 1077 1432 1214 1432 c 0,16,17
 1373 1432 1373 1432 1507 1384 c 128,-1,18
 1641 1336 1641 1336 1738.5 1245.5 c 128,-1,19
 1836 1155 1836 1155 1890.5 1025 c 128,-1,20
 1945 895 1945 895 1945 732 c 0,21,22
 1945 646 1945 646 1926.5 552 c 128,-1,23
 1908 458 1908 458 1871.5 367.5 c 128,-1,24
 1835 277 1835 277 1782 195 c 128,-1,25
 1729 113 1729 113 1659.5 51.5 c 128,-1,26
 1590 -10 1590 -10 1505.5 -46.5 c 128,-1,27
 1421 -83 1421 -83 1322 -83 c 0,28,29
 1274 -83 1274 -83 1231 -72 c 128,-1,30
 1188 -61 1188 -61 1155.5 -37.5 c 128,-1,31
 1123 -14 1123 -14 1104.5 23.5 c 128,-1,32
 1086 61 1086 61 1086 115 c 2,33,-1
 1085 145 l 1,34,35
 1018 93 1018 93 941.5 64.5 c 128,-1,36
 865 36 865 36 780 36 c 0,37,38
 711 36 711 36 659.5 58.5 c 128,-1,39
 608 81 608 81 574 120.5 c 128,-1,40
 540 160 540 160 523 215 c 128,-1,41
 506 270 506 270 506 336 c 0,42,43
 506 415 506 415 531 496.5 c 128,-1,44
 556 578 556 578 591 649 c 0,45,46
 629 727 629 727 685 802 c 128,-1,47
 741 877 741 877 811.5 936.5 c 128,-1,48
 882 996 882 996 965 1032 c 128,-1,49
 1048 1068 1048 1068 1141 1068 c 0,50,51
 1216 1068 1216 1068 1278.5 1037.5 c 128,-1,52
 1341 1007 1341 1007 1377 938 c 1,53,-1
 1414 1019 l 1,54,-1
 1626 1007 l 1,55,56
 1608 966 1608 966 1590.5 926 c 128,-1,57
 1573 886 1573 886 1554 846 c 0,58,59
 1540 816 1540 816 1514.5 762.5 c 128,-1,60
 1489 709 1489 709 1458.5 643.5 c 128,-1,61
 1428 578 1428 578 1396.5 506.5 c 128,-1,62
 1365 435 1365 435 1339.5 369.5 c 128,-1,63
 1314 304 1314 304 1297.5 249.5 c 128,-1,64
 1281 195 1281 195 1281 164 c 0,65,66
 1281 151 1281 151 1286 143.5 c 128,-1,67
 1291 136 1291 136 1298.5 132 c 128,-1,68
 1306 128 1306 128 1316 127 c 128,-1,69
 1326 126 1326 126 1336 126 c 0,70,71
 1403 126 1403 126 1459.5 156 c 128,-1,72
 1516 186 1516 186 1561 235 c 128,-1,73
 1606 284 1606 284 1640.5 347.5 c 128,-1,74
 1675 411 1675 411 1698 478 c 128,-1,75
 1721 545 1721 545 1732.5 611.5 c 128,-1,76
 1744 678 1744 678 1744 732 c 0,77,78
 1744 854 1744 854 1699.5 947 c 128,-1,79
 1655 1040 1655 1040 1579.5 1103 c 128,-1,80
 1504 1166 1504 1166 1402.5 1198 c 128,-1,81
 1301 1230 1301 1230 1187 1230 c 0,82,83
 1055 1230 1055 1230 930.5 1191 c 128,-1,84
 806 1152 806 1152 698 1082 c 128,-1,85
 590 1012 590 1012 502.5 914.5 c 128,-1,86
 415 817 415 817 357 700 c 0,87,88
 315 615 315 615 291 523 c 128,-1,89
 267 431 267 431 267 336 c 0,90,91
 267 216 267 216 314 127.5 c 128,-1,92
 361 39 361 39 439.5 -20 c 128,-1,93
 518 -79 518 -79 619.5 -108 c 128,-1,94
 721 -137 721 -137 829 -137 c 0,95,96
 895 -137 895 -137 957.5 -125.5 c 128,-1,97
 1020 -114 1020 -114 1083 -94 c 1,98,99
 1094 -145 1094 -145 1103 -196.5 c 128,-1,100
 1112 -248 1112 -248 1123 -299 c 1,101,102
 1043 -326 1043 -326 961.5 -337 c 128,-1,103
 880 -348 880 -348 796 -348 c 0,0,1
817 245 m 0,104,105
 881 245 881 245 938.5 271.5 c 128,-1,106
 996 298 996 298 1045 341 c 128,-1,107
 1094 384 1094 384 1133 437 c 128,-1,108
 1172 490 1172 490 1199 543 c 0,109,110
 1211 566 1211 566 1222.5 593.5 c 128,-1,111
 1234 621 1234 621 1243.5 649.5 c 128,-1,112
 1253 678 1253 678 1259 706.5 c 128,-1,113
 1265 735 1265 735 1265 761 c 0,114,115
 1265 789 1265 789 1256.5 807.5 c 128,-1,116
 1248 826 1248 826 1233 837.5 c 128,-1,117
 1218 849 1218 849 1197 854 c 128,-1,118
 1176 859 1176 859 1150 859 c 0,119,120
 1092 859 1092 859 1036.5 836 c 128,-1,121
 981 813 981 813 931 774.5 c 128,-1,122
 881 736 881 736 839 685 c 128,-1,123
 797 634 797 634 766.5 577 c 128,-1,124
 736 520 736 520 719 460.5 c 128,-1,125
 702 401 702 401 702 347 c 0,126,127
 702 290 702 290 732.5 267.5 c 128,-1,128
 763 245 763 245 817 245 c 0,104,105
EndSplineSet
EndChar

StartChar: A
Encoding: 65 65 36
Width: 1355
GlyphClass: 1
Flags: W
LayerCount: 2
Fore
SplineSet
1241 0 m 1,0,-1
 939 0 l 1,1,-1
 900 307 l 1,2,-1
 373 307 l 1,3,-1
 193 0 l 1,4,-1
 -120 0 l 1,5,-1
 781 1413 l 1,6,-1
 993 1413 l 1,7,-1
 1241 0 l 1,0,-1
860 546 m 1,8,-1
 799 996 l 1,9,-1
 527 546 l 1,10,-1
 860 546 l 1,8,-1
EndSplineSet
Substitution2: "Single Substitution lookup 3 subtable" ordfeminine
Substitution2: "Single Substitution lookup 2 subtable" ordfeminine
Position2: "'cpsp' Capital Spacing lookup 0 per glyph data 0" dx=5 dy=0 dh=10 dv=0
EndChar

StartChar: B
Encoding: 66 66 37
Width: 1282
GlyphClass: 1
Flags: W
LayerCount: 2
Fore
SplineSet
653 0 m 2,0,-1
 58 0 l 1,1,2
 139 355 139 355 220.5 706.5 c 128,-1,3
 302 1058 302 1058 383 1413 c 1,4,-1
 897 1413 l 2,5,6
 970 1413 970 1413 1038 1395.5 c 128,-1,7
 1106 1378 1106 1378 1158.5 1340.5 c 128,-1,8
 1211 1303 1211 1303 1243 1245 c 128,-1,9
 1275 1187 1275 1187 1275 1105 c 0,10,11
 1275 1050 1275 1050 1258.5 996 c 128,-1,12
 1242 942 1242 942 1213 895 c 128,-1,13
 1184 848 1184 848 1143 809.5 c 128,-1,14
 1102 771 1102 771 1053 746 c 1,15,16
 1091 731 1091 731 1118.5 700.5 c 128,-1,17
 1146 670 1146 670 1163.5 632.5 c 128,-1,18
 1181 595 1181 595 1189.5 553.5 c 128,-1,19
 1198 512 1198 512 1198 474 c 0,20,21
 1198 405 1198 405 1175.5 343 c 128,-1,22
 1153 281 1153 281 1114 228.5 c 128,-1,23
 1075 176 1075 176 1022 133.5 c 128,-1,24
 969 91 969 91 908.5 61.5 c 128,-1,25
 848 32 848 32 782.5 16 c 128,-1,26
 717 0 717 0 653 0 c 2,0,-1
802 860 m 2,27,28
 890 860 890 860 941 906 c 128,-1,29
 992 952 992 952 1014 1035 c 0,30,31
 1017 1046 1017 1046 1017 1057 c 0,32,33
 1017 1088 1017 1088 1001 1107.5 c 128,-1,34
 985 1127 985 1127 960.5 1138 c 128,-1,35
 936 1149 936 1149 907.5 1153 c 128,-1,36
 879 1157 879 1157 855 1157 c 2,37,-1
 608 1157 l 1,38,-1
 540 860 l 1,39,-1
 802 860 l 2,27,28
695 272 m 2,40,41
 743 272 743 272 782.5 287.5 c 128,-1,42
 822 303 822 303 852 330.5 c 128,-1,43
 882 358 882 358 902 396.5 c 128,-1,44
 922 435 922 435 932 480 c 0,45,46
 933 485 933 485 933.5 489 c 128,-1,47
 934 493 934 493 934 498 c 0,48,49
 934 530 934 530 919 552.5 c 128,-1,50
 904 575 904 575 880.5 589.5 c 128,-1,51
 857 604 857 604 828.5 610.5 c 128,-1,52
 800 617 800 617 773 617 c 2,53,-1
 483 617 l 1,54,-1
 404 272 l 1,55,-1
 695 272 l 2,40,41
EndSplineSet
Position2: "'cpsp' Capital Spacing lookup 0 per glyph data 0" dx=5 dy=0 dh=10 dv=0
EndChar

StartChar: C
Encoding: 67 67 38
Width: 1432
GlyphClass: 1
Flags: W
LayerCount: 2
Fore
SplineSet
649 -20 m 0,0,1
 525 -20 525 -20 423 15.5 c 128,-1,2
 321 51 321 51 248 118.5 c 128,-1,3
 175 186 175 186 135 285 c 128,-1,4
 95 384 95 384 95 511 c 0,5,6
 95 589 95 589 108 664 c 128,-1,7
 121 739 121 739 144 813 c 0,8,9
 188 953 188 953 266.5 1067.5 c 128,-1,10
 345 1182 345 1182 451.5 1264 c 128,-1,11
 558 1346 558 1346 688.5 1391 c 128,-1,12
 819 1436 819 1436 967 1436 c 0,13,14
 1071 1436 1071 1436 1162 1409 c 128,-1,15
 1253 1382 1253 1382 1325 1328.5 c 128,-1,16
 1397 1275 1397 1275 1445.5 1195.5 c 128,-1,17
 1494 1116 1494 1116 1513 1010 c 1,18,-1
 1229 927 l 1,19,20
 1229 996 1229 996 1205 1045.5 c 128,-1,21
 1181 1095 1181 1095 1139 1127 c 128,-1,22
 1097 1159 1097 1159 1041 1174 c 128,-1,23
 985 1189 985 1189 923 1189 c 0,24,25
 839 1189 839 1189 766 1162.5 c 128,-1,26
 693 1136 693 1136 632 1089.5 c 128,-1,27
 571 1043 571 1043 523.5 980.5 c 128,-1,28
 476 918 476 918 443 846 c 128,-1,29
 410 774 410 774 392.5 696.5 c 128,-1,30
 375 619 375 619 375 542 c 256,31,32
 375 465 375 465 397.5 410 c 128,-1,33
 420 355 420 355 461.5 319.5 c 128,-1,34
 503 284 503 284 562 267.5 c 128,-1,35
 621 251 621 251 694 251 c 0,36,37
 843 251 843 251 952 319.5 c 128,-1,38
 1061 388 1061 388 1136 514 c 1,39,-1
 1374 385 l 1,40,41
 1246 188 1246 188 1065.5 84 c 128,-1,42
 885 -20 885 -20 649 -20 c 0,0,1
EndSplineSet
Position2: "'cpsp' Capital Spacing lookup 0 per glyph data 0" dx=5 dy=0 dh=10 dv=0
EndChar

StartChar: D
Encoding: 68 68 39
Width: 1408
GlyphClass: 1
Flags: W
LayerCount: 2
Fore
SplineSet
486 0 m 2,0,-1
 58 0 l 1,1,-1
 383 1413 l 1,2,-1
 802 1413 l 2,3,4
 929 1413 929 1413 1040 1386 c 128,-1,5
 1151 1359 1151 1359 1233 1299 c 128,-1,6
 1315 1239 1315 1239 1362 1141.5 c 128,-1,7
 1409 1044 1409 1044 1409 903 c 0,8,9
 1409 834 1409 834 1398 766.5 c 128,-1,10
 1387 699 1387 699 1369 633 c 0,11,12
 1324 470 1324 470 1242 351 c 128,-1,13
 1160 232 1160 232 1047 154 c 128,-1,14
 934 76 934 76 792 38 c 128,-1,15
 650 0 650 0 486 0 c 2,0,-1
509 260 m 2,16,17
 635 260 635 260 733.5 287.5 c 128,-1,18
 832 315 832 315 905.5 372.5 c 128,-1,19
 979 430 979 430 1029.5 519 c 128,-1,20
 1080 608 1080 608 1109 731 c 0,21,22
 1119 773 1119 773 1125.5 815.5 c 128,-1,23
 1132 858 1132 858 1132 902 c 0,24,25
 1132 989 1132 989 1098 1038.5 c 128,-1,26
 1064 1088 1064 1088 1009.5 1113 c 128,-1,27
 955 1138 955 1138 887 1144.5 c 128,-1,28
 819 1151 819 1151 751 1151 c 2,29,-1
 607 1151 l 1,30,31
 555 927 555 927 503.5 705.5 c 128,-1,32
 452 484 452 484 401 260 c 1,33,-1
 509 260 l 2,16,17
EndSplineSet
Position2: "'cpsp' Capital Spacing lookup 0 per glyph data 0" dx=5 dy=0 dh=10 dv=0
EndChar

StartChar: E
Encoding: 69 69 40
Width: 1245
GlyphClass: 1
Flags: W
LayerCount: 2
Fore
SplineSet
1005 0 m 1,0,-1
 58 0 l 1,1,-1
 383 1413 l 1,2,-1
 1330 1413 l 1,3,-1
 1271 1150 l 1,4,-1
 607 1150 l 1,5,-1
 532 838 l 1,6,-1
 1166 838 l 1,7,-1
 1106 574 l 1,8,-1
 473 574 l 1,9,-1
 404 270 l 1,10,-1
 1068 270 l 1,11,-1
 1005 0 l 1,0,-1
EndSplineSet
Position2: "'cpsp' Capital Spacing lookup 0 per glyph data 0" dx=5 dy=0 dh=10 dv=0
EndChar

StartChar: F
Encoding: 70 70 41
Width: 1245
GlyphClass: 1
Flags: W
LayerCount: 2
Fore
SplineSet
341 0 m 1,0,-1
 58 0 l 1,1,-1
 383 1413 l 1,2,-1
 1414 1413 l 1,3,-1
 1354 1150 l 1,4,-1
 607 1150 l 1,5,-1
 532 838 l 1,6,-1
 1191 838 l 1,7,-1
 1132 574 l 1,8,-1
 473 574 l 1,9,-1
 341 0 l 1,0,-1
EndSplineSet
Position2: "'cpsp' Capital Spacing lookup 0 per glyph data 0" dx=5 dy=0 dh=10 dv=0
EndChar

StartChar: G
Encoding: 71 71 42
Width: 1542
GlyphClass: 1
Flags: W
LayerCount: 2
Fore
SplineSet
650 -20 m 0,0,1
 526 -20 526 -20 424.5 15.5 c 128,-1,2
 323 51 323 51 250 118.5 c 128,-1,3
 177 186 177 186 137 284.5 c 128,-1,4
 97 383 97 383 97 510 c 0,5,6
 97 626 97 626 124.5 738.5 c 128,-1,7
 152 851 152 851 203 955 c 0,8,9
 260 1070 260 1070 338 1159.5 c 128,-1,10
 416 1249 416 1249 513.5 1310.5 c 128,-1,11
 611 1372 611 1372 725 1404 c 128,-1,12
 839 1436 839 1436 968 1436 c 0,13,14
 1072 1436 1072 1436 1162 1408.5 c 128,-1,15
 1252 1381 1252 1381 1322.5 1327 c 128,-1,16
 1393 1273 1393 1273 1442 1193.5 c 128,-1,17
 1491 1114 1491 1114 1512 1010 c 1,18,-1
 1246 928 l 1,19,20
 1242 1000 1242 1000 1217 1050 c 128,-1,21
 1192 1100 1192 1100 1150.5 1131.5 c 128,-1,22
 1109 1163 1109 1163 1053 1177 c 128,-1,23
 997 1191 997 1191 930 1191 c 0,24,25
 823 1191 823 1191 734 1149.5 c 128,-1,26
 645 1108 645 1108 577 1038.5 c 128,-1,27
 509 969 509 969 463 879 c 128,-1,28
 417 789 417 789 395 691 c 0,29,30
 387 653 387 653 381 615 c 128,-1,31
 375 577 375 577 375 538 c 0,32,33
 375 459 375 459 397.5 401 c 128,-1,34
 420 343 420 343 462 305.5 c 128,-1,35
 504 268 504 268 564.5 249.5 c 128,-1,36
 625 231 625 231 701 231 c 0,37,38
 773 231 773 231 844.5 258 c 128,-1,39
 916 285 916 285 977.5 330 c 128,-1,40
 1039 375 1039 375 1087 434.5 c 128,-1,41
 1135 494 1135 494 1162 560 c 1,42,43
 1081 558 1081 558 1000.5 554.5 c 128,-1,44
 920 551 920 551 839 549 c 1,45,46
 842 559 842 559 848 587.5 c 128,-1,47
 854 616 854 616 860.5 647 c 128,-1,48
 867 678 867 678 872.5 703 c 128,-1,49
 878 728 878 728 880 731 c 0,50,51
 880 735 880 735 881 738 c 128,-1,52
 882 741 882 741 891 779 c 1,53,-1
 1488 779 l 1,54,55
 1442 584 1442 584 1397.5 390 c 128,-1,56
 1353 196 1353 196 1308 0 c 1,57,-1
 1087 0 l 1,58,-1
 1100 168 l 1,59,60
 1013 67 1013 67 897 23.5 c 128,-1,61
 781 -20 781 -20 650 -20 c 0,0,1
EndSplineSet
Position2: "'cpsp' Capital Spacing lookup 0 per glyph data 0" dx=5 dy=0 dh=10 dv=0
EndChar

StartChar: H
Encoding: 72 72 43
Width: 1500
GlyphClass: 1
Flags: W
LayerCount: 2
Fore
SplineSet
1213 0 m 1,0,-1
 930 0 l 1,1,-1
 1061 574 l 1,2,-1
 473 574 l 1,3,-1
 341 0 l 1,4,-1
 58 0 l 1,5,-1
 383 1413 l 1,6,-1
 666 1413 l 1,7,-1
 532 838 l 1,8,-1
 1121 838 l 1,9,-1
 1256 1413 l 1,10,-1
 1539 1413 l 1,11,-1
 1213 0 l 1,0,-1
EndSplineSet
Position2: "'cpsp' Capital Spacing lookup 0 per glyph data 0" dx=5 dy=0 dh=10 dv=0
EndChar

StartChar: I
Encoding: 73 73 44
Width: 627
GlyphClass: 1
Flags: W
LayerCount: 2
Fore
SplineSet
341 0 m 1,0,-1
 58 0 l 1,1,-1
 383 1413 l 1,2,-1
 666 1413 l 1,3,-1
 341 0 l 1,0,-1
EndSplineSet
Position2: "'cpsp' Capital Spacing lookup 0 per glyph data 0" dx=5 dy=0 dh=10 dv=0
EndChar

StartChar: J
Encoding: 74 74 45
Width: 1143
GlyphClass: 1
Flags: W
LayerCount: 2
Fore
SplineSet
393 -20 m 0,0,1
 306 -20 306 -20 234.5 8 c 128,-1,2
 163 36 163 36 111 87.5 c 128,-1,3
 59 139 59 139 30.5 210.5 c 128,-1,4
 2 282 2 282 2 369 c 0,5,6
 2 393 2 393 3.5 417.5 c 128,-1,7
 5 442 5 442 9 466 c 1,8,-1
 289 474 l 1,9,10
 283 441 283 441 283 407 c 0,11,12
 283 329 283 329 320 287 c 128,-1,13
 357 245 357 245 438 245 c 0,14,15
 508 245 508 245 556 266 c 128,-1,16
 604 287 604 287 636 324 c 128,-1,17
 668 361 668 361 688 411 c 128,-1,18
 708 461 708 461 723 524 c 2,19,-1
 930 1413 l 1,20,-1
 1211 1413 l 1,21,-1
 1001 501 l 2,22,23
 973 380 973 380 923 283.5 c 128,-1,24
 873 187 873 187 798 119.5 c 128,-1,25
 723 52 723 52 622 16 c 128,-1,26
 521 -20 521 -20 393 -20 c 0,0,1
EndSplineSet
Position2: "'cpsp' Capital Spacing lookup 0 per glyph data 0" dx=5 dy=0 dh=10 dv=0
EndChar

StartChar: K
Encoding: 75 75 46
Width: 1501
GlyphClass: 1
Flags: W
LayerCount: 2
Fore
SplineSet
1381 0 m 1,0,-1
 1032 0 l 1,1,-1
 759 635 l 1,2,-1
 426 360 l 1,3,-1
 341 0 l 1,4,-1
 58 0 l 1,5,-1
 383 1413 l 1,6,-1
 666 1413 l 1,7,-1
 501 705 l 1,8,-1
 1323 1413 l 1,9,-1
 1710 1413 l 1,10,-1
 998 827 l 1,11,-1
 1381 0 l 1,0,-1
EndSplineSet
Position2: "'cpsp' Capital Spacing lookup 0 per glyph data 0" dx=5 dy=0 dh=10 dv=0
EndChar

StartChar: L
Encoding: 76 76 47
Width: 1069
GlyphClass: 1
Flags: W
LayerCount: 2
Fore
SplineSet
945 0 m 1,0,-1
 58 0 l 1,1,-1
 383 1413 l 1,2,-1
 666 1413 l 1,3,-1
 404 270 l 1,4,-1
 1008 270 l 1,5,-1
 945 0 l 1,0,-1
EndSplineSet
Position2: "'cpsp' Capital Spacing lookup 0 per glyph data 0" dx=5 dy=0 dh=10 dv=0
EndChar

StartChar: M
Encoding: 77 77 48
Width: 1807
GlyphClass: 1
Flags: W
LayerCount: 2
Fore
SplineSet
1520 0 m 1,0,-1
 1249 0 l 1,1,-1
 1479 988 l 1,2,-1
 952 123 l 1,3,-1
 683 123 l 1,4,-1
 557 988 l 1,5,-1
 327 0 l 1,6,-1
 58 0 l 1,7,-1
 383 1413 l 1,8,-1
 749 1413 l 1,9,-1
 889 448 l 1,10,-1
 1476 1413 l 1,11,-1
 1846 1413 l 1,12,-1
 1520 0 l 1,0,-1
EndSplineSet
Position2: "'cpsp' Capital Spacing lookup 0 per glyph data 0" dx=5 dy=0 dh=10 dv=0
EndChar

StartChar: N
Encoding: 78 78 49
Width: 1463
GlyphClass: 1
Flags: W
LayerCount: 2
Fore
SplineSet
1176 0 m 1,0,-1
 916 0 l 1,1,-1
 542 916 l 1,2,-1
 327 0 l 1,3,-1
 58 0 l 1,4,-1
 383 1413 l 1,5,-1
 642 1413 l 1,6,-1
 1017 499 l 1,7,-1
 1231 1413 l 1,8,-1
 1502 1413 l 1,9,-1
 1176 0 l 1,0,-1
EndSplineSet
Position2: "'cpsp' Capital Spacing lookup 0 per glyph data 0" dx=5 dy=0 dh=10 dv=0
EndChar

StartChar: O
Encoding: 79 79 50
Width: 1529
GlyphClass: 1
Flags: W
LayerCount: 2
Fore
SplineSet
647 -20 m 0,0,1
 524 -20 524 -20 422.5 15 c 128,-1,2
 321 50 321 50 248 117.5 c 128,-1,3
 175 185 175 185 134.5 283 c 128,-1,4
 94 381 94 381 94 507 c 0,5,6
 94 630 94 630 126 753.5 c 128,-1,7
 158 877 158 877 218.5 987.5 c 128,-1,8
 279 1098 279 1098 366.5 1189 c 128,-1,9
 454 1280 454 1280 565 1338 c 0,10,11
 616 1365 616 1365 665 1383 c 128,-1,12
 714 1401 714 1401 764.5 1412.5 c 128,-1,13
 815 1424 815 1424 867.5 1429 c 128,-1,14
 920 1434 920 1434 977 1434 c 0,15,16
 1104 1434 1104 1434 1206 1398 c 128,-1,17
 1308 1362 1308 1362 1380 1293.5 c 128,-1,18
 1452 1225 1452 1225 1490.5 1125 c 128,-1,19
 1529 1025 1529 1025 1529 896 c 0,20,21
 1529 804 1529 804 1511 712.5 c 128,-1,22
 1493 621 1493 621 1458.5 535.5 c 128,-1,23
 1424 450 1424 450 1374 371.5 c 128,-1,24
 1324 293 1324 293 1260 227 c 0,25,26
 1132 94 1132 94 980.5 37 c 128,-1,27
 829 -20 829 -20 647 -20 c 0,0,1
696 230 m 0,28,29
 804 230 804 230 890 272 c 128,-1,30
 976 314 976 314 1040 384 c 128,-1,31
 1104 454 1104 454 1147 544.5 c 128,-1,32
 1190 635 1190 635 1211 731 c 0,33,34
 1220 772 1220 772 1225.5 812 c 128,-1,35
 1231 852 1231 852 1231 894 c 0,36,37
 1231 1045 1231 1045 1152.5 1114 c 128,-1,38
 1074 1183 1074 1183 928 1183 c 0,39,40
 818 1183 818 1183 732.5 1141 c 128,-1,41
 647 1099 647 1099 583.5 1029 c 128,-1,42
 520 959 520 959 478 868.5 c 128,-1,43
 436 778 436 778 413 681 c 0,44,45
 393 598 393 598 393 518 c 0,46,47
 393 369 393 369 472 299.5 c 128,-1,48
 551 230 551 230 696 230 c 0,28,29
EndSplineSet
Substitution2: "Single Substitution lookup 3 subtable" ordmasculine
Substitution2: "Single Substitution lookup 2 subtable" ordmasculine
Position2: "'cpsp' Capital Spacing lookup 0 per glyph data 0" dx=5 dy=0 dh=10 dv=0
EndChar

StartChar: P
Encoding: 80 80 51
Width: 1170
GlyphClass: 1
Flags: W
LayerCount: 2
Fore
SplineSet
338 0 m 1,0,-1
 58 0 l 1,1,2
 139 355 139 355 220.5 706.5 c 128,-1,3
 302 1058 302 1058 383 1413 c 1,4,-1
 833 1413 l 2,5,6
 914 1413 914 1413 991.5 1394.5 c 128,-1,7
 1069 1376 1069 1376 1129 1335 c 128,-1,8
 1189 1294 1189 1294 1225.5 1229 c 128,-1,9
 1262 1164 1262 1164 1262 1071 c 0,10,11
 1262 987 1262 987 1237.5 915 c 128,-1,12
 1213 843 1213 843 1168.5 785.5 c 128,-1,13
 1124 728 1124 728 1061 684.5 c 128,-1,14
 998 641 998 641 920 613 c 0,15,16
 864 593 864 593 808.5 584 c 128,-1,17
 753 575 753 575 701 572 c 128,-1,18
 649 569 649 569 601 569 c 2,19,-1
 470 570 l 1,20,21
 438 427 438 427 404 285 c 128,-1,22
 370 143 370 143 338 0 c 1,0,-1
698 837 m 2,23,24
 747 837 747 837 792 845 c 128,-1,25
 837 853 837 853 874 872.5 c 128,-1,26
 911 892 911 892 938.5 926 c 128,-1,27
 966 960 966 960 979 1012 c 0,28,29
 981 1021 981 1021 982.5 1029.5 c 128,-1,30
 984 1038 984 1038 984 1047 c 0,31,32
 984 1083 984 1083 962 1103 c 128,-1,33
 940 1123 940 1123 909 1132.5 c 128,-1,34
 878 1142 878 1142 843.5 1144 c 128,-1,35
 809 1146 809 1146 783 1146 c 2,36,-1
 602 1146 l 1,37,38
 584 1068 584 1068 565.5 991.5 c 128,-1,39
 547 915 547 915 530 837 c 1,40,-1
 698 837 l 2,23,24
EndSplineSet
Position2: "'cpsp' Capital Spacing lookup 0 per glyph data 0" dx=5 dy=0 dh=10 dv=0
EndChar

StartChar: Q
Encoding: 81 81 52
Width: 1579
GlyphClass: 1
Flags: W
LayerCount: 2
Fore
SplineSet
1206 -126 m 1,0,1
 1166 -76 1166 -76 1127 -26.5 c 128,-1,2
 1088 23 1088 23 1048 72 c 1,3,4
 953 21 953 21 853.5 0.5 c 128,-1,5
 754 -20 754 -20 647 -20 c 0,6,7
 521 -20 521 -20 419 15.5 c 128,-1,8
 317 51 317 51 244.5 119.5 c 128,-1,9
 172 188 172 188 133 287.5 c 128,-1,10
 94 387 94 387 94 516 c 0,11,12
 94 638 94 638 126.5 760 c 128,-1,13
 159 882 159 882 220 991 c 128,-1,14
 281 1100 281 1100 368.5 1190 c 128,-1,15
 456 1280 456 1280 565 1338 c 0,16,17
 663 1390 663 1390 764.5 1412 c 128,-1,18
 866 1434 866 1434 977 1434 c 0,19,20
 1102 1434 1102 1434 1203.5 1398.5 c 128,-1,21
 1305 1363 1305 1363 1377.5 1295.5 c 128,-1,22
 1450 1228 1450 1228 1489.5 1129 c 128,-1,23
 1529 1030 1529 1030 1529 903 c 0,24,25
 1529 812 1529 812 1511.5 720 c 128,-1,26
 1494 628 1494 628 1460 540.5 c 128,-1,27
 1426 453 1426 453 1377 373.5 c 128,-1,28
 1328 294 1328 294 1265 228 c 1,29,-1
 1429 46 l 1,30,31
 1372 3 1372 3 1317 -40 c 128,-1,32
 1262 -83 1262 -83 1206 -126 c 1,0,1
693 249 m 0,33,34
 742 249 742 249 790 257.5 c 128,-1,35
 838 266 838 266 885 281 c 1,36,37
 848 323 848 323 811 363 c 128,-1,38
 774 403 774 403 736 444 c 1,39,-1
 956 611 l 1,40,-1
 1107 457 l 1,41,42
 1173 550 1173 550 1211 653.5 c 128,-1,43
 1249 757 1249 757 1249 872 c 0,44,45
 1249 950 1249 950 1226 1005.5 c 128,-1,46
 1203 1061 1203 1061 1160.5 1096 c 128,-1,47
 1118 1131 1118 1131 1058 1147.5 c 128,-1,48
 998 1164 998 1164 925 1164 c 0,49,50
 816 1164 816 1164 728 1126 c 128,-1,51
 640 1088 640 1088 574 1022 c 128,-1,52
 508 956 508 956 463 868 c 128,-1,53
 418 780 418 780 394 681 c 0,54,55
 386 646 386 646 380.5 610.5 c 128,-1,56
 375 575 375 575 375 539 c 0,57,58
 375 463 375 463 397.5 408 c 128,-1,59
 420 353 420 353 462 318 c 128,-1,60
 504 283 504 283 562.5 266 c 128,-1,61
 621 249 621 249 693 249 c 0,33,34
EndSplineSet
Position2: "'cpsp' Capital Spacing lookup 0 per glyph data 0" dx=5 dy=0 dh=10 dv=0
EndChar

StartChar: R
Encoding: 82 82 53
Width: 1281
GlyphClass: 1
Flags: W
LayerCount: 2
Fore
SplineSet
1157 -2 m 1,0,-1
 851 -2 l 1,1,2
 797 148 797 148 746 296.5 c 128,-1,3
 695 445 695 445 641 595 c 1,4,-1
 478 595 l 1,5,-1
 338 -2 l 1,6,-1
 56 -2 l 1,7,-1
 383 1413 l 1,8,-1
 860 1413 l 2,9,10
 936 1413 936 1413 1009.5 1392 c 128,-1,11
 1083 1371 1083 1371 1141 1329 c 128,-1,12
 1199 1287 1199 1287 1234.5 1223.5 c 128,-1,13
 1270 1160 1270 1160 1270 1076 c 0,14,15
 1270 993 1270 993 1242 920.5 c 128,-1,16
 1214 848 1214 848 1165.5 789.5 c 128,-1,17
 1117 731 1117 731 1051.5 687.5 c 128,-1,18
 986 644 986 644 911 617 c 1,19,20
 974 462 974 462 1035 308 c 128,-1,21
 1096 154 1096 154 1157 -2 c 1,0,-1
734 821 m 2,22,23
 762 821 762 821 792 829 c 128,-1,24
 822 837 822 837 848 848 c 0,25,26
 912 875 912 875 950 923.5 c 128,-1,27
 988 972 988 972 988 1044 c 0,28,29
 988 1080 988 1080 970.5 1102.5 c 128,-1,30
 953 1125 953 1125 926 1137.5 c 128,-1,31
 899 1150 899 1150 867.5 1154.5 c 128,-1,32
 836 1159 836 1159 807 1159 c 2,33,-1
 609 1159 l 1,34,-1
 532 821 l 1,35,-1
 734 821 l 2,22,23
EndSplineSet
Position2: "'cpsp' Capital Spacing lookup 0 per glyph data 0" dx=5 dy=0 dh=10 dv=0
EndChar

StartChar: S
Encoding: 83 83 54
Width: 1160
GlyphClass: 1
Flags: W
LayerCount: 2
Fore
SplineSet
534 -15 m 256,0,1
 433 -15 433 -15 340.5 13 c 128,-1,2
 248 41 248 41 178 96.5 c 128,-1,3
 108 152 108 152 66.5 235 c 128,-1,4
 25 318 25 318 25 427 c 1,5,-1
 323 476 l 1,6,7
 323 420 323 420 339.5 376.5 c 128,-1,8
 356 333 356 333 387 303 c 128,-1,9
 418 273 418 273 462.5 257.5 c 128,-1,10
 507 242 507 242 562 242 c 0,11,12
 606 242 606 242 647.5 252.5 c 128,-1,13
 689 263 689 263 720.5 285.5 c 128,-1,14
 752 308 752 308 771 343 c 128,-1,15
 790 378 790 378 790 428 c 0,16,17
 790 473 790 473 772.5 505.5 c 128,-1,18
 755 538 755 538 727 562.5 c 128,-1,19
 699 587 699 587 664.5 605.5 c 128,-1,20
 630 624 630 624 595 642 c 0,21,22
 532 674 532 674 471 709.5 c 128,-1,23
 410 745 410 745 361.5 791 c 128,-1,24
 313 837 313 837 283.5 896.5 c 128,-1,25
 254 956 254 956 254 1037 c 0,26,27
 254 1136 254 1136 295 1210.5 c 128,-1,28
 336 1285 336 1285 403 1334.5 c 128,-1,29
 470 1384 470 1384 556 1408.5 c 128,-1,30
 642 1433 642 1433 731 1433 c 0,31,32
 802 1433 802 1433 872.5 1417 c 128,-1,33
 943 1401 943 1401 1004 1368 c 128,-1,34
 1065 1335 1065 1335 1112.5 1283.5 c 128,-1,35
 1160 1232 1160 1232 1186 1161 c 1,36,-1
 934 1040 l 1,37,38
 923 1074 923 1074 903 1102.5 c 128,-1,39
 883 1131 883 1131 856.5 1151.5 c 128,-1,40
 830 1172 830 1172 797.5 1183.5 c 128,-1,41
 765 1195 765 1195 729 1195 c 0,42,43
 697 1195 697 1195 665 1186 c 128,-1,44
 633 1177 633 1177 608 1158.5 c 128,-1,45
 583 1140 583 1140 567.5 1113 c 128,-1,46
 552 1086 552 1086 552 1050 c 256,47,48
 552 1014 552 1014 569.5 986.5 c 128,-1,49
 587 959 587 959 613 938 c 128,-1,50
 639 917 639 917 670 901 c 128,-1,51
 701 885 701 885 728 871 c 0,52,53
 797 836 797 836 861.5 796 c 128,-1,54
 926 756 926 756 976.5 705 c 128,-1,55
 1027 654 1027 654 1057.5 589 c 128,-1,56
 1088 524 1088 524 1088 437 c 0,57,58
 1088 325 1088 325 1039.5 240 c 128,-1,59
 991 155 991 155 912 98.5 c 128,-1,60
 833 42 833 42 734 13.5 c 128,-1,61
 635 -15 635 -15 534 -15 c 256,0,1
EndSplineSet
Position2: "'cpsp' Capital Spacing lookup 0 per glyph data 0" dx=5 dy=0 dh=10 dv=0
EndChar

StartChar: T
Encoding: 84 84 55
Width: 1159
GlyphClass: 1
Flags: W
LayerCount: 2
Fore
SplineSet
606 0 m 1,0,-1
 323 0 l 1,1,-1
 589 1156 l 1,2,-1
 156 1156 l 1,3,-1
 216 1413 l 1,4,-1
 1363 1413 l 1,5,-1
 1303 1156 l 1,6,-1
 871 1156 l 1,7,-1
 606 0 l 1,0,-1
EndSplineSet
Position2: "'cpsp' Capital Spacing lookup 0 per glyph data 0" dx=5 dy=0 dh=10 dv=0
EndChar

StartChar: U
Encoding: 85 85 56
Width: 1387
GlyphClass: 1
Flags: W
LayerCount: 2
Fore
SplineSet
589 -20 m 0,0,1
 489 -20 489 -20 405 0.5 c 128,-1,2
 321 21 321 21 260 67 c 128,-1,3
 199 113 199 113 164.5 188.5 c 128,-1,4
 130 264 130 264 130 373 c 0,5,6
 130 424 130 424 137 473.5 c 128,-1,7
 144 523 144 523 155 572 c 2,8,-1
 348 1413 l 1,9,-1
 632 1413 l 1,10,-1
 439 573 l 2,11,12
 430 534 430 534 423.5 494.5 c 128,-1,13
 417 455 417 455 417 415 c 0,14,15
 417 364 417 364 433.5 333 c 128,-1,16
 450 302 450 302 478 284.5 c 128,-1,17
 506 267 506 267 544 261 c 128,-1,18
 582 255 582 255 625 255 c 0,19,20
 714 255 714 255 775 278.5 c 128,-1,21
 836 302 836 302 877 346 c 128,-1,22
 918 390 918 390 943.5 453.5 c 128,-1,23
 969 517 969 517 987 596 c 2,24,-1
 1177 1413 l 1,25,-1
 1460 1413 l 1,26,-1
 1263 560 l 2,27,28
 1231 423 1231 423 1177 315 c 128,-1,29
 1123 207 1123 207 1041 132.5 c 128,-1,30
 959 58 959 58 847.5 19 c 128,-1,31
 736 -20 736 -20 589 -20 c 0,0,1
EndSplineSet
Position2: "'cpsp' Capital Spacing lookup 0 per glyph data 0" dx=5 dy=0 dh=10 dv=0
EndChar

StartChar: V
Encoding: 86 86 57
Width: 1346
GlyphClass: 1
Flags: W
LayerCount: 2
Fore
SplineSet
665 0 m 1,0,-1
 458 0 l 1,1,-1
 207 1413 l 1,2,-1
 520 1413 l 1,3,-1
 665 475 l 1,4,-1
 1246 1413 l 1,5,-1
 1564 1413 l 1,6,-1
 665 0 l 1,0,-1
EndSplineSet
Position2: "'cpsp' Capital Spacing lookup 0 per glyph data 0" dx=5 dy=0 dh=10 dv=0
EndChar

StartChar: W
Encoding: 87 87 58
Width: 2012
GlyphClass: 1
Flags: W
LayerCount: 2
Fore
SplineSet
1407 0 m 1,0,-1
 1140 0 l 1,1,-1
 1064 966 l 1,2,-1
 546 0 l 1,3,-1
 279 0 l 1,4,-1
 173 1413 l 1,5,-1
 468 1413 l 1,6,-1
 532 429 l 1,7,-1
 1060 1413 l 1,8,-1
 1278 1413 l 1,9,-1
 1352 429 l 1,10,-1
 1870 1413 l 1,11,-1
 2165 1413 l 1,12,-1
 1407 0 l 1,0,-1
EndSplineSet
Position2: "'cpsp' Capital Spacing lookup 0 per glyph data 1" dx=5 dy=1 dh=10 dv=2
EndChar

StartChar: X
Encoding: 88 88 59
Width: 1366
GlyphClass: 1
Flags: W
LayerCount: 2
Fore
SplineSet
1239 0 m 1,0,-1
 905 0 l 1,1,-1
 693 525 l 1,2,-1
 234 0 l 1,3,-1
 -111 0 l 1,4,-1
 530 707 l 1,5,-1
 224 1413 l 1,6,-1
 558 1413 l 1,7,-1
 766 881 l 1,8,-1
 1226 1413 l 1,9,-1
 1569 1413 l 1,10,-1
 930 707 l 1,11,-1
 1239 0 l 1,0,-1
EndSplineSet
Position2: "'cpsp' Capital Spacing lookup 0 per glyph data 0" dx=5 dy=0 dh=10 dv=0
EndChar

StartChar: Y
Encoding: 89 89 60
Width: 1412
GlyphClass: 1
Flags: W
LayerCount: 2
Fore
SplineSet
735 0 m 1,0,-1
 450 0 l 1,1,-1
 579 550 l 1,2,-1
 190 1413 l 1,3,-1
 521 1413 l 1,4,-1
 771 799 l 1,5,-1
 1308 1413 l 1,6,-1
 1648 1413 l 1,7,-1
 864 550 l 1,8,-1
 735 0 l 1,0,-1
EndSplineSet
Position2: "'cpsp' Capital Spacing lookup 0 per glyph data 0" dx=5 dy=0 dh=10 dv=0
EndChar

StartChar: Z
Encoding: 90 90 61
Width: 1268
GlyphClass: 1
Flags: W
LayerCount: 2
Fore
SplineSet
1088 0 m 1,0,-1
 -65 0 l 1,1,-1
 -25 192 l 1,2,-1
 953 1150 l 1,3,-1
 245 1150 l 1,4,-1
 305 1413 l 1,5,-1
 1415 1413 l 1,6,-1
 1369 1212 l 1,7,-1
 397 255 l 1,8,-1
 1149 255 l 1,9,-1
 1088 0 l 1,0,-1
EndSplineSet
Position2: "'cpsp' Capital Spacing lookup 0 per glyph data 0" dx=5 dy=0 dh=10 dv=0
EndChar

StartChar: bracketleft
Encoding: 91 91 62
Width: 641
GlyphClass: 1
Flags: W
LayerCount: 2
Fore
SplineSet
462 -186 m 1,0,-1
 8 -186 l 1,1,-1
 419 1594 l 1,2,-1
 873 1594 l 1,3,-1
 831 1410 l 1,4,-1
 596 1410 l 1,5,-1
 270 0 l 1,6,-1
 506 0 l 1,7,-1
 462 -186 l 1,0,-1
EndSplineSet
EndChar

StartChar: backslash
Encoding: 92 92 63
Width: 933
GlyphClass: 1
Flags: W
LayerCount: 2
Fore
SplineSet
769 -430 m 1,0,-1
 522 -430 l 1,1,-1
 185 1516 l 1,2,-1
 428 1516 l 1,3,-1
 769 -430 l 1,0,-1
EndSplineSet
EndChar

StartChar: bracketright
Encoding: 93 93 64
Width: 641
GlyphClass: 1
Flags: W
LayerCount: 2
Fore
SplineSet
315 -186 m 1,0,-1
 -139 -186 l 1,1,-1
 -94 0 l 1,2,-1
 142 0 l 1,3,-1
 467 1410 l 1,4,-1
 232 1410 l 1,5,-1
 274 1594 l 1,6,-1
 728 1594 l 1,7,-1
 315 -186 l 1,0,-1
EndSplineSet
EndChar

StartChar: asciicircum
Encoding: 94 94 65
Width: 980
GlyphClass: 1
Flags: W
LayerCount: 2
Fore
SplineSet
1001 794 m 1,0,-1
 741 794 l 1,1,-1
 630 1085 l 1,2,-1
 382 794 l 1,3,-1
 108 794 l 1,4,-1
 719 1518 l 1,5,-1
 1001 794 l 1,0,-1
EndSplineSet
EndChar

StartChar: underscore
Encoding: 95 95 66
Width: 1248
GlyphClass: 1
Flags: W
LayerCount: 2
Fore
SplineSet
898 -206 m 1,0,-1
 26 -206 l 1,1,-1
 74 0 l 1,2,-1
 946 0 l 1,3,-1
 898 -206 l 1,0,-1
EndSplineSet
EndChar

StartChar: grave
Encoding: 96 96 67
Width: 530
GlyphClass: 1
Flags: W
LayerCount: 2
Fore
SplineSet
645 1098 m 1,0,-1
 463 1098 l 1,1,-1
 213 1413 l 1,2,-1
 490 1413 l 1,3,-1
 645 1098 l 1,0,-1
EndSplineSet
EndChar

StartChar: a
Encoding: 97 97 68
Width: 1216
GlyphClass: 1
Flags: W
LayerCount: 2
Fore
SplineSet
398 -20 m 0,0,1
 309 -20 309 -20 242 10 c 128,-1,2
 175 40 175 40 130 93 c 128,-1,3
 85 146 85 146 61.5 219 c 128,-1,4
 38 292 38 292 38 377 c 0,5,6
 38 457 38 457 56.5 538.5 c 128,-1,7
 75 620 75 620 110 696 c 128,-1,8
 145 772 145 772 195.5 838 c 128,-1,9
 246 904 246 904 309.5 953.5 c 128,-1,10
 373 1003 373 1003 449 1031.5 c 128,-1,11
 525 1060 525 1060 611 1060 c 0,12,13
 648 1060 648 1060 686 1053 c 128,-1,14
 724 1046 724 1046 759 1032 c 128,-1,15
 794 1018 794 1018 824 995.5 c 128,-1,16
 854 973 854 973 876 941 c 1,17,-1
 904 1039 l 1,18,-1
 1193 1039 l 1,19,-1
 954 0 l 1,20,-1
 692 0 l 1,21,-1
 701 91 l 1,22,23
 638 31 638 31 561.5 5.5 c 128,-1,24
 485 -20 485 -20 398 -20 c 0,0,1
492 233 m 0,25,26
 561 233 561 233 615 257.5 c 128,-1,27
 669 282 669 282 708.5 324.5 c 128,-1,28
 748 367 748 367 774 424 c 128,-1,29
 800 481 800 481 814 546 c 0,30,31
 819 570 819 570 822 592.5 c 128,-1,32
 825 615 825 615 825 640 c 0,33,34
 825 729 825 729 780 771 c 128,-1,35
 735 813 735 813 650 813 c 0,36,37
 589 813 589 813 537.5 790 c 128,-1,38
 486 767 486 767 442 724 c 0,39,40
 390 674 390 674 365.5 618.5 c 128,-1,41
 341 563 341 563 327 492 c 0,42,43
 322 471 322 471 318.5 448 c 128,-1,44
 315 425 315 425 315 403 c 0,45,46
 315 315 315 315 363 274 c 128,-1,47
 411 233 411 233 492 233 c 0,25,26
EndSplineSet
Substitution2: "Single Substitution lookup 3 subtable" ordfeminine
Substitution2: "Single Substitution lookup 2 subtable" ordfeminine
EndChar

StartChar: b
Encoding: 98 98 69
Width: 1223
GlyphClass: 1
Flags: W
LayerCount: 2
Fore
SplineSet
615 -20 m 0,0,1
 578 -20 578 -20 539.5 -13.5 c 128,-1,2
 501 -7 501 -7 466 7 c 128,-1,3
 431 21 431 21 400.5 43.5 c 128,-1,4
 370 66 370 66 348 98 c 1,5,-1
 322 0 l 1,6,-1
 26 0 l 1,7,8
 110 355 110 355 195 705 c 128,-1,9
 280 1055 280 1055 364 1410 c 1,10,-1
 659 1410 l 1,11,12
 629 1296 629 1296 598 1184.5 c 128,-1,13
 567 1073 567 1073 537 959 c 1,14,15
 598 1013 598 1013 672 1036 c 128,-1,16
 746 1059 746 1059 828 1059 c 0,17,18
 918 1059 918 1059 985 1029.5 c 128,-1,19
 1052 1000 1052 1000 1096.5 947 c 128,-1,20
 1141 894 1141 894 1163 820.5 c 128,-1,21
 1185 747 1185 747 1185 661 c 0,22,23
 1185 561 1185 561 1157 459.5 c 128,-1,24
 1129 358 1129 358 1076 268.5 c 128,-1,25
 1023 179 1023 179 946.5 109 c 128,-1,26
 870 39 870 39 774 5 c 0,27,28
 734 -10 734 -10 696 -15 c 128,-1,29
 658 -20 658 -20 615 -20 c 0,0,1
578 234 m 0,30,31
 648 234 648 234 701 258.5 c 128,-1,32
 754 283 754 283 793.5 325.5 c 128,-1,33
 833 368 833 368 859 425 c 128,-1,34
 885 482 885 482 900 546 c 0,35,36
 905 570 905 570 908.5 592.5 c 128,-1,37
 912 615 912 615 912 639 c 0,38,39
 912 727 912 727 865 768.5 c 128,-1,40
 818 810 818 810 736 810 c 0,41,42
 657 810 657 810 594.5 775 c 128,-1,43
 532 740 532 740 488.5 683 c 128,-1,44
 445 626 445 626 422 554 c 128,-1,45
 399 482 399 482 399 407 c 0,46,47
 399 317 399 317 447 275.5 c 128,-1,48
 495 234 495 234 578 234 c 0,30,31
EndSplineSet
EndChar

StartChar: c
Encoding: 99 99 70
Width: 1040
GlyphClass: 1
Flags: W
LayerCount: 2
Fore
SplineSet
451 -20 m 0,0,1
 355 -20 355 -20 278 8 c 128,-1,2
 201 36 201 36 147 89 c 128,-1,3
 93 142 93 142 63.5 219 c 128,-1,4
 34 296 34 296 34 393 c 0,5,6
 34 476 34 476 55.5 557.5 c 128,-1,7
 77 639 77 639 116 713 c 128,-1,8
 155 787 155 787 210 850 c 128,-1,9
 265 913 265 913 334 958 c 0,10,11
 411 1010 411 1010 493 1033 c 128,-1,12
 575 1056 575 1056 667 1056 c 0,13,14
 744 1056 744 1056 809.5 1034.5 c 128,-1,15
 875 1013 875 1013 926 972.5 c 128,-1,16
 977 932 977 932 1012 874 c 128,-1,17
 1047 816 1047 816 1062 741 c 1,18,-1
 777 657 l 1,19,-1
 777 662 l 2,20,21
 777 693 777 693 766 718 c 128,-1,22
 755 743 755 743 734.5 760.5 c 128,-1,23
 714 778 714 778 687 786 c 128,-1,24
 660 794 660 794 629 794 c 0,25,26
 554 794 554 794 494 760 c 128,-1,27
 434 726 434 726 393 670.5 c 128,-1,28
 352 615 352 615 329.5 545.5 c 128,-1,29
 307 476 307 476 307 405 c 0,30,31
 307 321 307 321 353.5 281 c 128,-1,32
 400 241 400 241 478 241 c 0,33,34
 518 241 518 241 553 253.5 c 128,-1,35
 588 266 588 266 618 287.5 c 128,-1,36
 648 309 648 309 673 338 c 128,-1,37
 698 367 698 367 717 402 c 1,38,-1
 954 278 l 1,39,40
 914 208 914 208 861 153 c 128,-1,41
 808 98 808 98 744.5 59.5 c 128,-1,42
 681 21 681 21 607 0.5 c 128,-1,43
 533 -20 533 -20 451 -20 c 0,0,1
EndSplineSet
EndChar

StartChar: d
Encoding: 100 100 71
Width: 1220
GlyphClass: 1
Flags: W
LayerCount: 2
Fore
SplineSet
398 -20 m 0,0,1
 309 -20 309 -20 241.5 9.5 c 128,-1,2
 174 39 174 39 128.5 92 c 128,-1,3
 83 145 83 145 60.5 217.5 c 128,-1,4
 38 290 38 290 38 377 c 0,5,6
 38 440 38 440 51 507 c 128,-1,7
 64 574 64 574 88.5 640 c 128,-1,8
 113 706 113 706 148.5 767 c 128,-1,9
 184 828 184 828 229.5 880 c 128,-1,10
 275 932 275 932 329 971.5 c 128,-1,11
 383 1011 383 1011 445 1033 c 0,12,13
 486 1048 486 1048 527 1054 c 128,-1,14
 568 1060 568 1060 611 1060 c 0,15,16
 648 1060 648 1060 686 1053 c 128,-1,17
 724 1046 724 1046 759.5 1032 c 128,-1,18
 795 1018 795 1018 824.5 995.5 c 128,-1,19
 854 973 854 973 876 941 c 1,20,-1
 1004 1413 l 1,21,-1
 1293 1413 l 1,22,-1
 954 0 l 1,23,-1
 692 0 l 1,24,-1
 701 91 l 1,25,26
 640 31 640 31 562 5.5 c 128,-1,27
 484 -20 484 -20 398 -20 c 0,0,1
492 233 m 0,28,29
 561 233 561 233 615 257.5 c 128,-1,30
 669 282 669 282 708.5 324.5 c 128,-1,31
 748 367 748 367 774 424 c 128,-1,32
 800 481 800 481 814 546 c 0,33,34
 819 570 819 570 822 592.5 c 128,-1,35
 825 615 825 615 825 640 c 0,36,37
 825 729 825 729 780 771 c 128,-1,38
 735 813 735 813 650 813 c 0,39,40
 589 813 589 813 537.5 790 c 128,-1,41
 486 767 486 767 442 724 c 0,42,43
 390 674 390 674 365.5 618.5 c 128,-1,44
 341 563 341 563 327 492 c 0,45,46
 322 471 322 471 318.5 448 c 128,-1,47
 315 425 315 425 315 403 c 0,48,49
 315 315 315 315 363 274 c 128,-1,50
 411 233 411 233 492 233 c 0,28,29
EndSplineSet
EndChar

StartChar: e
Encoding: 101 101 72
Width: 1095
GlyphClass: 1
Flags: W
LayerCount: 2
Fore
SplineSet
466 -12 m 0,0,1
 372 -12 372 -12 292.5 14.5 c 128,-1,2
 213 41 213 41 155.5 92.5 c 128,-1,3
 98 144 98 144 65.5 220.5 c 128,-1,4
 33 297 33 297 33 396 c 0,5,6
 33 476 33 476 54 556 c 128,-1,7
 75 636 75 636 113 709.5 c 128,-1,8
 151 783 151 783 204.5 845.5 c 128,-1,9
 258 908 258 908 323 952 c 0,10,11
 399 1005 399 1005 481.5 1028.5 c 128,-1,12
 564 1052 564 1052 657 1052 c 0,13,14
 749 1052 749 1052 823.5 1029.5 c 128,-1,15
 898 1007 898 1007 951.5 961 c 128,-1,16
 1005 915 1005 915 1034 844 c 128,-1,17
 1063 773 1063 773 1063 675 c 0,18,19
 1063 609 1063 609 1051.5 544 c 128,-1,20
 1040 479 1040 479 1016 418 c 1,21,-1
 309 418 l 1,22,-1
 309 413 l 2,23,24
 309 366 309 366 323.5 334.5 c 128,-1,25
 338 303 338 303 363 283 c 128,-1,26
 388 263 388 263 422 254 c 128,-1,27
 456 245 456 245 494 245 c 0,28,29
 572 245 572 245 643 270.5 c 128,-1,30
 714 296 714 296 773 353 c 1,31,32
 813 304 813 304 852.5 255.5 c 128,-1,33
 892 207 892 207 931 157 c 1,34,35
 832 70 832 70 715 29 c 128,-1,36
 598 -12 598 -12 466 -12 c 0,0,1
803 611 m 1,37,38
 804 619 804 619 804.5 625.5 c 128,-1,39
 805 632 805 632 805 640 c 0,40,41
 805 739 805 739 765.5 781.5 c 128,-1,42
 726 824 726 824 634 824 c 0,43,44
 584 824 584 824 542.5 808.5 c 128,-1,45
 501 793 501 793 466.5 764.5 c 128,-1,46
 432 736 432 736 405.5 697 c 128,-1,47
 379 658 379 658 359 611 c 1,48,-1
 803 611 l 1,37,38
EndSplineSet
EndChar

StartChar: f
Encoding: 102 102 73
Width: 721
GlyphClass: 1
Flags: W
LayerCount: 2
Fore
SplineSet
383 0 m 1,0,-1
 86 0 l 1,1,2
 133 203 133 203 178 404.5 c 128,-1,3
 223 606 223 606 269 809 c 1,4,-1
 80 809 l 1,5,6
 95 866 95 866 108 923 c 128,-1,7
 121 980 121 980 135 1037 c 1,8,-1
 328 1037 l 1,9,10
 349 1124 349 1124 377 1197 c 128,-1,11
 405 1270 405 1270 453.5 1323 c 128,-1,12
 502 1376 502 1376 578 1405 c 128,-1,13
 654 1434 654 1434 770 1434 c 0,14,15
 820 1434 820 1434 867 1420.5 c 128,-1,16
 914 1407 914 1407 958 1387 c 1,17,-1
 811 1180 l 1,18,19
 782 1198 782 1198 744 1198 c 0,20,21
 709 1198 709 1198 688 1180.5 c 128,-1,22
 667 1163 667 1163 654.5 1138 c 128,-1,23
 642 1113 642 1113 634.5 1085.5 c 128,-1,24
 627 1058 627 1058 620 1039 c 1,25,-1
 847 1039 l 1,26,-1
 791 809 l 1,27,-1
 565 809 l 1,28,29
 518 606 518 606 474 404.5 c 128,-1,30
 430 203 430 203 383 0 c 1,0,-1
EndSplineSet
EndChar

StartChar: g
Encoding: 103 103 74
Width: 1214
GlyphClass: 1
Flags: W
LayerCount: 2
Fore
SplineSet
362 -440 m 0,0,1
 291 -440 291 -440 228 -427.5 c 128,-1,2
 165 -415 165 -415 110.5 -388 c 128,-1,3
 56 -361 56 -361 10.5 -317.5 c 128,-1,4
 -35 -274 -35 -274 -69 -211 c 1,5,6
 -10 -176 -10 -176 49 -141.5 c 128,-1,7
 108 -107 108 -107 168 -73 c 1,8,9
 178 -109 178 -109 202 -133.5 c 128,-1,10
 226 -158 226 -158 258 -172.5 c 128,-1,11
 290 -187 290 -187 325.5 -193.5 c 128,-1,12
 361 -200 361 -200 393 -200 c 0,13,14
 451 -200 451 -200 495 -186 c 128,-1,15
 539 -172 539 -172 572 -145 c 128,-1,16
 605 -118 605 -118 628 -77 c 128,-1,17
 651 -36 651 -36 666 19 c 0,18,19
 673 43 673 43 678.5 68.5 c 128,-1,20
 684 94 684 94 691 117 c 1,21,22
 628 60 628 60 554.5 38 c 128,-1,23
 481 16 481 16 397 16 c 0,24,25
 311 16 311 16 245 45.5 c 128,-1,26
 179 75 179 75 133.5 127 c 128,-1,27
 88 179 88 179 65 249.5 c 128,-1,28
 42 320 42 320 42 403 c 0,29,30
 42 465 42 465 54.5 529.5 c 128,-1,31
 67 594 67 594 91 657 c 128,-1,32
 115 720 115 720 150.5 778.5 c 128,-1,33
 186 837 186 837 230.5 886.5 c 128,-1,34
 275 936 275 936 328 974 c 128,-1,35
 381 1012 381 1012 442 1033 c 0,36,37
 482 1047 482 1047 522.5 1053.5 c 128,-1,38
 563 1060 563 1060 606 1060 c 0,39,40
 643 1060 643 1060 682 1054 c 128,-1,41
 721 1048 721 1048 756.5 1034 c 128,-1,42
 792 1020 792 1020 822.5 997.5 c 128,-1,43
 853 975 853 975 873 942 c 1,44,45
 881 966 881 966 887.5 990.5 c 128,-1,46
 894 1015 894 1015 901 1039 c 1,47,-1
 1188 1039 l 1,48,-1
 947 1 l 2,49,50
 921 -109 921 -109 868.5 -192 c 128,-1,51
 816 -275 816 -275 740 -329.5 c 128,-1,52
 664 -384 664 -384 568.5 -412 c 128,-1,53
 473 -440 473 -440 362 -440 c 0,0,1
498 270 m 0,54,55
 571 270 571 270 631 302 c 128,-1,56
 691 334 691 334 734 386 c 128,-1,57
 777 438 777 438 801 504.5 c 128,-1,58
 825 571 825 571 825 641 c 0,59,60
 825 729 825 729 777.5 770 c 128,-1,61
 730 811 730 811 647 811 c 0,62,63
 575 811 575 811 514.5 778.5 c 128,-1,64
 454 746 454 746 410 692.5 c 128,-1,65
 366 639 366 639 342 571.5 c 128,-1,66
 318 504 318 504 318 435 c 0,67,68
 318 346 318 346 367 308 c 128,-1,69
 416 270 416 270 498 270 c 0,54,55
EndSplineSet
EndChar

StartChar: h
Encoding: 104 104 75
Width: 1209
GlyphClass: 1
Flags: W
LayerCount: 2
Fore
SplineSet
991 0 m 1,0,-1
 707 0 l 1,1,2
 732 115 732 115 757 227.5 c 128,-1,3
 782 340 782 340 809 454 c 0,4,5
 824 515 824 515 841 578 c 128,-1,6
 858 641 858 641 858 687 c 256,7,8
 858 733 858 733 850 751.5 c 128,-1,9
 842 770 842 770 828 781.5 c 128,-1,10
 814 793 814 793 793.5 797 c 128,-1,11
 773 801 773 801 747 801 c 0,12,13
 711 801 711 801 672 788.5 c 128,-1,14
 633 776 633 776 597.5 754.5 c 128,-1,15
 562 733 562 733 531 705.5 c 128,-1,16
 500 678 500 678 479 648 c 0,17,18
 462 625 462 625 454.5 608.5 c 128,-1,19
 447 592 447 592 440 564 c 0,20,21
 428 517 428 517 418 470.5 c 128,-1,22
 408 424 408 424 397 377 c 2,23,-1
 314 0 l 1,24,-1
 24 0 l 1,25,26
 108 355 108 355 193 706.5 c 128,-1,27
 278 1058 278 1058 362 1413 c 1,28,-1
 652 1413 l 1,29,-1
 525 946 l 1,30,31
 589 1001 589 1001 665 1028.5 c 128,-1,32
 741 1056 741 1056 825 1056 c 0,33,34
 976 1056 976 1056 1057.5 973 c 128,-1,35
 1139 890 1139 890 1139 736 c 0,36,37
 1139 703 1139 703 1135 671 c 128,-1,38
 1131 639 1131 639 1124 607 c 2,39,-1
 991 0 l 1,0,-1
EndSplineSet
EndChar

StartChar: i
Encoding: 105 105 76
Width: 545
GlyphClass: 1
Flags: W
LayerCount: 2
Fore
SplineSet
270 0 m 1,0,-1
 21 0 l 1,1,-1
 250 1039 l 1,2,-1
 499 1039 l 1,3,-1
 270 0 l 1,0,-1
537 1178 m 1,4,-1
 288 1178 l 1,5,-1
 342 1413 l 1,6,-1
 591 1413 l 1,7,-1
 537 1178 l 1,4,-1
EndSplineSet
Substitution2: "'locl' Localized Forms in Latin lookup 5 subtable" i.loclTRK
Substitution2: "Single Substitution lookup 2 subtable" dotlessi
Substitution2: "'aalt' Access All Alternates lookup 0 subtable" i.loclTRK
EndChar

StartChar: j
Encoding: 106 106 77
Width: 593
GlyphClass: 1
Flags: W
LayerCount: 2
Fore
SplineSet
550 1149 m 1,0,-1
 283 1149 l 1,1,-1
 343 1411 l 1,2,-1
 610 1411 l 1,3,-1
 550 1149 l 1,0,-1
-115 -438 m 0,4,5
 -162 -438 -162 -438 -206 -427.5 c 128,-1,6
 -250 -417 -250 -417 -292 -400 c 1,7,-1
 -189 -185 l 1,8,9
 -141 -197 -141 -197 -90 -197 c 0,10,11
 -64 -197 -64 -197 -47 -186.5 c 128,-1,12
 -30 -176 -30 -176 -19 -159.5 c 128,-1,13
 -8 -143 -8 -143 -2 -122.5 c 128,-1,14
 4 -102 4 -102 8 -80 c 0,15,16
 29 15 29 15 51.5 109 c 128,-1,17
 74 203 74 203 96 298 c 2,18,-1
 267 1039 l 1,19,-1
 534 1039 l 1,20,-1
 265 -106 l 2,21,22
 248 -178 248 -178 216 -239 c 128,-1,23
 184 -300 184 -300 136.5 -344.5 c 128,-1,24
 89 -389 89 -389 26.5 -413.5 c 128,-1,25
 -36 -438 -36 -438 -115 -438 c 0,4,5
EndSplineSet
Substitution2: "Single Substitution lookup 2 subtable" uni0237
EndChar

StartChar: k
Encoding: 107 107 78
Width: 1186
GlyphClass: 1
Flags: W
LayerCount: 2
Fore
SplineSet
1081 0 m 1,0,-1
 751 0 l 1,1,-1
 558 461 l 1,2,-1
 381 306 l 1,3,-1
 308 0 l 1,4,-1
 24 0 l 1,5,-1
 353 1413 l 1,6,-1
 636 1413 l 1,7,-1
 453 643 l 1,8,-1
 914 1039 l 1,9,-1
 1291 1039 l 1,10,-1
 790 630 l 1,11,-1
 1081 0 l 1,0,-1
EndSplineSet
EndChar

StartChar: l
Encoding: 108 108 79
Width: 610
GlyphClass: 1
Flags: W
LayerCount: 2
Fore
SplineSet
266 -20 m 0,0,1
 223 -20 223 -20 185.5 -12.5 c 128,-1,2
 148 -5 148 -5 119 13.5 c 128,-1,3
 90 32 90 32 73.5 63 c 128,-1,4
 57 94 57 94 57 141 c 0,5,6
 57 168 57 168 63 195 c 128,-1,7
 69 222 69 222 75 248 c 2,8,-1
 355 1413 l 1,9,-1
 638 1413 l 1,10,-1
 365 278 l 2,11,12
 364 275 364 275 363.5 271.5 c 128,-1,13
 363 268 363 268 363 263 c 0,14,15
 363 250 363 250 370.5 243 c 128,-1,16
 378 236 378 236 388 232.5 c 128,-1,17
 398 229 398 229 410 228.5 c 128,-1,18
 422 228 422 228 432 228 c 0,19,20
 450 228 450 228 468 230 c 128,-1,21
 486 232 486 232 503 234 c 1,22,-1
 461 -2 l 1,23,24
 412 -8 412 -8 364 -14 c 128,-1,25
 316 -20 316 -20 266 -20 c 0,0,1
EndSplineSet
EndChar

StartChar: m
Encoding: 109 109 80
Width: 1811
GlyphClass: 1
Flags: W
LayerCount: 2
Fore
SplineSet
1589 0 m 1,0,-1
 1306 0 l 1,1,2
 1323 76 1323 76 1340 151 c 128,-1,3
 1357 226 1357 226 1375 302 c 0,4,5
 1389 360 1389 360 1401.5 417.5 c 128,-1,6
 1414 475 1414 475 1427 533 c 0,7,8
 1434 564 1434 564 1442.5 595 c 128,-1,9
 1451 626 1451 626 1453 657 c 0,10,11
 1454 668 1454 668 1454.5 678 c 128,-1,12
 1455 688 1455 688 1455 699 c 0,13,14
 1455 730 1455 730 1447.5 749 c 128,-1,15
 1440 768 1440 768 1425.5 780 c 128,-1,16
 1411 792 1411 792 1390 796 c 128,-1,17
 1369 800 1369 800 1342 800 c 0,18,19
 1293 800 1293 800 1249 779.5 c 128,-1,20
 1205 759 1205 759 1170.5 725.5 c 128,-1,21
 1136 692 1136 692 1112 648.5 c 128,-1,22
 1088 605 1088 605 1077 559 c 0,23,24
 1046 418 1046 418 1014.5 279.5 c 128,-1,25
 983 141 983 141 952 0 c 1,26,-1
 662 0 l 1,27,-1
 802 608 l 2,28,29
 807 631 807 631 810 654.5 c 128,-1,30
 813 678 813 678 813 702 c 0,31,32
 813 762 813 762 783 781 c 128,-1,33
 753 800 753 800 700 800 c 0,34,35
 651 800 651 800 607.5 779.5 c 128,-1,36
 564 759 564 759 529.5 725.5 c 128,-1,37
 495 692 495 692 470.5 648.5 c 128,-1,38
 446 605 446 605 436 559 c 0,39,40
 403 418 403 418 372 279.5 c 128,-1,41
 341 141 341 141 310 0 c 1,42,-1
 24 0 l 1,43,44
 54 135 54 135 84 268.5 c 128,-1,45
 114 402 114 402 148 537 c 0,46,47
 178 663 178 663 205 788 c 128,-1,48
 232 913 232 913 262 1039 c 1,49,-1
 549 1039 l 1,50,-1
 527 964 l 1,51,52
 586 1013 586 1013 648.5 1035.5 c 128,-1,53
 711 1058 711 1058 789 1058 c 0,54,55
 876 1058 876 1058 941.5 1024.5 c 128,-1,56
 1007 991 1007 991 1052 919 c 1,57,58
 1129 987 1129 987 1226 1021.5 c 128,-1,59
 1323 1056 1323 1056 1425 1056 c 0,60,61
 1500 1056 1500 1056 1558 1033.5 c 128,-1,62
 1616 1011 1616 1011 1656 969.5 c 128,-1,63
 1696 928 1696 928 1717 868 c 128,-1,64
 1738 808 1738 808 1738 733 c 0,65,66
 1738 663 1738 663 1721.5 594.5 c 128,-1,67
 1705 526 1705 526 1690 458 c 0,68,69
 1664 343 1664 343 1639 229 c 128,-1,70
 1614 115 1614 115 1589 0 c 1,0,-1
EndSplineSet
EndChar

StartChar: n
Encoding: 110 110 81
Width: 1212
GlyphClass: 1
Flags: W
LayerCount: 2
Fore
SplineSet
992 0 m 1,0,-1
 707 0 l 1,1,2
 732 108 732 108 755 216.5 c 128,-1,3
 778 325 778 325 805 434 c 0,4,5
 822 501 822 501 840 568 c 128,-1,6
 858 635 858 635 858 705 c 0,7,8
 858 734 858 734 850.5 752.5 c 128,-1,9
 843 771 843 771 829 782 c 128,-1,10
 815 793 815 793 794.5 797 c 128,-1,11
 774 801 774 801 748 801 c 0,12,13
 701 801 701 801 651 780.5 c 128,-1,14
 601 760 601 760 557.5 725.5 c 128,-1,15
 514 691 514 691 481.5 647 c 128,-1,16
 449 603 449 603 439 557 c 2,17,-1
 314 0 l 1,18,-1
 24 0 l 1,19,20
 51 118 51 118 77.5 234 c 128,-1,21
 104 350 104 350 129 468 c 0,22,23
 137 508 137 508 143.5 548 c 128,-1,24
 150 588 150 588 161 627 c 0,25,26
 165 640 165 640 170 652.5 c 128,-1,27
 175 665 175 665 178 678 c 0,28,29
 180 683 180 683 180.5 689 c 128,-1,30
 181 695 181 695 183 700 c 2,31,-1
 184 705 l 2,32,33
 184 723 184 723 262 1039 c 1,34,-1
 552 1039 l 1,35,36
 544 1016 544 1016 538 991.5 c 128,-1,37
 532 967 532 967 524 944 c 1,38,39
 588 1001 588 1001 665.5 1028.5 c 128,-1,40
 743 1056 743 1056 830 1056 c 0,41,42
 904 1056 904 1056 961 1034 c 128,-1,43
 1018 1012 1018 1012 1058 971 c 128,-1,44
 1098 930 1098 930 1119 871 c 128,-1,45
 1140 812 1140 812 1140 737 c 0,46,47
 1140 675 1140 675 1126 610 c 2,48,-1
 992 0 l 1,0,-1
EndSplineSet
EndChar

StartChar: o
Encoding: 111 111 82
Width: 1149
GlyphClass: 1
Flags: W
LayerCount: 2
Fore
SplineSet
457 -20 m 0,0,1
 366 -20 366 -20 288 8 c 128,-1,2
 210 36 210 36 152 88 c 128,-1,3
 94 140 94 140 61.5 216 c 128,-1,4
 29 292 29 292 29 388 c 0,5,6
 29 473 29 473 52.5 555.5 c 128,-1,7
 76 638 76 638 118 712 c 128,-1,8
 160 786 160 786 218 848.5 c 128,-1,9
 276 911 276 911 345 955 c 0,10,11
 427 1008 427 1008 511 1030 c 128,-1,12
 595 1052 595 1052 691 1052 c 0,13,14
 786 1052 786 1052 864.5 1022.5 c 128,-1,15
 943 993 943 993 999.5 938.5 c 128,-1,16
 1056 884 1056 884 1087 805.5 c 128,-1,17
 1118 727 1118 727 1118 628 c 0,18,19
 1118 543 1118 543 1094.5 461.5 c 128,-1,20
 1071 380 1071 380 1028.5 308 c 128,-1,21
 986 236 986 236 927 175 c 128,-1,22
 868 114 868 114 798 70 c 0,23,24
 715 19 715 19 634 -0.5 c 128,-1,25
 553 -20 553 -20 457 -20 c 0,0,1
492 214 m 0,26,27
 562 214 562 214 618 241 c 128,-1,28
 674 268 674 268 717 313.5 c 128,-1,29
 760 359 760 359 788.5 418 c 128,-1,30
 817 477 817 477 831 542 c 0,31,32
 842 589 842 589 843 633 c 0,33,34
 843 727 843 727 793 771.5 c 128,-1,35
 743 816 743 816 655 816 c 0,36,37
 586 816 586 816 529.5 788.5 c 128,-1,38
 473 761 473 761 430 716 c 128,-1,39
 387 671 387 671 358 611.5 c 128,-1,40
 329 552 329 552 316 488 c 0,41,42
 311 466 311 466 307.5 443.5 c 128,-1,43
 304 421 304 421 304 398 c 0,44,45
 304 304 304 304 354 259 c 128,-1,46
 404 214 404 214 492 214 c 0,26,27
EndSplineSet
Substitution2: "Single Substitution lookup 3 subtable" ordmasculine
Substitution2: "Single Substitution lookup 2 subtable" ordmasculine
EndChar

StartChar: p
Encoding: 112 112 83
Width: 1220
GlyphClass: 1
Flags: W
LayerCount: 2
Fore
SplineSet
209 -438 m 1,0,-1
 -81 -438 l 1,1,-1
 264 1039 l 1,2,-1
 546 1039 l 1,3,-1
 530 959 l 1,4,5
 591 1013 591 1013 665.5 1036.5 c 128,-1,6
 740 1060 740 1060 822 1060 c 0,7,8
 911 1060 911 1060 978.5 1030 c 128,-1,9
 1046 1000 1046 1000 1090.5 946.5 c 128,-1,10
 1135 893 1135 893 1157.5 819.5 c 128,-1,11
 1180 746 1180 746 1180 660 c 0,12,13
 1180 579 1180 579 1162 497.5 c 128,-1,14
 1144 416 1144 416 1109 340.5 c 128,-1,15
 1074 265 1074 265 1024 199.5 c 128,-1,16
 974 134 974 134 910.5 85 c 128,-1,17
 847 36 847 36 771 8 c 128,-1,18
 695 -20 695 -20 608 -20 c 0,19,20
 571 -20 571 -20 533 -13 c 128,-1,21
 495 -6 495 -6 459.5 8 c 128,-1,22
 424 22 424 22 394 44.5 c 128,-1,23
 364 67 364 67 343 98 c 1,24,25
 308 -36 308 -36 275 -169.5 c 128,-1,26
 242 -303 242 -303 209 -438 c 1,0,-1
571 234 m 0,27,28
 639 234 639 234 692.5 258.5 c 128,-1,29
 746 283 746 283 786 325.5 c 128,-1,30
 826 368 826 368 852 425 c 128,-1,31
 878 482 878 482 891 545 c 0,32,33
 896 569 896 569 899.5 592 c 128,-1,34
 903 615 903 615 903 640 c 0,35,36
 903 728 903 728 856.5 771 c 128,-1,37
 810 814 810 814 727 814 c 0,38,39
 648 814 648 814 586 777.5 c 128,-1,40
 524 741 524 741 481.5 683 c 128,-1,41
 439 625 439 625 416.5 551.5 c 128,-1,42
 394 478 394 478 394 404 c 0,43,44
 394 316 394 316 442 275 c 128,-1,45
 490 234 490 234 571 234 c 0,27,28
EndSplineSet
EndChar

StartChar: q
Encoding: 113 113 84
Width: 1213
GlyphClass: 1
Flags: W
LayerCount: 2
Fore
SplineSet
846 -438 m 1,0,-1
 559 -438 l 1,1,-1
 689 80 l 1,2,3
 629 25 629 25 553.5 2.5 c 128,-1,4
 478 -20 478 -20 397 -20 c 0,5,6
 308 -20 308 -20 241 9.5 c 128,-1,7
 174 39 174 39 129.5 92 c 128,-1,8
 85 145 85 145 62.5 217.5 c 128,-1,9
 40 290 40 290 40 377 c 0,10,11
 40 455 40 455 58 536.5 c 128,-1,12
 76 618 76 618 110.5 693.5 c 128,-1,13
 145 769 145 769 194.5 835.5 c 128,-1,14
 244 902 244 902 304 952 c 0,15,16
 374 1008 374 1008 448 1034 c 128,-1,17
 522 1060 522 1060 611 1060 c 0,18,19
 648 1060 648 1060 686.5 1053.5 c 128,-1,20
 725 1047 725 1047 760 1032.5 c 128,-1,21
 795 1018 795 1018 825.5 995.5 c 128,-1,22
 856 973 856 973 876 941 c 1,23,-1
 912 1039 l 1,24,-1
 1191 1039 l 1,25,-1
 846 -438 l 1,0,-1
493 234 m 0,26,27
 563 234 563 234 616 258.5 c 128,-1,28
 669 283 669 283 708 325.5 c 128,-1,29
 747 368 747 368 773 424.5 c 128,-1,30
 799 481 799 481 814 546 c 0,31,32
 819 570 819 570 822.5 592.5 c 128,-1,33
 826 615 826 615 826 639 c 0,34,35
 826 728 826 728 780.5 769.5 c 128,-1,36
 735 811 735 811 650 811 c 0,37,38
 572 811 572 811 510 775 c 128,-1,39
 448 739 448 739 405 681 c 128,-1,40
 362 623 362 623 339.5 550.5 c 128,-1,41
 317 478 317 478 317 404 c 0,42,43
 317 316 317 316 364.5 275 c 128,-1,44
 412 234 412 234 493 234 c 0,26,27
EndSplineSet
EndChar

StartChar: r
Encoding: 114 114 85
Width: 856
GlyphClass: 1
Flags: W
LayerCount: 2
Fore
SplineSet
296 0 m 1,0,-1
 24 0 l 1,1,-1
 262 1039 l 1,2,-1
 529 1039 l 1,3,-1
 501 891 l 1,4,5
 523 926 523 926 550 956 c 128,-1,6
 577 986 577 986 609.5 1008 c 128,-1,7
 642 1030 642 1030 680 1042 c 128,-1,8
 718 1054 718 1054 762 1054 c 0,9,10
 823 1054 823 1054 882.5 1035 c 128,-1,11
 942 1016 942 1016 987 975 c 1,12,-1
 810 766 l 1,13,14
 752 797 752 797 686 797 c 0,15,16
 626 797 626 797 579 768.5 c 128,-1,17
 532 740 532 740 498 695 c 128,-1,18
 464 650 464 650 441.5 595.5 c 128,-1,19
 419 541 419 541 408 488 c 2,20,-1
 296 0 l 1,0,-1
EndSplineSet
EndChar

StartChar: s
Encoding: 115 115 86
Width: 941
GlyphClass: 1
Flags: W
LayerCount: 2
Fore
SplineSet
389 -19 m 0,0,1
 319 -19 319 -19 249.5 1 c 128,-1,2
 180 21 180 21 122.5 60 c 128,-1,3
 65 99 65 99 26.5 157.5 c 128,-1,4
 -12 216 -12 216 -19 292 c 1,5,-1
 226 374 l 1,6,7
 231 339 231 339 244.5 308 c 128,-1,8
 258 277 258 277 279.5 254.5 c 128,-1,9
 301 232 301 232 330 219 c 128,-1,10
 359 206 359 206 394 206 c 0,11,12
 421 206 421 206 450 214 c 128,-1,13
 479 222 479 222 502 237.5 c 128,-1,14
 525 253 525 253 540.5 277.5 c 128,-1,15
 556 302 556 302 556 333 c 0,16,17
 556 359 556 359 537.5 376 c 128,-1,18
 519 393 519 393 489.5 405.5 c 128,-1,19
 460 418 460 418 423.5 429 c 128,-1,20
 387 440 387 440 349 453.5 c 128,-1,21
 311 467 311 467 275 486.5 c 128,-1,22
 239 506 239 506 210.5 535.5 c 128,-1,23
 182 565 182 565 164.5 607 c 128,-1,24
 147 649 147 649 147 708 c 0,25,26
 147 796 147 796 183.5 860.5 c 128,-1,27
 220 925 220 925 279 968 c 128,-1,28
 338 1011 338 1011 412.5 1032 c 128,-1,29
 487 1053 487 1053 562 1053 c 0,30,31
 625 1053 625 1053 685 1039 c 128,-1,32
 745 1025 745 1025 796.5 995.5 c 128,-1,33
 848 966 848 966 888 921.5 c 128,-1,34
 928 877 928 877 949 814 c 1,35,-1
 710 713 l 1,36,37
 694 774 694 774 652.5 808.5 c 128,-1,38
 611 843 611 843 551 843 c 0,39,40
 532 843 532 843 509 838.5 c 128,-1,41
 486 834 486 834 467 823.5 c 128,-1,42
 448 813 448 813 435.5 796 c 128,-1,43
 423 779 423 779 423 754 c 0,44,45
 423 721 423 721 453 702 c 128,-1,46
 483 683 483 683 529 666.5 c 128,-1,47
 575 650 575 650 628 630.5 c 128,-1,48
 681 611 681 611 726.5 578.5 c 128,-1,49
 772 546 772 546 802.5 494.5 c 128,-1,50
 833 443 833 443 833 363 c 0,51,52
 833 271 833 271 794 199.5 c 128,-1,53
 755 128 755 128 691.5 79 c 128,-1,54
 628 30 628 30 549 5.5 c 128,-1,55
 470 -19 470 -19 389 -19 c 0,0,1
EndSplineSet
Substitution2: "'hist' Historical Forms lookup 18 subtable" longs
Substitution2: "'aalt' Access All Alternates lookup 0 subtable" longs
EndChar

StartChar: t
Encoding: 116 116 87
Width: 805
GlyphClass: 1
Flags: W
LayerCount: 2
Fore
SplineSet
405 -21 m 0,0,1
 349 -21 349 -21 299 -5 c 128,-1,2
 249 11 249 11 212 42.5 c 128,-1,3
 175 74 175 74 153.5 120.5 c 128,-1,4
 132 167 132 167 132 229 c 0,5,6
 132 269 132 269 141 308 c 2,7,-1
 251 809 l 1,8,-1
 85 809 l 1,9,-1
 140 1039 l 1,10,-1
 309 1039 l 1,11,-1
 365 1271 l 1,12,13
 443 1313 443 1313 520 1354.5 c 128,-1,14
 597 1396 597 1396 675 1439 c 1,15,-1
 571 1039 l 1,16,-1
 843 1039 l 1,17,-1
 787 809 l 1,18,-1
 514 809 l 1,19,20
 494 720 494 720 473 632.5 c 128,-1,21
 452 545 452 545 432 456 c 0,22,23
 428 438 428 438 423 417 c 128,-1,24
 418 396 418 396 413 374 c 128,-1,25
 408 352 408 352 405 331 c 128,-1,26
 402 310 402 310 402 291 c 0,27,28
 402 268 402 268 410 255 c 128,-1,29
 418 242 418 242 430.5 235 c 128,-1,30
 443 228 443 228 459.5 226 c 128,-1,31
 476 224 476 224 494 224 c 0,32,33
 541 224 541 224 584.5 237.5 c 128,-1,34
 628 251 628 251 668 272 c 1,35,36
 654 205 654 205 642.5 140 c 128,-1,37
 631 75 631 75 618 8 c 1,38,39
 596 0 596 0 569 -5.5 c 128,-1,40
 542 -11 542 -11 513 -14.5 c 128,-1,41
 484 -18 484 -18 456 -19.5 c 128,-1,42
 428 -21 428 -21 405 -21 c 0,0,1
EndSplineSet
EndChar

StartChar: u
Encoding: 117 117 88
Width: 1213
GlyphClass: 1
Flags: W
LayerCount: 2
Fore
SplineSet
384 -23 m 0,0,1
 308 -23 308 -23 250.5 1.5 c 128,-1,2
 193 26 193 26 154.5 69.5 c 128,-1,3
 116 113 116 113 96 174.5 c 128,-1,4
 76 236 76 236 76 311 c 0,5,6
 76 378 76 378 86 443 c 128,-1,7
 96 508 96 508 111 572.5 c 128,-1,8
 126 637 126 637 143.5 701 c 128,-1,9
 161 765 161 765 175 829 c 2,10,-1
 222 1039 l 1,11,-1
 507 1039 l 1,12,-1
 367 429 l 2,13,14
 362 408 362 408 358.5 385.5 c 128,-1,15
 355 363 355 363 355 341 c 0,16,17
 355 309 355 309 366.5 289 c 128,-1,18
 378 269 378 269 396.5 258.5 c 128,-1,19
 415 248 415 248 439.5 244.5 c 128,-1,20
 464 241 464 241 490 241 c 0,21,22
 566 241 566 241 617 266.5 c 128,-1,23
 668 292 668 292 702 334.5 c 128,-1,24
 736 377 736 377 757 435 c 128,-1,25
 778 493 778 493 794 557 c 0,26,27
 824 678 824 678 850 798 c 128,-1,28
 876 918 876 918 904 1039 c 1,29,-1
 1194 1039 l 1,30,-1
 955 0 l 1,31,-1
 673 0 l 1,32,-1
 691 92 l 1,33,34
 629 35 629 35 549 6 c 128,-1,35
 469 -23 469 -23 384 -23 c 0,0,1
EndSplineSet
EndChar

StartChar: v
Encoding: 118 118 89
Width: 1054
GlyphClass: 1
Flags: W
LayerCount: 2
Fore
SplineSet
525 0 m 1,0,-1
 294 0 l 1,1,-1
 98 1039 l 1,2,-1
 404 1039 l 1,3,-1
 487 367 l 1,4,-1
 885 1039 l 1,5,-1
 1198 1039 l 1,6,-1
 525 0 l 1,0,-1
EndSplineSet
EndChar

StartChar: w
Encoding: 119 119 90
Width: 1525
GlyphClass: 1
Flags: W
LayerCount: 2
Fore
SplineSet
446 -5 m 1,0,-1
 203 -5 l 1,1,-1
 119 1039 l 1,2,-1
 408 1039 l 1,3,-1
 434 445 l 1,4,-1
 753 1039 l 1,5,-1
 996 1039 l 1,6,-1
 1039 447 l 1,7,-1
 1349 1039 l 1,8,-1
 1655 1039 l 1,9,-1
 1085 0 l 1,10,-1
 830 0 l 1,11,-1
 785 630 l 1,12,-1
 446 -5 l 1,0,-1
EndSplineSet
EndChar

StartChar: x
Encoding: 120 120 91
Width: 1114
GlyphClass: 1
Flags: W
LayerCount: 2
Fore
SplineSet
983 0 m 1,0,-1
 639 0 l 1,1,-1
 513 336 l 1,2,-1
 228 0 l 1,3,-1
 -127 0 l 1,4,-1
 355 524 l 1,5,-1
 122 1039 l 1,6,-1
 461 1039 l 1,7,-1
 590 710 l 1,8,-1
 875 1039 l 1,9,-1
 1231 1039 l 1,10,-1
 746 524 l 1,11,-1
 983 0 l 1,0,-1
EndSplineSet
EndChar

StartChar: y
Encoding: 121 121 92
Width: 1095
GlyphClass: 1
Flags: W
LayerCount: 2
Fore
SplineSet
283 -430 m 1,0,-1
 -33 -430 l 1,1,-1
 276 47 l 1,2,-1
 101 1039 l 1,3,-1
 408 1039 l 1,4,-1
 498 365 l 1,5,-1
 914 1039 l 1,6,-1
 1231 1039 l 1,7,-1
 283 -430 l 1,0,-1
EndSplineSet
EndChar

StartChar: z
Encoding: 122 122 93
Width: 1070
GlyphClass: 1
Flags: W
LayerCount: 2
Fore
SplineSet
877 0 m 1,0,-1
 -69 0 l 1,1,-1
 -30 177 l 1,2,-1
 681 809 l 1,3,-1
 145 809 l 1,4,-1
 200 1039 l 1,5,-1
 1117 1039 l 1,6,-1
 1074 849 l 1,7,-1
 391 229 l 1,8,-1
 932 229 l 1,9,-1
 877 0 l 1,0,-1
EndSplineSet
EndChar

StartChar: braceleft
Encoding: 123 123 94
Width: 622
GlyphClass: 1
Flags: W
LayerCount: 2
Fore
SplineSet
320 -167 m 2,0,-1
 259 -167 l 2,1,2
 230 -167 230 -167 202 -158.5 c 128,-1,3
 174 -150 174 -150 152 -130 c 0,4,5
 139 -117 139 -117 125.5 -96.5 c 128,-1,6
 112 -76 112 -76 101 -53 c 128,-1,7
 90 -30 90 -30 83.5 -6 c 128,-1,8
 77 18 77 18 77 37 c 0,9,10
 77 65 77 65 80.5 91.5 c 128,-1,11
 84 118 84 118 91 145 c 0,12,13
 176 506 176 506 176 519 c 0,14,15
 176 537 176 537 164.5 549.5 c 128,-1,16
 153 562 153 562 137 571 c 128,-1,17
 121 580 121 580 103 586 c 128,-1,18
 85 592 85 592 71 598 c 1,19,-1
 98 772 l 1,20,21
 130 783 130 783 157 793.5 c 128,-1,22
 184 804 184 804 206.5 819.5 c 128,-1,23
 229 835 229 835 245.5 858 c 128,-1,24
 262 881 262 881 271 916 c 0,25,26
 285 970 285 970 296.5 1023 c 128,-1,27
 308 1076 308 1076 320 1130 c 2,28,-1
 369 1342 l 2,29,30
 384 1407 384 1407 408.5 1455.5 c 128,-1,31
 433 1504 433 1504 470 1536.5 c 128,-1,32
 507 1569 507 1569 558 1585.5 c 128,-1,33
 609 1602 609 1602 678 1602 c 2,34,-1
 770 1602 l 2,35,36
 781 1602 781 1602 796.5 1600.5 c 128,-1,37
 812 1599 812 1599 823 1597 c 1,38,39
 816 1550 816 1550 808.5 1504.5 c 128,-1,40
 801 1459 801 1459 793 1412 c 1,41,42
 770 1419 770 1419 742.5 1423 c 128,-1,43
 715 1427 715 1427 690 1427 c 0,44,45
 680 1427 680 1427 667 1426 c 128,-1,46
 654 1425 654 1425 641.5 1421 c 128,-1,47
 629 1417 629 1417 619.5 1409.5 c 128,-1,48
 610 1402 610 1402 607 1390 c 2,49,-1
 490 878 l 2,50,51
 472 800 472 800 426 750 c 128,-1,52
 380 700 380 700 312 662 c 1,53,54
 320 657 320 657 327.5 651 c 128,-1,55
 335 645 335 645 343 639 c 0,56,57
 351 631 351 631 360 623 c 128,-1,58
 369 615 369 615 376 607 c 0,59,60
 384 597 384 597 389.5 583.5 c 128,-1,61
 395 570 395 570 398 556 c 128,-1,62
 401 542 401 542 402.5 527.5 c 128,-1,63
 404 513 404 513 404 500 c 0,64,65
 404 470 404 470 397.5 433.5 c 128,-1,66
 391 397 391 397 382 359.5 c 128,-1,67
 373 322 373 322 362 286.5 c 128,-1,68
 351 251 351 251 342 222 c 0,69,70
 338 207 338 207 332 187.5 c 128,-1,71
 326 168 326 168 320.5 147.5 c 128,-1,72
 315 127 315 127 311.5 107 c 128,-1,73
 308 87 308 87 308 71 c 0,74,75
 308 41 308 41 324 27.5 c 128,-1,76
 340 14 340 14 369 14 c 0,77,78
 392 14 392 14 414.5 18 c 128,-1,79
 437 22 437 22 460 27 c 1,80,-1
 431 -162 l 1,81,82
 418 -162 418 -162 405.5 -163 c 128,-1,83
 393 -164 393 -164 380 -165 c 0,84,85
 350 -167 350 -167 320 -167 c 2,0,-1
EndSplineSet
EndChar

StartChar: bar
Encoding: 124 124 95
Width: 621
GlyphClass: 1
Flags: W
LayerCount: 2
Fore
SplineSet
178 -512 m 1,0,-1
 -24 -512 l 1,1,-1
 449 1534 l 1,2,-1
 651 1534 l 1,3,-1
 178 -512 l 1,0,-1
EndSplineSet
EndChar

StartChar: braceright
Encoding: 125 125 96
Width: 622
GlyphClass: 1
Flags: W
LayerCount: 2
Fore
SplineSet
57 -167 m 2,0,-1
 -5 -167 l 2,1,2
 -28 -167 -28 -167 -52 -164.5 c 128,-1,3
 -76 -162 -76 -162 -99 -162 c 1,4,-1
 -70 23 l 1,5,6
 -33 14 -33 14 6 14 c 0,7,8
 37 14 37 14 59.5 24.5 c 128,-1,9
 82 35 82 35 98 53.5 c 128,-1,10
 114 72 114 72 124 96 c 128,-1,11
 134 120 134 120 140 147 c 2,12,-1
 221 508 l 2,13,14
 228 538 228 538 246 565 c 128,-1,15
 264 592 264 592 288.5 614.5 c 128,-1,16
 313 637 313 637 340.5 655.5 c 128,-1,17
 368 674 368 674 394 687 c 1,18,19
 305 742 305 742 305 844 c 0,20,21
 305 872 305 872 313 902 c 0,22,23
 334 993 334 993 355 1081.5 c 128,-1,24
 376 1170 376 1170 396 1261 c 0,25,26
 398 1268 398 1268 404 1292 c 128,-1,27
 410 1316 410 1316 416.5 1343 c 128,-1,28
 423 1370 423 1370 428 1393 c 128,-1,29
 433 1416 433 1416 433 1421 c 256,30,31
 433 1426 433 1426 427 1427 c 128,-1,32
 421 1428 421 1428 413 1428 c 0,33,34
 375 1428 375 1428 337.5 1422 c 128,-1,35
 300 1416 300 1416 263 1408 c 1,36,37
 271 1456 271 1456 278.5 1502.5 c 128,-1,38
 286 1549 286 1549 293 1597 c 1,39,40
 330 1600 330 1600 366 1601 c 128,-1,41
 402 1602 402 1602 439 1602 c 0,42,43
 486 1602 486 1602 525 1591.5 c 128,-1,44
 564 1581 564 1581 591.5 1558.5 c 128,-1,45
 619 1536 619 1536 634 1500.5 c 128,-1,46
 649 1465 649 1465 649 1414 c 0,47,48
 649 1390 649 1390 646 1366.5 c 128,-1,49
 643 1343 643 1343 638 1320 c 2,50,-1
 572 1036 l 2,51,52
 563 998 563 998 553 959 c 128,-1,53
 543 920 543 920 537 881 c 0,54,55
 534 869 534 869 534 858 c 0,56,57
 534 836 534 836 543 821 c 128,-1,58
 552 806 552 806 566.5 795.5 c 128,-1,59
 581 785 581 785 599 777.5 c 128,-1,60
 617 770 617 770 634 763 c 1,61,-1
 607 589 l 1,62,63
 578 578 578 578 547.5 567.5 c 128,-1,64
 517 557 517 557 490 541 c 0,65,66
 471 530 471 530 460 516 c 128,-1,67
 449 502 449 502 444 480 c 0,68,69
 422 390 422 390 402.5 301 c 128,-1,70
 383 212 383 212 363 122 c 0,71,72
 354 84 354 84 344.5 49.5 c 128,-1,73
 335 15 335 15 320 -15.5 c 128,-1,74
 305 -46 305 -46 283 -72.5 c 128,-1,75
 261 -99 261 -99 228 -123 c 0,76,77
 201 -142 201 -142 173 -151 c 128,-1,78
 145 -160 145 -160 116 -163.5 c 128,-1,79
 87 -167 87 -167 57 -167 c 2,0,-1
EndSplineSet
EndChar

StartChar: asciitilde
Encoding: 126 126 97
Width: 1154
GlyphClass: 1
Flags: W
LayerCount: 2
Fore
SplineSet
733 379 m 0,0,1
 699 379 699 379 665.5 382 c 128,-1,2
 632 385 632 385 600 393 c 0,3,4
 569 400 569 400 528 418 c 2,5,-1
 497 431 l 2,6,7
 470 442 470 442 445 450.5 c 128,-1,8
 420 459 420 459 399 459 c 0,9,10
 380 459 380 459 370.5 457 c 128,-1,11
 361 455 361 455 357 449.5 c 128,-1,12
 353 444 353 444 352.5 433.5 c 128,-1,13
 352 423 352 423 351 406 c 1,14,-1
 159 406 l 1,15,16
 159 526 159 526 217 588.5 c 128,-1,17
 275 651 275 651 397 651 c 0,18,19
 435 651 435 651 473.5 648 c 128,-1,20
 512 645 512 645 550 636 c 0,21,22
 568 632 568 632 595 621.5 c 128,-1,23
 622 611 622 611 649.5 601 c 128,-1,24
 677 591 677 591 701.5 583 c 128,-1,25
 726 575 726 575 739 575 c 0,26,27
 760 575 760 575 771.5 579 c 128,-1,28
 783 583 783 583 788 591 c 128,-1,29
 793 599 793 599 793.5 612.5 c 128,-1,30
 794 626 794 626 794 645 c 1,31,-1
 994 645 l 1,32,33
 994 511 994 511 931.5 445 c 128,-1,34
 869 379 869 379 733 379 c 0,0,1
EndSplineSet
EndChar

StartChar: exclamdown
Encoding: 161 161 99
Width: 635
GlyphClass: 1
Flags: W
LayerCount: 2
Fore
SplineSet
513 713 m 1,0,-1
 225 713 l 1,1,-1
 288 999 l 1,2,-1
 576 999 l 1,3,-1
 513 713 l 1,0,-1
235 -434 m 1,4,-1
 -28 -434 l 1,5,-1
 228 556 l 1,6,-1
 434 556 l 1,7,-1
 235 -434 l 1,4,-1
EndSplineSet
EndChar

StartChar: cent
Encoding: 162 162 100
Width: 1107
GlyphClass: 1
Flags: W
LayerCount: 2
Fore
SplineSet
516 -205 m 1,0,-1
 313 -205 l 1,1,-1
 363 -19 l 1,2,3
 291 -3 291 -3 238.5 32.5 c 128,-1,4
 186 68 186 68 151.5 117.5 c 128,-1,5
 117 167 117 167 100 229 c 128,-1,6
 83 291 83 291 83 362 c 0,7,8
 83 477 83 477 118.5 585 c 128,-1,9
 154 693 154 693 219.5 782 c 128,-1,10
 285 871 285 871 378.5 933.5 c 128,-1,11
 472 996 472 996 588 1019 c 1,12,-1
 637 1200 l 1,13,-1
 841 1200 l 1,14,15
 827 1153 827 1153 815.5 1107 c 128,-1,16
 804 1061 804 1061 790 1014 c 1,17,18
 854 1004 854 1004 901.5 976 c 128,-1,19
 949 948 949 948 983.5 907 c 128,-1,20
 1018 866 1018 866 1040 814 c 128,-1,21
 1062 762 1062 762 1074 702 c 1,22,-1
 825 633 l 1,23,24
 824 677 824 677 815.5 709 c 128,-1,25
 807 741 807 741 789 763 c 128,-1,26
 771 785 771 785 740.5 795.5 c 128,-1,27
 710 806 710 806 664 806 c 0,28,29
 611 806 611 806 565 786.5 c 128,-1,30
 519 767 519 767 481.5 734 c 128,-1,31
 444 701 444 701 415 657 c 128,-1,32
 386 613 386 613 366.5 564 c 128,-1,33
 347 515 347 515 337 464.5 c 128,-1,34
 327 414 327 414 327 367 c 0,35,36
 327 282 327 282 367.5 235 c 128,-1,37
 408 188 408 188 495 188 c 0,38,39
 546 188 546 188 586 202.5 c 128,-1,40
 626 217 626 217 658.5 243.5 c 128,-1,41
 691 270 691 270 716 306 c 128,-1,42
 741 342 741 342 762 385 c 1,43,-1
 965 275 l 1,44,45
 928 215 928 215 887.5 165.5 c 128,-1,46
 847 116 847 116 798.5 78 c 128,-1,47
 750 40 750 40 692 13.5 c 128,-1,48
 634 -13 634 -13 563 -25 c 1,49,-1
 516 -205 l 1,0,-1
EndSplineSet
EndChar

StartChar: sterling
Encoding: 163 163 101
Width: 1186
GlyphClass: 1
Flags: W
LayerCount: 2
Fore
SplineSet
1062 0 m 1,0,-1
 15 0 l 1,1,-1
 66 224 l 1,2,3
 131 248 131 248 189 281.5 c 128,-1,4
 247 315 247 315 290 360.5 c 128,-1,5
 333 406 333 406 358 465 c 128,-1,6
 383 524 383 524 383 600 c 1,7,-1
 156 600 l 1,8,9
 170 654 170 654 182.5 708.5 c 128,-1,10
 195 763 195 763 208 817 c 1,11,-1
 383 817 l 1,12,13
 374 871 374 871 374 928 c 0,14,15
 374 1015 374 1015 401.5 1096.5 c 128,-1,16
 429 1178 429 1178 479 1245.5 c 128,-1,17
 529 1313 529 1313 599 1362 c 128,-1,18
 669 1411 669 1411 753 1434 c 0,19,20
 790 1444 790 1444 827 1447 c 128,-1,21
 864 1450 864 1450 902 1450 c 0,22,23
 972 1450 972 1450 1035.5 1424.5 c 128,-1,24
 1099 1399 1099 1399 1148 1354.5 c 128,-1,25
 1197 1310 1197 1310 1229 1249.5 c 128,-1,26
 1261 1189 1261 1189 1268 1119 c 1,27,-1
 1048 1065 l 1,28,29
 1037 1141 1037 1141 988 1181.5 c 128,-1,30
 939 1222 939 1222 863 1222 c 0,31,32
 803 1222 803 1222 753 1195 c 128,-1,33
 703 1168 703 1168 668 1124.5 c 128,-1,34
 633 1081 633 1081 613.5 1026 c 128,-1,35
 594 971 594 971 594 915 c 0,36,37
 594 891 594 891 596.5 866 c 128,-1,38
 599 841 599 841 605 817 c 1,39,-1
 1090 817 l 1,40,41
 1076 763 1076 763 1064 708.5 c 128,-1,42
 1052 654 1052 654 1038 600 c 1,43,-1
 604 600 l 1,44,45
 604 573 604 573 599.5 536.5 c 128,-1,46
 595 500 595 500 586 460.5 c 128,-1,47
 577 421 577 421 563 381.5 c 128,-1,48
 549 342 549 342 529.5 309 c 128,-1,49
 510 276 510 276 484.5 253 c 128,-1,50
 459 230 459 230 427 223 c 1,51,-1
 1114 227 l 1,52,53
 1101 170 1101 170 1088.5 113.5 c 128,-1,54
 1076 57 1076 57 1062 0 c 1,0,-1
EndSplineSet
EndChar

StartChar: currency
Encoding: 164 164 102
Width: 1190
GlyphClass: 1
Flags: W
LayerCount: 2
Fore
SplineSet
881 117 m 1,0,-1
 796 220 l 1,1,2
 736 187 736 187 671 167.5 c 128,-1,3
 606 148 606 148 537 148 c 0,4,5
 465 148 465 148 399.5 168.5 c 128,-1,6
 334 189 334 189 277 234 c 1,7,-1
 139 117 l 1,8,-1
 28 264 l 1,9,-1
 166 378 l 1,10,11
 149 416 149 416 142 456 c 128,-1,12
 135 496 135 496 135 537 c 0,13,14
 135 639 135 639 175 732.5 c 128,-1,15
 215 826 215 826 283 901 c 1,16,-1
 200 995 l 1,17,-1
 369 1141 l 1,18,19
 389 1115 389 1115 410.5 1090 c 128,-1,20
 432 1065 432 1065 452 1039 c 1,21,22
 513 1074 513 1074 579.5 1093.5 c 128,-1,23
 646 1113 646 1113 716 1113 c 0,24,25
 787 1113 787 1113 851 1092.5 c 128,-1,26
 915 1072 915 1072 971 1028 c 1,27,28
 1004 1057 1004 1057 1038.5 1084 c 128,-1,29
 1073 1111 1073 1111 1107 1139 c 1,30,-1
 1220 999 l 1,31,-1
 1083 885 l 1,32,33
 1100 846 1100 846 1108.5 804.5 c 128,-1,34
 1117 763 1117 763 1117 721 c 0,35,36
 1117 617 1117 617 1076.5 524.5 c 128,-1,37
 1036 432 1036 432 967 357 c 1,38,-1
 1052 264 l 1,39,-1
 881 117 l 1,0,-1
557 353 m 0,40,41
 625 353 625 353 691.5 381.5 c 128,-1,42
 758 410 758 410 811.5 458 c 128,-1,43
 865 506 865 506 898 569.5 c 128,-1,44
 931 633 931 633 931 703 c 0,45,46
 931 750 931 750 914.5 788 c 128,-1,47
 898 826 898 826 869.5 853 c 128,-1,48
 841 880 841 880 801.5 895 c 128,-1,49
 762 910 762 910 717 910 c 0,50,51
 648 910 648 910 581 882 c 128,-1,52
 514 854 514 854 461 806.5 c 128,-1,53
 408 759 408 759 375 696 c 128,-1,54
 342 633 342 633 342 562 c 0,55,56
 342 515 342 515 358.5 476.5 c 128,-1,57
 375 438 375 438 403.5 410.5 c 128,-1,58
 432 383 432 383 471.5 368 c 128,-1,59
 511 353 511 353 557 353 c 0,40,41
EndSplineSet
EndChar

StartChar: yen
Encoding: 165 165 103
Width: 1320
GlyphClass: 1
Flags: W
LayerCount: 2
Fore
SplineSet
660 0 m 1,0,-1
 430 0 l 1,1,-1
 468 163 l 1,2,-1
 169 163 l 1,3,-1
 215 368 l 1,4,-1
 514 368 l 1,5,-1
 543 485 l 1,6,-1
 244 485 l 1,7,-1
 292 693 l 1,8,-1
 497 693 l 1,9,-1
 190 1413 l 1,10,-1
 462 1413 l 1,11,-1
 713 752 l 1,12,-1
 1276 1413 l 1,13,-1
 1556 1413 l 1,14,-1
 918 690 l 1,15,-1
 1116 690 l 1,16,-1
 1071 485 l 1,17,-1
 772 485 l 1,18,-1
 743 368 l 1,19,-1
 1041 368 l 1,20,-1
 996 163 l 1,21,-1
 697 163 l 1,22,-1
 660 0 l 1,0,-1
EndSplineSet
EndChar

StartChar: brokenbar
Encoding: 166 166 104
Width: 648
GlyphClass: 1
Flags: W
LayerCount: 2
Fore
SplineSet
492 731 m 1,0,-1
 262 731 l 1,1,-1
 434 1475 l 1,2,-1
 664 1475 l 1,3,-1
 492 731 l 1,0,-1
253 -307 m 1,4,-1
 23 -307 l 1,5,-1
 191 420 l 1,6,-1
 420 420 l 1,7,-1
 253 -307 l 1,4,-1
EndSplineSet
EndChar

StartChar: section
Encoding: 167 167 105
Width: 1098
GlyphClass: 1
Flags: W
LayerCount: 2
Fore
SplineSet
442 -18 m 0,0,1
 378 -18 378 -18 310.5 -1.5 c 128,-1,2
 243 15 243 15 188 49.5 c 128,-1,3
 133 84 133 84 97.5 138 c 128,-1,4
 62 192 62 192 62 267 c 2,5,-1
 63 292 l 1,6,-1
 336 346 l 1,7,8
 336 303 336 303 345 274 c 128,-1,9
 354 245 354 245 373.5 228.5 c 128,-1,10
 393 212 393 212 422.5 205 c 128,-1,11
 452 198 452 198 494 198 c 0,12,13
 525 198 525 198 560 203.5 c 128,-1,14
 595 209 595 209 626.5 223 c 128,-1,15
 658 237 658 237 682 260 c 128,-1,16
 706 283 706 283 714 319 c 1,17,-1
 715 332 l 2,18,19
 715 360 715 360 703.5 375 c 128,-1,20
 692 390 692 390 671.5 399 c 128,-1,21
 651 408 651 408 627.5 415 c 128,-1,22
 604 422 604 422 581 426 c 128,-1,23
 558 430 558 430 543 433 c 0,24,25
 495 443 495 443 450 458 c 128,-1,26
 405 473 405 473 360 491 c 0,27,28
 327 505 327 505 299 522.5 c 128,-1,29
 271 540 271 540 250.5 563.5 c 128,-1,30
 230 587 230 587 218.5 617 c 128,-1,31
 207 647 207 647 207 685 c 0,32,33
 207 727 207 727 217.5 763 c 128,-1,34
 228 799 228 799 246 831 c 128,-1,35
 264 863 264 863 288.5 892 c 128,-1,36
 313 921 313 921 342 949 c 1,37,38
 319 974 319 974 309 1004.5 c 128,-1,39
 299 1035 299 1035 299 1068 c 0,40,41
 299 1157 299 1157 340.5 1225.5 c 128,-1,42
 382 1294 382 1294 447 1340.5 c 128,-1,43
 512 1387 512 1387 593.5 1410.5 c 128,-1,44
 675 1434 675 1434 754 1434 c 0,45,46
 801 1434 801 1434 856 1423.5 c 128,-1,47
 911 1413 911 1413 962.5 1390.5 c 128,-1,48
 1014 1368 1014 1368 1055 1333.5 c 128,-1,49
 1096 1299 1096 1299 1115 1250 c 1,50,51
 1056 1221 1056 1221 997.5 1194 c 128,-1,52
 939 1167 939 1167 880 1139 c 1,53,54
 876 1166 876 1166 861 1183 c 128,-1,55
 846 1200 846 1200 825 1209.5 c 128,-1,56
 804 1219 804 1219 779.5 1222.5 c 128,-1,57
 755 1226 755 1226 731 1226 c 0,58,59
 678 1226 678 1226 627.5 1205.5 c 128,-1,60
 577 1185 577 1185 545 1142 c 0,61,62
 537 1131 537 1131 527 1111.5 c 128,-1,63
 517 1092 517 1092 517 1078 c 0,64,65
 517 1052 517 1052 539 1036 c 128,-1,66
 561 1020 561 1020 597 1008.5 c 128,-1,67
 633 997 633 997 679 987.5 c 128,-1,68
 725 978 725 978 773.5 966.5 c 128,-1,69
 822 955 822 955 868 938 c 128,-1,70
 914 921 914 921 950 894.5 c 128,-1,71
 986 868 986 868 1008 829.5 c 128,-1,72
 1030 791 1030 791 1030 735 c 0,73,74
 1030 653 1030 653 993 587.5 c 128,-1,75
 956 522 956 522 899 467 c 1,76,77
 922 443 922 443 930.5 410.5 c 128,-1,78
 939 378 939 378 939 346 c 0,79,80
 939 279 939 279 918 226 c 128,-1,81
 897 173 897 173 860.5 133 c 128,-1,82
 824 93 824 93 775 64 c 128,-1,83
 726 35 726 35 671 17 c 128,-1,84
 616 -1 616 -1 557 -9.5 c 128,-1,85
 498 -18 498 -18 442 -18 c 0,0,1
685 586 m 1,86,87
 708 592 708 592 730 605 c 128,-1,88
 752 618 752 618 768.5 636.5 c 128,-1,89
 785 655 785 655 795 678 c 128,-1,90
 805 701 805 701 805 726 c 0,91,92
 805 746 805 746 792 761 c 128,-1,93
 779 776 779 776 762 784 c 0,94,95
 743 793 743 793 715 801 c 128,-1,96
 687 809 687 809 657 816.5 c 128,-1,97
 627 824 627 824 598 831 c 128,-1,98
 569 838 569 838 547 844 c 1,99,100
 528 835 528 835 507 819.5 c 128,-1,101
 486 804 486 804 469.5 784.5 c 128,-1,102
 453 765 453 765 442 742.5 c 128,-1,103
 431 720 431 720 431 697 c 256,104,105
 431 674 431 674 449.5 659 c 128,-1,106
 468 644 468 644 493.5 634 c 128,-1,107
 519 624 519 624 546 619 c 128,-1,108
 573 614 573 614 591 610 c 0,109,110
 637 600 637 600 685 586 c 1,86,87
EndSplineSet
EndChar

StartChar: dieresis
Encoding: 168 168 106
Width: 844
GlyphClass: 1
Flags: W
LayerCount: 2
Fore
SplineSet
635 1178 m 1,0,-1
 419 1178 l 1,1,-1
 472 1413 l 1,2,-1
 688 1413 l 1,3,-1
 635 1178 l 1,0,-1
995 1178 m 1,4,-1
 778 1178 l 1,5,-1
 833 1413 l 1,6,-1
 1048 1413 l 1,7,-1
 995 1178 l 1,4,-1
EndSplineSet
EndChar

StartChar: copyright
Encoding: 169 169 107
Width: 1771
GlyphClass: 1
Flags: W
LayerCount: 2
Fore
SplineSet
935 -49 m 256,0,1
 830 -49 830 -49 729.5 -23 c 128,-1,2
 629 3 629 3 540.5 50.5 c 128,-1,3
 452 98 452 98 377.5 166 c 128,-1,4
 303 234 303 234 249.5 318 c 128,-1,5
 196 402 196 402 166 500 c 128,-1,6
 136 598 136 598 136 707 c 256,7,8
 136 816 136 816 166 914 c 128,-1,9
 196 1012 196 1012 249.5 1096 c 128,-1,10
 303 1180 303 1180 377.5 1247.5 c 128,-1,11
 452 1315 452 1315 541 1362.5 c 128,-1,12
 630 1410 630 1410 730 1435.5 c 128,-1,13
 830 1461 830 1461 935 1461 c 0,14,15
 1041 1461 1041 1461 1140.5 1435.5 c 128,-1,16
 1240 1410 1240 1410 1328.5 1362.5 c 128,-1,17
 1417 1315 1417 1315 1491 1247.5 c 128,-1,18
 1565 1180 1565 1180 1618.5 1096 c 128,-1,19
 1672 1012 1672 1012 1701.5 914 c 128,-1,20
 1731 816 1731 816 1731 707 c 0,21,22
 1731 599 1731 599 1701.5 500.5 c 128,-1,23
 1672 402 1672 402 1618.5 318 c 128,-1,24
 1565 234 1565 234 1491 166 c 128,-1,25
 1417 98 1417 98 1328.5 50.5 c 128,-1,26
 1240 3 1240 3 1140 -23 c 128,-1,27
 1040 -49 1040 -49 935 -49 c 256,0,1
935 161 m 0,28,29
 1010 161 1010 161 1082.5 180 c 128,-1,30
 1155 199 1155 199 1220 234 c 128,-1,31
 1285 269 1285 269 1340.5 318 c 128,-1,32
 1396 367 1396 367 1436.5 427.5 c 128,-1,33
 1477 488 1477 488 1499.5 559 c 128,-1,34
 1522 630 1522 630 1522 707 c 0,35,36
 1522 785 1522 785 1499.5 855.5 c 128,-1,37
 1477 926 1477 926 1436.5 986.5 c 128,-1,38
 1396 1047 1396 1047 1340.5 1096 c 128,-1,39
 1285 1145 1285 1145 1220 1179.5 c 128,-1,40
 1155 1214 1155 1214 1082.5 1233 c 128,-1,41
 1010 1252 1010 1252 935 1252 c 256,42,43
 860 1252 860 1252 787.5 1233 c 128,-1,44
 715 1214 715 1214 650 1179.5 c 128,-1,45
 585 1145 585 1145 529.5 1096 c 128,-1,46
 474 1047 474 1047 433.5 986.5 c 128,-1,47
 393 926 393 926 370.5 855.5 c 128,-1,48
 348 785 348 785 348 707 c 256,49,50
 348 629 348 629 370.5 558 c 128,-1,51
 393 487 393 487 433 426 c 128,-1,52
 473 365 473 365 528 316 c 128,-1,53
 583 267 583 267 648.5 232.5 c 128,-1,54
 714 198 714 198 786.5 179.5 c 128,-1,55
 859 161 859 161 935 161 c 0,28,29
944 253 m 0,56,57
 846 253 846 253 772 291.5 c 128,-1,58
 698 330 698 330 648.5 394 c 128,-1,59
 599 458 599 458 574.5 541 c 128,-1,60
 550 624 550 624 550 714 c 256,61,62
 550 804 550 804 577 884 c 128,-1,63
 604 964 604 964 656 1024.5 c 128,-1,64
 708 1085 708 1085 782.5 1120.5 c 128,-1,65
 857 1156 857 1156 951 1156 c 0,66,67
 1022 1156 1022 1156 1078 1138.5 c 128,-1,68
 1134 1121 1134 1121 1178.5 1087.5 c 128,-1,69
 1223 1054 1223 1054 1258 1005.5 c 128,-1,70
 1293 957 1293 957 1321 895 c 1,71,-1
 1126 812 l 1,72,73
 1112 844 1112 844 1097 868 c 128,-1,74
 1082 892 1082 892 1061.5 909 c 128,-1,75
 1041 926 1041 926 1014.5 934.5 c 128,-1,76
 988 943 988 943 951 943 c 0,77,78
 898 943 898 943 861.5 923.5 c 128,-1,79
 825 904 825 904 802.5 871 c 128,-1,80
 780 838 780 838 770 795 c 128,-1,81
 760 752 760 752 760 705 c 0,82,83
 760 657 760 657 769.5 614 c 128,-1,84
 779 571 779 571 800.5 538.5 c 128,-1,85
 822 506 822 506 858.5 487 c 128,-1,86
 895 468 895 468 949 468 c 0,87,88
 989 468 989 468 1015 476 c 128,-1,89
 1041 484 1041 484 1060 500.5 c 128,-1,90
 1079 517 1079 517 1093.5 541 c 128,-1,91
 1108 565 1108 565 1124 598 c 1,92,93
 1174 577 1174 577 1222.5 556.5 c 128,-1,94
 1271 536 1271 536 1321 516 c 1,95,96
 1291 453 1291 453 1255.5 404 c 128,-1,97
 1220 355 1220 355 1175 321.5 c 128,-1,98
 1130 288 1130 288 1073 270.5 c 128,-1,99
 1016 253 1016 253 944 253 c 0,56,57
EndSplineSet
EndChar

StartChar: ordfeminine
Encoding: 170 170 108
Width: 753
GlyphClass: 2
Flags: W
LayerCount: 2
Fore
SplineSet
354 709 m 0,0,1
 311 709 311 709 271.5 721 c 128,-1,2
 232 733 232 733 202 757 c 128,-1,3
 172 781 172 781 154.5 816.5 c 128,-1,4
 137 852 137 852 137 898 c 0,5,6
 137 970 137 970 165.5 1018.5 c 128,-1,7
 194 1067 194 1067 241 1096.5 c 128,-1,8
 288 1126 288 1126 347.5 1139 c 128,-1,9
 407 1152 407 1152 468 1153 c 0,10,11
 518 1155 518 1155 566.5 1158.5 c 128,-1,12
 615 1162 615 1162 665 1164 c 1,13,14
 667 1175 667 1175 668 1184.5 c 128,-1,15
 669 1194 669 1194 669 1205 c 0,16,17
 669 1231 669 1231 659.5 1247 c 128,-1,18
 650 1263 650 1263 634.5 1271.5 c 128,-1,19
 619 1280 619 1280 598.5 1283 c 128,-1,20
 578 1286 578 1286 556 1286 c 0,21,22
 524 1286 524 1286 495 1276 c 128,-1,23
 466 1266 466 1266 439.5 1249.5 c 128,-1,24
 413 1233 413 1233 389.5 1212 c 128,-1,25
 366 1191 366 1191 346 1168 c 1,26,-1
 231 1274 l 1,27,28
 268 1313 268 1313 304.5 1343 c 128,-1,29
 341 1373 341 1373 381.5 1393 c 128,-1,30
 422 1413 422 1413 467.5 1423.5 c 128,-1,31
 513 1434 513 1434 568 1434 c 0,32,33
 621 1434 621 1434 667.5 1420.5 c 128,-1,34
 714 1407 714 1407 748.5 1379.5 c 128,-1,35
 783 1352 783 1352 803 1309.5 c 128,-1,36
 823 1267 823 1267 823 1210 c 0,37,38
 823 1173 823 1173 814 1137 c 2,39,-1
 717 723 l 1,40,-1
 573 723 l 1,41,42
 578 739 578 739 582 755.5 c 128,-1,43
 586 772 586 772 591 788 c 1,44,45
 539 746 539 746 479.5 727.5 c 128,-1,46
 420 709 420 709 354 709 c 0,0,1
389 857 m 0,47,48
 426 857 426 857 463 870 c 128,-1,49
 500 883 500 883 532.5 905 c 128,-1,50
 565 927 565 927 591 956.5 c 128,-1,51
 617 986 617 986 632 1019 c 1,52,-1
 457 1008 l 2,53,54
 419 1006 419 1006 382 994 c 128,-1,55
 345 982 345 982 322 950 c 0,56,57
 316 942 316 942 310 929 c 128,-1,58
 304 916 304 916 304 905 c 0,59,60
 304 891 304 891 313.5 882 c 128,-1,61
 323 873 323 873 336 867.5 c 128,-1,62
 349 862 349 862 364 859.5 c 128,-1,63
 379 857 379 857 389 857 c 0,47,48
EndSplineSet
EndChar

StartChar: guillemotleft
Encoding: 171 171 109
Width: 948
GlyphClass: 1
Flags: W
LayerCount: 2
Fore
SplineSet
366 147 m 1,0,-1
 1 509 l 1,1,-1
 529 875 l 1,2,-1
 481 649 l 1,3,-1
 271 509 l 1,4,-1
 415 373 l 1,5,-1
 366 147 l 1,0,-1
728 147 m 1,6,-1
 364 509 l 1,7,-1
 892 875 l 1,8,-1
 843 649 l 1,9,-1
 635 509 l 1,10,-1
 776 373 l 1,11,-1
 728 147 l 1,6,-1
EndSplineSet
EndChar

StartChar: logicalnot
Encoding: 172 172 110
Width: 1302
GlyphClass: 1
Flags: W
LayerCount: 2
Fore
SplineSet
1098 291 m 1,0,-1
 836 291 l 1,1,-1
 836 554 l 1,2,-1
 128 554 l 1,3,-1
 128 797 l 1,4,-1
 1098 797 l 1,5,-1
 1098 291 l 1,0,-1
EndSplineSet
EndChar

StartChar: uni00AD
Encoding: 173 173 111
Width: 1019
GlyphClass: 1
Flags: W
LayerCount: 2
Fore
SplineSet
880 486 m 1,0,-1
 131 486 l 1,1,-1
 179 692 l 1,2,-1
 928 692 l 1,3,-1
 880 486 l 1,0,-1
EndSplineSet
EndChar

StartChar: registered
Encoding: 174 174 112
Width: 1771
GlyphClass: 1
Flags: W
LayerCount: 2
Fore
SplineSet
934 -47 m 256,0,1
 829 -47 829 -47 729 -21 c 128,-1,2
 629 5 629 5 540 53 c 128,-1,3
 451 101 451 101 377 169 c 128,-1,4
 303 237 303 237 249 321 c 128,-1,5
 195 405 195 405 165 503 c 128,-1,6
 135 601 135 601 135 709 c 0,7,8
 135 818 135 818 165 916 c 128,-1,9
 195 1014 195 1014 249 1097.5 c 128,-1,10
 303 1181 303 1181 377 1248.5 c 128,-1,11
 451 1316 451 1316 540 1364 c 128,-1,12
 629 1412 629 1412 729 1437.5 c 128,-1,13
 829 1463 829 1463 934 1463 c 256,14,15
 1039 1463 1039 1463 1139 1437.5 c 128,-1,16
 1239 1412 1239 1412 1327.5 1364 c 128,-1,17
 1416 1316 1416 1316 1490 1248.5 c 128,-1,18
 1564 1181 1564 1181 1617.5 1097.5 c 128,-1,19
 1671 1014 1671 1014 1701 915.5 c 128,-1,20
 1731 817 1731 817 1731 709 c 256,21,22
 1731 601 1731 601 1701 502.5 c 128,-1,23
 1671 404 1671 404 1617.5 320 c 128,-1,24
 1564 236 1564 236 1490 168 c 128,-1,25
 1416 100 1416 100 1327.5 52.5 c 128,-1,26
 1239 5 1239 5 1139 -21 c 128,-1,27
 1039 -47 1039 -47 934 -47 c 256,0,1
934 155 m 0,28,29
 1036 155 1036 155 1132 188.5 c 128,-1,30
 1228 222 1228 222 1309 284 c 1,31,-1
 1111 284 l 1,32,-1
 940 594 l 1,33,-1
 864 594 l 1,34,-1
 864 284 l 1,35,-1
 660 284 l 1,36,-1
 660 1118 l 1,37,-1
 987 1118 l 2,38,39
 1050 1118 1050 1118 1103.5 1102.5 c 128,-1,40
 1157 1087 1157 1087 1196 1055.5 c 128,-1,41
 1235 1024 1235 1024 1257 975 c 128,-1,42
 1279 926 1279 926 1279 858 c 0,43,44
 1279 782 1279 782 1247 721.5 c 128,-1,45
 1215 661 1215 661 1146 625 c 1,46,47
 1194 544 1194 544 1239.5 463.5 c 128,-1,48
 1285 383 1285 383 1332 302 c 1,49,50
 1333 304 1333 304 1338.5 308 c 128,-1,51
 1344 312 1344 312 1346 314 c 0,52,53
 1433 393 1433 393 1481 491.5 c 128,-1,54
 1529 590 1529 590 1529 709 c 0,55,56
 1529 788 1529 788 1506 860 c 128,-1,57
 1483 932 1483 932 1442.5 993.5 c 128,-1,58
 1402 1055 1402 1055 1346 1104.5 c 128,-1,59
 1290 1154 1290 1154 1224 1189 c 128,-1,60
 1158 1224 1158 1224 1084 1243 c 128,-1,61
 1010 1262 1010 1262 934 1262 c 0,62,63
 819 1262 819 1262 711.5 1220.5 c 128,-1,64
 604 1179 604 1179 520.5 1105.5 c 128,-1,65
 437 1032 437 1032 387 930.5 c 128,-1,66
 337 829 337 829 337 709 c 0,67,68
 337 629 337 629 360 556.5 c 128,-1,69
 383 484 383 484 423.5 422.5 c 128,-1,70
 464 361 464 361 520 311.5 c 128,-1,71
 576 262 576 262 642.5 227 c 128,-1,72
 709 192 709 192 783 173.5 c 128,-1,73
 857 155 857 155 934 155 c 0,28,29
987 788 m 2,74,75
 1008 788 1008 788 1026 789.5 c 128,-1,76
 1044 791 1044 791 1057.5 798 c 128,-1,77
 1071 805 1071 805 1078.5 819 c 128,-1,78
 1086 833 1086 833 1086 858 c 0,79,80
 1086 884 1086 884 1078.5 897.5 c 128,-1,81
 1071 911 1071 911 1058 917 c 128,-1,82
 1045 923 1045 923 1026.5 924 c 128,-1,83
 1008 925 1008 925 987 925 c 2,84,-1
 854 925 l 1,85,-1
 854 788 l 1,86,-1
 987 788 l 2,74,75
EndSplineSet
EndChar

StartChar: macron
Encoding: 175 175 113
Width: 828
GlyphClass: 1
Flags: W
LayerCount: 2
Fore
SplineSet
814 1136 m 1,0,-1
 249 1136 l 1,1,-1
 284 1284 l 1,2,-1
 848 1284 l 1,3,-1
 814 1136 l 1,0,-1
EndSplineSet
EndChar

StartChar: degree
Encoding: 176 176 114
Width: 754
GlyphClass: 1
Flags: W
LayerCount: 2
Fore
SplineSet
368 848 m 0,0,1
 325 848 325 848 284.5 861.5 c 128,-1,2
 244 875 244 875 210 899.5 c 128,-1,3
 176 924 176 924 149 957.5 c 128,-1,4
 122 991 122 991 105 1030 c 0,5,6
 91 1061 91 1061 87 1088 c 128,-1,7
 83 1115 83 1115 83 1148 c 0,8,9
 83 1208 83 1208 108 1260 c 128,-1,10
 133 1312 133 1312 174.5 1350.5 c 128,-1,11
 216 1389 216 1389 270 1411.5 c 128,-1,12
 324 1434 324 1434 382 1434 c 0,13,14
 444 1434 444 1434 496.5 1409.5 c 128,-1,15
 549 1385 549 1385 587.5 1344 c 128,-1,16
 626 1303 626 1303 647.5 1248.5 c 128,-1,17
 669 1194 669 1194 669 1134 c 0,18,19
 669 1091 669 1091 655.5 1051 c 128,-1,20
 642 1011 642 1011 618 976.5 c 128,-1,21
 594 942 594 942 561 915 c 128,-1,22
 528 888 528 888 490 871 c 0,23,24
 459 857 459 857 430 852.5 c 128,-1,25
 401 848 401 848 368 848 c 0,0,1
375 1034 m 0,26,27
 423 1034 423 1034 454 1063.5 c 128,-1,28
 485 1093 485 1093 485 1141 c 256,29,30
 485 1189 485 1189 453.5 1218.5 c 128,-1,31
 422 1248 422 1248 375 1248 c 0,32,33
 353 1248 353 1248 333.5 1239.5 c 128,-1,34
 314 1231 314 1231 299.5 1216.5 c 128,-1,35
 285 1202 285 1202 276.5 1182.5 c 128,-1,36
 268 1163 268 1163 268 1141 c 256,37,38
 268 1119 268 1119 276.5 1099.5 c 128,-1,39
 285 1080 285 1080 299.5 1065.5 c 128,-1,40
 314 1051 314 1051 333.5 1042.5 c 128,-1,41
 353 1034 353 1034 375 1034 c 0,26,27
EndSplineSet
EndChar

StartChar: plusminus
Encoding: 177 177 115
Width: 1332
GlyphClass: 1
Flags: W
LayerCount: 2
Fore
SplineSet
770 106 m 1,0,-1
 563 106 l 1,1,-1
 563 520 l 1,2,-1
 107 520 l 1,3,-1
 107 728 l 1,4,-1
 563 728 l 1,5,-1
 563 1143 l 1,6,-1
 770 1143 l 1,7,-1
 770 728 l 1,8,-1
 1226 728 l 1,9,-1
 1226 520 l 1,10,-1
 770 520 l 1,11,-1
 770 106 l 1,0,-1
1223 -206 m 1,12,-1
 109 -206 l 1,13,-1
 109 0 l 1,14,-1
 1223 0 l 1,15,-1
 1223 -206 l 1,12,-1
EndSplineSet
EndChar

StartChar: twosuperior
Encoding: 178 178 116
Width: 811
GlyphClass: 2
Flags: W
LayerCount: 2
Fore
SplineSet
688 486 m 1,0,-1
 -51 486 l 1,1,-1
 -19 656 l 1,2,3
 68 697 68 697 151 745.5 c 128,-1,4
 234 794 234 794 312 850 c 0,5,6
 334 865 334 865 354 881.5 c 128,-1,7
 374 898 374 898 396 914 c 0,8,9
 428 937 428 937 464.5 964.5 c 128,-1,10
 501 992 501 992 532 1025 c 128,-1,11
 563 1058 563 1058 584 1096 c 128,-1,12
 605 1134 605 1134 605 1178 c 0,13,14
 605 1200 605 1200 597.5 1213.5 c 128,-1,15
 590 1227 590 1227 577.5 1235 c 128,-1,16
 565 1243 565 1243 548 1246 c 128,-1,17
 531 1249 531 1249 512 1249 c 0,18,19
 469 1249 469 1249 434.5 1233.5 c 128,-1,20
 400 1218 400 1218 374.5 1192 c 128,-1,21
 349 1166 349 1166 330.5 1132 c 128,-1,22
 312 1098 312 1098 300 1060 c 1,23,-1
 126 1084 l 1,24,25
 140 1156 140 1156 180.5 1221 c 128,-1,26
 221 1286 221 1286 278 1334.5 c 128,-1,27
 335 1383 335 1383 405 1412 c 128,-1,28
 475 1441 475 1441 549 1441 c 0,29,30
 600 1441 600 1441 648 1427 c 128,-1,31
 696 1413 696 1413 733 1384.5 c 128,-1,32
 770 1356 770 1356 792 1313.5 c 128,-1,33
 814 1271 814 1271 814 1215 c 0,34,35
 814 1154 814 1154 787.5 1099 c 128,-1,36
 761 1044 761 1044 724 997 c 0,37,38
 708 977 708 977 678.5 945.5 c 128,-1,39
 649 914 649 914 616 882 c 128,-1,40
 583 850 583 850 551.5 822.5 c 128,-1,41
 520 795 520 795 500 783 c 0,42,43
 453 754 453 754 406.5 727.5 c 128,-1,44
 360 701 360 701 312 675 c 1,45,-1
 734 680 l 1,46,-1
 688 486 l 1,0,-1
EndSplineSet
EndChar

StartChar: threesuperior
Encoding: 179 179 117
Width: 841
GlyphClass: 2
Flags: W
LayerCount: 2
Fore
SplineSet
335 461 m 0,0,1
 276 461 276 461 218.5 476 c 128,-1,2
 161 491 161 491 115.5 522.5 c 128,-1,3
 70 554 70 554 42 602 c 128,-1,4
 14 650 14 650 14 717 c 0,5,6
 14 757 14 757 25 799 c 1,7,8
 76 798 76 798 125.5 797 c 128,-1,9
 175 796 175 796 226 794 c 1,10,11
 222 779 222 779 222 760 c 0,12,13
 222 731 222 731 234.5 711.5 c 128,-1,14
 247 692 247 692 267 680.5 c 128,-1,15
 287 669 287 669 312 664 c 128,-1,16
 337 659 337 659 361 659 c 0,17,18
 395 659 395 659 434 668 c 128,-1,19
 473 677 473 677 506.5 695.5 c 128,-1,20
 540 714 540 714 562.5 743.5 c 128,-1,21
 585 773 585 773 585 814 c 0,22,23
 585 840 585 840 570.5 855 c 128,-1,24
 556 870 556 870 534.5 878 c 128,-1,25
 513 886 513 886 489 888 c 128,-1,26
 465 890 465 890 446 890 c 2,27,-1
 335 890 l 1,28,-1
 375 1080 l 1,29,-1
 467 1079 l 2,30,31
 501 1079 501 1079 532 1087 c 128,-1,32
 563 1095 563 1095 587.5 1118.5 c 128,-1,33
 612 1142 612 1142 627 1192 c 1,34,-1
 626 1196 l 2,35,36
 623 1215 623 1215 612.5 1226.5 c 128,-1,37
 602 1238 602 1238 587 1244 c 128,-1,38
 572 1250 572 1250 554.5 1251.5 c 128,-1,39
 537 1253 537 1253 521 1253 c 0,40,41
 493 1253 493 1253 465.5 1245 c 128,-1,42
 438 1237 438 1237 414.5 1222 c 128,-1,43
 391 1207 391 1207 373.5 1185 c 128,-1,44
 356 1163 356 1163 348 1135 c 1,45,46
 303 1141 303 1141 259.5 1147 c 128,-1,47
 216 1153 216 1153 171 1158 c 1,48,49
 186 1226 186 1226 223 1280.5 c 128,-1,50
 260 1335 260 1335 311.5 1373 c 128,-1,51
 363 1411 363 1411 426 1432 c 128,-1,52
 489 1453 489 1453 557 1453 c 0,53,54
 608 1453 608 1453 657.5 1439.5 c 128,-1,55
 707 1426 707 1426 746 1398.5 c 128,-1,56
 785 1371 785 1371 809 1329 c 128,-1,57
 833 1287 833 1287 833 1229 c 0,58,59
 833 1194 833 1194 822 1159.5 c 128,-1,60
 811 1125 811 1125 792 1094 c 128,-1,61
 773 1063 773 1063 748 1036.5 c 128,-1,62
 723 1010 723 1010 695 990 c 1,63,64
 742 961 742 961 763 917.5 c 128,-1,65
 784 874 784 874 784 820 c 0,66,67
 784 730 784 730 743.5 663 c 128,-1,68
 703 596 703 596 639 551 c 128,-1,69
 575 506 575 506 495 483.5 c 128,-1,70
 415 461 415 461 335 461 c 0,0,1
EndSplineSet
EndChar

StartChar: acute
Encoding: 180 180 118
Width: 537
GlyphClass: 1
Flags: W
LayerCount: 2
Fore
SplineSet
429 1124 m 1,0,-1
 231 1124 l 1,1,-1
 526 1413 l 1,2,-1
 811 1413 l 1,3,-1
 429 1124 l 1,0,-1
EndSplineSet
EndChar

StartChar: uni00B5
Encoding: 181 181 119
Width: 1339
GlyphClass: 1
Flags: W
LayerCount: 2
Fore
SplineSet
267 -266 m 1,0,-1
 32 -266 l 1,1,-1
 335 1039 l 1,2,-1
 594 1039 l 1,3,4
 560 884 560 884 525.5 730.5 c 128,-1,5
 491 577 491 577 454 422 c 0,6,7
 448 397 448 397 443.5 372 c 128,-1,8
 439 347 439 347 439 320 c 0,9,10
 439 256 439 256 472 233 c 128,-1,11
 505 210 505 210 564 210 c 0,12,13
 617 210 617 210 670 231.5 c 128,-1,14
 723 253 723 253 768 289.5 c 128,-1,15
 813 326 813 326 846.5 373 c 128,-1,16
 880 420 880 420 891 472 c 2,17,-1
 1020 1039 l 1,18,-1
 1280 1039 l 1,19,-1
 1041 0 l 1,20,-1
 782 0 l 1,21,-1
 802 67 l 1,22,23
 738 20 738 20 664.5 -1.5 c 128,-1,24
 591 -23 591 -23 510 -23 c 0,25,26
 432 -23 432 -23 357 6 c 1,27,28
 335 -63 335 -63 312 -130 c 128,-1,29
 289 -197 289 -197 267 -266 c 1,0,-1
EndSplineSet
EndChar

StartChar: paragraph
Encoding: 182 182 120
Width: 1232
GlyphClass: 1
Flags: W
LayerCount: 2
Fore
SplineSet
508 -246 m 1,0,-1
 327 -246 l 1,1,-1
 534 623 l 1,2,3
 461 623 461 623 393.5 644 c 128,-1,4
 326 665 326 665 274 705.5 c 128,-1,5
 222 746 222 746 191 806.5 c 128,-1,6
 160 867 160 867 160 946 c 0,7,8
 160 1016 160 1016 181.5 1078 c 128,-1,9
 203 1140 203 1140 240.5 1191.5 c 128,-1,10
 278 1243 278 1243 329.5 1284.5 c 128,-1,11
 381 1326 381 1326 440.5 1354.5 c 128,-1,12
 500 1383 500 1383 565 1398 c 128,-1,13
 630 1413 630 1413 695 1413 c 2,14,-1
 891 1413 l 1,15,16
 794 998 794 998 700 583 c 128,-1,17
 606 168 606 168 508 -246 c 1,0,-1
855 -246 m 1,18,-1
 672 -246 l 1,19,20
 769 171 769 171 863.5 583.5 c 128,-1,21
 958 996 958 996 1055 1413 c 1,22,-1
 1238 1413 l 1,23,24
 1141 996 1141 996 1046.5 583.5 c 128,-1,25
 952 171 952 171 855 -246 c 1,18,-1
EndSplineSet
EndChar

StartChar: periodcentered
Encoding: 183 183 121
Width: 605
GlyphClass: 1
Flags: W
LayerCount: 2
Fore
SplineSet
345 636 m 0,0,1
 315 636 315 636 290.5 647 c 128,-1,2
 266 658 266 658 249 677 c 128,-1,3
 232 696 232 696 223 721.5 c 128,-1,4
 214 747 214 747 214 776 c 0,5,6
 214 812 214 812 228 843.5 c 128,-1,7
 242 875 242 875 266.5 898.5 c 128,-1,8
 291 922 291 922 323 935 c 128,-1,9
 355 948 355 948 391 948 c 0,10,11
 420 948 420 948 444.5 937.5 c 128,-1,12
 469 927 469 927 487 909 c 128,-1,13
 505 891 505 891 515 866 c 128,-1,14
 525 841 525 841 525 812 c 0,15,16
 525 775 525 775 510.5 743 c 128,-1,17
 496 711 496 711 471.5 687 c 128,-1,18
 447 663 447 663 414 649.5 c 128,-1,19
 381 636 381 636 345 636 c 0,0,1
EndSplineSet
EndChar

StartChar: cedilla
Encoding: 184 184 122
Width: 547
GlyphClass: 4
Flags: W
AnchorPoint: "Anchor-3" 37 -500 basemark 0
LayerCount: 2
Fore
SplineSet
19 -528 m 0,0,1
 -13 -528 -13 -528 -42.5 -517.5 c 128,-1,2
 -72 -507 -72 -507 -96 -488.5 c 128,-1,3
 -120 -470 -120 -470 -137.5 -444 c 128,-1,4
 -155 -418 -155 -418 -162 -386 c 1,5,-1
 -10 -349 l 1,6,7
 -6 -365 -6 -365 5.5 -371 c 128,-1,8
 17 -377 17 -377 32 -377 c 0,9,10
 52 -377 52 -377 72.5 -367.5 c 128,-1,11
 93 -358 93 -358 109.5 -343 c 128,-1,12
 126 -328 126 -328 136 -308.5 c 128,-1,13
 146 -289 146 -289 146 -268 c 256,14,15
 146 -247 146 -247 133 -234 c 128,-1,16
 120 -221 120 -221 99 -213.5 c 128,-1,17
 78 -206 78 -206 52.5 -203 c 128,-1,18
 27 -200 27 -200 8.5 -199.5 c 128,-1,19
 -10 -199 -10 -199 -21 -199 c 2,20,-1
 -74 -200 l 1,21,-1
 93 -3 l 1,22,-1
 251 -3 l 1,23,-1
 141 -97 l 1,24,25
 211 -109 211 -109 253 -150 c 128,-1,26
 295 -191 295 -191 295 -265 c 0,27,28
 295 -320 295 -320 272 -368 c 128,-1,29
 249 -416 249 -416 210.5 -451.5 c 128,-1,30
 172 -487 172 -487 122.5 -507.5 c 128,-1,31
 73 -528 73 -528 19 -528 c 0,0,1
EndSplineSet
EndChar

StartChar: onesuperior
Encoding: 185 185 123
Width: 862
GlyphClass: 2
Flags: W
LayerCount: 2
Fore
SplineSet
506 486 m 1,0,-1
 295 486 l 1,1,2
 340 653 340 653 385.5 817.5 c 128,-1,3
 431 982 431 982 476 1149 c 1,4,-1
 240 1149 l 1,5,-1
 308 1308 l 1,6,7
 355 1308 355 1308 376.5 1307.5 c 128,-1,8
 398 1307 398 1307 401 1307 c 0,9,10
 436 1307 436 1307 465 1316 c 128,-1,11
 494 1325 494 1325 516 1350.5 c 128,-1,12
 538 1376 538 1376 551 1428 c 1,13,-1
 762 1428 l 1,14,-1
 506 486 l 1,0,-1
EndSplineSet
EndChar

StartChar: ordmasculine
Encoding: 186 186 124
Width: 811
GlyphClass: 2
Flags: W
LayerCount: 2
Fore
SplineSet
466 711 m 0,0,1
 401 711 401 711 346 731.5 c 128,-1,2
 291 752 291 752 251.5 790.5 c 128,-1,3
 212 829 212 829 190 882.5 c 128,-1,4
 168 936 168 936 168 1002 c 0,5,6
 168 1089 168 1089 203 1167.5 c 128,-1,7
 238 1246 238 1246 297.5 1305 c 128,-1,8
 357 1364 357 1364 435.5 1399 c 128,-1,9
 514 1434 514 1434 601 1434 c 0,10,11
 668 1434 668 1434 723.5 1414 c 128,-1,12
 779 1394 779 1394 819 1356.5 c 128,-1,13
 859 1319 859 1319 881.5 1265 c 128,-1,14
 904 1211 904 1211 904 1143 c 0,15,16
 904 1079 904 1079 884 1019 c 128,-1,17
 864 959 864 959 828.5 907 c 128,-1,18
 793 855 793 855 745 813.5 c 128,-1,19
 697 772 697 772 640 746 c 0,20,21
 598 726 598 726 555 718.5 c 128,-1,22
 512 711 512 711 466 711 c 0,0,1
477 867 m 0,23,24
 531 867 531 867 572.5 885 c 128,-1,25
 614 903 614 903 644 934.5 c 128,-1,26
 674 966 674 966 694 1008.5 c 128,-1,27
 714 1051 714 1051 726 1099 c 0,28,29
 734 1131 734 1131 734 1160 c 0,30,31
 734 1225 734 1225 695 1252 c 128,-1,32
 656 1279 656 1279 596 1279 c 256,33,34
 536 1279 536 1279 488.5 1254.5 c 128,-1,35
 441 1230 441 1230 408 1189.5 c 128,-1,36
 375 1149 375 1149 357 1097 c 128,-1,37
 339 1045 339 1045 339 989 c 0,38,39
 339 922 339 922 376.5 894.5 c 128,-1,40
 414 867 414 867 477 867 c 0,23,24
EndSplineSet
EndChar

StartChar: guillemotright
Encoding: 187 187 125
Width: 951
GlyphClass: 1
Flags: W
LayerCount: 2
Fore
SplineSet
59 147 m 1,0,-1
 108 373 l 1,1,-1
 317 509 l 1,2,-1
 176 649 l 1,3,-1
 222 875 l 1,4,-1
 587 509 l 1,5,-1
 59 147 l 1,0,-1
421 147 m 1,6,-1
 470 373 l 1,7,-1
 679 509 l 1,8,-1
 539 649 l 1,9,-1
 585 875 l 1,10,-1
 949 509 l 1,11,-1
 421 147 l 1,6,-1
EndSplineSet
EndChar

StartChar: questiondown
Encoding: 191 191 126
Width: 982
GlyphClass: 1
Flags: W
LayerCount: 2
Fore
SplineSet
693 713 m 1,0,-1
 405 713 l 1,1,2
 422 785 422 785 437 856 c 128,-1,3
 452 927 452 927 469 999 c 1,4,-1
 758 999 l 1,5,6
 742 927 742 927 726 856 c 128,-1,7
 710 785 710 785 693 713 c 1,0,-1
309 -434 m 0,8,9
 233 -434 233 -434 162.5 -414.5 c 128,-1,10
 92 -395 92 -395 38 -354.5 c 128,-1,11
 -16 -314 -16 -314 -48.5 -252.5 c 128,-1,12
 -81 -191 -81 -191 -81 -107 c 0,13,14
 -81 -42 -81 -42 -64.5 19.5 c 128,-1,15
 -48 81 -48 81 -16.5 135.5 c 128,-1,16
 15 190 15 190 60.5 235 c 128,-1,17
 106 280 106 280 163 311 c 0,18,19
 183 322 183 322 212 334.5 c 128,-1,20
 241 347 241 347 270.5 361 c 128,-1,21
 300 375 300 375 325.5 391 c 128,-1,22
 351 407 351 407 364 423 c 0,23,24
 372 434 372 434 378 451.5 c 128,-1,25
 384 469 384 469 388.5 489 c 128,-1,26
 393 509 393 509 396.5 528 c 128,-1,27
 400 547 400 547 403 560 c 1,28,-1
 632 560 l 1,29,30
 623 517 623 517 614 473.5 c 128,-1,31
 605 430 605 430 591 388.5 c 128,-1,32
 577 347 577 347 556 309.5 c 128,-1,33
 535 272 535 272 502 240 c 0,34,35
 474 213 474 213 436.5 191 c 128,-1,36
 399 169 399 169 360 148.5 c 128,-1,37
 321 128 321 128 283 105.5 c 128,-1,38
 245 83 245 83 215.5 54.5 c 128,-1,39
 186 26 186 26 167.5 -10 c 128,-1,40
 149 -46 149 -46 149 -95 c 0,41,42
 149 -132 149 -132 165 -154.5 c 128,-1,43
 181 -177 181 -177 206.5 -189 c 128,-1,44
 232 -201 232 -201 263 -205 c 128,-1,45
 294 -209 294 -209 323 -209 c 0,46,47
 373 -209 373 -209 418.5 -195 c 128,-1,48
 464 -181 464 -181 501.5 -154.5 c 128,-1,49
 539 -128 539 -128 565.5 -89 c 128,-1,50
 592 -50 592 -50 604 0 c 1,51,-1
 837 -23 l 1,52,53
 816 -117 816 -117 766.5 -193 c 128,-1,54
 717 -269 717 -269 647 -322.5 c 128,-1,55
 577 -376 577 -376 490.5 -405 c 128,-1,56
 404 -434 404 -434 309 -434 c 0,8,9
EndSplineSet
EndChar

StartChar: Aring
Encoding: 197 197 132
Width: 1351
GlyphClass: 1
Flags: W
LayerCount: 2
Fore
SplineSet
1240 0 m 1,0,-1
 942 0 l 1,1,-1
 903 307 l 1,2,-1
 372 307 l 1,3,4
 326 230 326 230 281 154 c 128,-1,5
 236 78 236 78 191 0 c 1,6,-1
 -121 0 l 1,7,-1
 730 1328 l 1,8,9
 698 1357 698 1357 684.5 1397.5 c 128,-1,10
 671 1438 671 1438 671 1480 c 0,11,12
 671 1534 671 1534 694 1583.5 c 128,-1,13
 717 1633 717 1633 756 1670.5 c 128,-1,14
 795 1708 795 1708 845 1730 c 128,-1,15
 895 1752 895 1752 949 1752 c 0,16,17
 993 1752 993 1752 1030 1736.5 c 128,-1,18
 1067 1721 1067 1721 1094 1694 c 128,-1,19
 1121 1667 1121 1667 1136.5 1630 c 128,-1,20
 1152 1593 1152 1593 1152 1549 c 0,21,22
 1152 1473 1152 1473 1113.5 1412 c 128,-1,23
 1075 1351 1075 1351 1010 1313 c 1,24,-1
 1240 0 l 1,0,-1
890 1398 m 0,25,26
 918 1398 918 1398 943 1410 c 128,-1,27
 968 1422 968 1422 986.5 1442 c 128,-1,28
 1005 1462 1005 1462 1016 1488 c 128,-1,29
 1027 1514 1027 1514 1027 1541 c 0,30,31
 1027 1586 1027 1586 1000.5 1606.5 c 128,-1,32
 974 1627 974 1627 932 1627 c 0,33,34
 902 1627 902 1627 877.5 1616 c 128,-1,35
 853 1605 853 1605 835 1586 c 128,-1,36
 817 1567 817 1567 807 1541.5 c 128,-1,37
 797 1516 797 1516 797 1487 c 0,38,39
 797 1446 797 1446 823.5 1422 c 128,-1,40
 850 1398 850 1398 890 1398 c 0,25,26
864 546 m 1,41,-1
 801 1003 l 1,42,-1
 526 546 l 1,43,-1
 864 546 l 1,41,-1
EndSplineSet
Position2: "'cpsp' Capital Spacing lookup 0 per glyph data 0" dx=5 dy=0 dh=10 dv=0
EndChar

StartChar: AE
Encoding: 198 198 133
Width: 1868
GlyphClass: 1
Flags: W
LayerCount: 2
Fore
SplineSet
1656 0 m 1,0,-1
 652 0 l 1,1,-1
 721 307 l 1,2,-1
 347 307 l 1,3,-1
 168 0 l 1,4,-1
 -121 0 l 1,5,-1
 773 1413 l 1,6,-1
 1982 1413 l 1,7,-1
 1927 1174 l 1,8,-1
 1179 1174 l 1,9,-1
 1098 825 l 1,10,-1
 1758 825 l 1,11,-1
 1703 588 l 1,12,-1
 1043 588 l 1,13,-1
 964 245 l 1,14,-1
 1712 245 l 1,15,-1
 1656 0 l 1,0,-1
769 521 m 1,16,-1
 921 1174 l 1,17,-1
 897 1174 l 1,18,-1
 486 521 l 1,19,-1
 769 521 l 1,16,-1
EndSplineSet
Position2: "'cpsp' Capital Spacing lookup 0 per glyph data 0" dx=5 dy=0 dh=10 dv=0
EndChar

StartChar: Eth
Encoding: 208 208 143
Width: 1430
GlyphClass: 1
Flags: W
LayerCount: 2
Fore
SplineSet
497 0 m 2,0,-1
 81 0 l 1,1,-1
 222 610 l 1,2,-1
 110 610 l 1,3,4
 122 661 122 661 133 712.5 c 128,-1,5
 144 764 144 764 155 816 c 1,6,-1
 267 816 l 1,7,-1
 407 1413 l 1,8,-1
 811 1413 l 2,9,10
 940 1413 940 1413 1053 1385 c 128,-1,11
 1166 1357 1166 1357 1250 1295 c 128,-1,12
 1334 1233 1334 1233 1382.5 1133.5 c 128,-1,13
 1431 1034 1431 1034 1431 891 c 0,14,15
 1431 816 1431 816 1418.5 743.5 c 128,-1,16
 1406 671 1406 671 1383 600 c 0,17,18
 1334 446 1334 446 1248 333 c 128,-1,19
 1162 220 1162 220 1047.5 146 c 128,-1,20
 933 72 933 72 793.5 36 c 128,-1,21
 654 0 654 0 497 0 c 2,0,-1
513 241 m 2,22,23
 636 241 636 241 742 271.5 c 128,-1,24
 848 302 848 302 931.5 363 c 128,-1,25
 1015 424 1015 424 1073.5 516 c 128,-1,26
 1132 608 1132 608 1159 731 c 0,27,28
 1167 768 1167 768 1172.5 805.5 c 128,-1,29
 1178 843 1178 843 1178 881 c 0,30,31
 1178 974 1178 974 1142 1031 c 128,-1,32
 1106 1088 1106 1088 1047.5 1119.5 c 128,-1,33
 989 1151 989 1151 915 1162 c 128,-1,34
 841 1173 841 1173 765 1173 c 2,35,-1
 606 1173 l 1,36,-1
 524 816 l 1,37,-1
 905 816 l 1,38,39
 893 765 893 765 882 713.5 c 128,-1,40
 871 662 871 662 860 610 c 1,41,-1
 479 610 l 1,42,-1
 392 241 l 1,43,-1
 513 241 l 2,22,23
EndSplineSet
Position2: "'cpsp' Capital Spacing lookup 0 per glyph data 0" dx=5 dy=0 dh=10 dv=0
EndChar

StartChar: multiply
Encoding: 215 215 150
Width: 1083
GlyphClass: 1
Flags: W
LayerCount: 2
Fore
SplineSet
217 157 m 1,0,-1
 73 301 l 1,1,-1
 394 625 l 1,2,-1
 101 918 l 1,3,-1
 248 1065 l 1,4,-1
 541 772 l 1,5,-1
 864 1092 l 1,6,-1
 1008 948 l 1,7,-1
 688 625 l 1,8,-1
 981 332 l 1,9,-1
 834 185 l 1,10,-1
 541 478 l 1,11,-1
 217 157 l 1,0,-1
EndSplineSet
EndChar

StartChar: Oslash
Encoding: 216 216 151
Width: 1529
GlyphClass: 1
Flags: W
LayerCount: 2
Fore
SplineSet
658 -20 m 0,0,1
 579 -20 579 -20 501.5 -6 c 128,-1,2
 424 8 424 8 352 43 c 1,3,-1
 315 0 l 1,4,-1
 108 0 l 1,5,6
 137 35 137 35 167 69 c 128,-1,7
 197 103 197 103 226 138 c 1,8,9
 155 217 155 217 124.5 314.5 c 128,-1,10
 94 412 94 412 94 516 c 0,11,12
 94 641 94 641 126 762 c 128,-1,13
 158 883 158 883 219 991 c 128,-1,14
 280 1099 280 1099 367 1188 c 128,-1,15
 454 1277 454 1277 565 1338 c 0,16,17
 658 1389 658 1389 759.5 1411.5 c 128,-1,18
 861 1434 861 1434 967 1434 c 0,19,20
 1046 1434 1046 1434 1124 1420 c 128,-1,21
 1202 1406 1202 1406 1273 1369 c 1,22,-1
 1310 1413 l 1,23,-1
 1513 1413 l 1,24,-1
 1397 1277 l 1,25,26
 1434 1238 1434 1238 1459.5 1193 c 128,-1,27
 1485 1148 1485 1148 1500.5 1099.5 c 128,-1,28
 1516 1051 1516 1051 1522.5 999 c 128,-1,29
 1529 947 1529 947 1529 895 c 0,30,31
 1529 820 1529 820 1516 746.5 c 128,-1,32
 1503 673 1503 673 1480 602 c 0,33,34
 1433 460 1433 460 1356 345 c 128,-1,35
 1279 230 1279 230 1175 149 c 128,-1,36
 1071 68 1071 68 941 24 c 128,-1,37
 811 -20 811 -20 658 -20 c 0,0,1
420 369 m 1,38,39
 590 566 590 566 756.5 761 c 128,-1,40
 923 956 923 956 1091 1154 c 1,41,42
 1053 1172 1053 1172 1011.5 1177.5 c 128,-1,43
 970 1183 970 1183 928 1183 c 0,44,45
 819 1183 819 1183 733 1141 c 128,-1,46
 647 1099 647 1099 583 1029 c 128,-1,47
 519 959 519 959 477 868.5 c 128,-1,48
 435 778 435 778 413 681 c 0,49,50
 404 641 404 641 398.5 601 c 128,-1,51
 393 561 393 561 393 519 c 0,52,53
 393 481 393 481 399 442.5 c 128,-1,54
 405 404 405 404 420 369 c 1,38,39
696 230 m 0,55,56
 806 230 806 230 891.5 271.5 c 128,-1,57
 977 313 977 313 1040.5 383 c 128,-1,58
 1104 453 1104 453 1146.5 543.5 c 128,-1,59
 1189 634 1189 634 1211 731 c 0,60,61
 1220 772 1220 772 1225.5 812.5 c 128,-1,62
 1231 853 1231 853 1231 895 c 0,63,64
 1231 933 1231 933 1225.5 972 c 128,-1,65
 1220 1011 1220 1011 1204 1046 c 1,66,67
 1035 848 1035 848 869 652 c 128,-1,68
 703 456 703 456 533 258 c 1,69,70
 571 241 571 241 612.5 235.5 c 128,-1,71
 654 230 654 230 696 230 c 0,55,56
EndSplineSet
Position2: "'cpsp' Capital Spacing lookup 0 per glyph data 0" dx=5 dy=0 dh=10 dv=0
EndChar

StartChar: Thorn
Encoding: 222 222 157
Width: 1144
GlyphClass: 1
Flags: W
LayerCount: 2
Fore
SplineSet
311 0 m 1,0,-1
 58 0 l 1,1,-1
 383 1413 l 1,2,-1
 637 1413 l 1,3,-1
 593 1221 l 1,4,-1
 843 1221 l 2,5,6
 919 1221 919 1221 984 1205 c 128,-1,7
 1049 1189 1049 1189 1097 1153 c 128,-1,8
 1145 1117 1145 1117 1172.5 1059 c 128,-1,9
 1200 1001 1200 1001 1200 917 c 0,10,11
 1200 844 1200 844 1182 775.5 c 128,-1,12
 1164 707 1164 707 1129 647.5 c 128,-1,13
 1094 588 1094 588 1043 539.5 c 128,-1,14
 992 491 992 491 926 457 c 0,15,16
 850 418 850 418 765.5 402 c 128,-1,17
 681 386 681 386 596 386 c 2,18,-1
 399 386 l 1,19,-1
 311 0 l 1,0,-1
635 617 m 2,20,21
 692 617 692 617 741.5 629 c 128,-1,22
 791 641 791 641 831 667.5 c 128,-1,23
 871 694 871 694 899 735.5 c 128,-1,24
 927 777 927 777 940 835 c 0,25,26
 946 859 946 859 946 883 c 0,27,28
 946 925 946 925 926 950 c 128,-1,29
 906 975 906 975 875 988 c 128,-1,30
 844 1001 844 1001 807.5 1004.5 c 128,-1,31
 771 1008 771 1008 739 1008 c 2,32,-1
 545 1008 l 1,33,-1
 452 617 l 1,34,-1
 635 617 l 2,20,21
EndSplineSet
Position2: "'cpsp' Capital Spacing lookup 0 per glyph data 0" dx=5 dy=0 dh=10 dv=0
EndChar

StartChar: germandbls
Encoding: 223 223 158
Width: 1210
GlyphClass: 1
Flags: W
LayerCount: 2
Fore
SplineSet
646 -18 m 0,0,1
 598 -18 598 -18 550.5 -9.5 c 128,-1,2
 503 -1 503 -1 458 14 c 1,3,-1
 596 232 l 1,4,5
 614 227 614 227 632.5 226 c 128,-1,6
 651 225 651 225 670 225 c 0,7,8
 702 225 702 225 732 235.5 c 128,-1,9
 762 246 762 246 785 265 c 128,-1,10
 808 284 808 284 822.5 311 c 128,-1,11
 837 338 837 338 837 372 c 0,12,13
 837 399 837 399 822.5 423 c 128,-1,14
 808 447 808 447 786 471.5 c 128,-1,15
 764 496 764 496 738.5 521.5 c 128,-1,16
 713 547 713 547 691 576.5 c 128,-1,17
 669 606 669 606 654.5 641.5 c 128,-1,18
 640 677 640 677 640 720 c 0,19,20
 640 775 640 775 656 812.5 c 128,-1,21
 672 850 672 850 697 877 c 128,-1,22
 722 904 722 904 753.5 924 c 128,-1,23
 785 944 785 944 816 964 c 128,-1,24
 847 984 847 984 875.5 1007.5 c 128,-1,25
 904 1031 904 1031 922 1065 c 0,26,27
 928 1077 928 1077 932.5 1089 c 128,-1,28
 937 1101 937 1101 937 1115 c 0,29,30
 937 1143 937 1143 923.5 1160 c 128,-1,31
 910 1177 910 1177 889 1186.5 c 128,-1,32
 868 1196 868 1196 843.5 1199 c 128,-1,33
 819 1202 819 1202 797 1202 c 0,34,35
 738 1202 738 1202 694 1187 c 128,-1,36
 650 1172 650 1172 619 1142.5 c 128,-1,37
 588 1113 588 1113 567.5 1071 c 128,-1,38
 547 1029 547 1029 534 975 c 0,39,40
 479 730 479 730 422 487.5 c 128,-1,41
 365 245 365 245 307 0 c 1,42,-1
 26 0 l 1,43,44
 78 217 78 217 128 432 c 128,-1,45
 178 647 178 647 229 864 c 0,46,47
 247 943 247 943 270.5 1016 c 128,-1,48
 294 1089 294 1089 327.5 1152.5 c 128,-1,49
 361 1216 361 1216 404.5 1268 c 128,-1,50
 448 1320 448 1320 506.5 1357 c 128,-1,51
 565 1394 565 1394 640.5 1414 c 128,-1,52
 716 1434 716 1434 812 1434 c 0,53,54
 884 1434 884 1434 953 1413 c 128,-1,55
 1022 1392 1022 1392 1075.5 1351 c 128,-1,56
 1129 1310 1129 1310 1162.5 1250.5 c 128,-1,57
 1196 1191 1196 1191 1196 1114 c 256,58,59
 1196 1037 1196 1037 1172.5 983 c 128,-1,60
 1149 929 1149 929 1114 892 c 128,-1,61
 1079 855 1079 855 1038.5 831 c 128,-1,62
 998 807 998 807 963 789 c 128,-1,63
 928 771 928 771 904.5 755 c 128,-1,64
 881 739 881 739 881 719 c 0,65,66
 881 705 881 705 898 689.5 c 128,-1,67
 915 674 915 674 940 655 c 128,-1,68
 965 636 965 636 994.5 612 c 128,-1,69
 1024 588 1024 588 1049 555.5 c 128,-1,70
 1074 523 1074 523 1091 480.5 c 128,-1,71
 1108 438 1108 438 1108 384 c 0,72,73
 1108 292 1108 292 1068 218 c 128,-1,74
 1028 144 1028 144 963 91.5 c 128,-1,75
 898 39 898 39 815.5 10.5 c 128,-1,76
 733 -18 733 -18 646 -18 c 0,0,1
EndSplineSet
EndChar

StartChar: ae
Encoding: 230 230 165
Width: 1723
GlyphClass: 1
Flags: W
LayerCount: 2
Fore
SplineSet
301 -20 m 0,0,1
 239 -20 239 -20 182 -2.5 c 128,-1,2
 125 15 125 15 81 49.5 c 128,-1,3
 37 84 37 84 10.5 135.5 c 128,-1,4
 -16 187 -16 187 -16 254 c 0,5,6
 -16 322 -16 322 9 385 c 0,7,8
 38 457 38 457 88 503 c 128,-1,9
 138 549 138 549 200.5 576 c 128,-1,10
 263 603 263 603 334 613 c 128,-1,11
 405 623 405 623 475 623 c 2,12,-1
 749 623 l 1,13,14
 757 664 757 664 757 700 c 0,15,16
 757 741 757 741 742.5 765.5 c 128,-1,17
 728 790 728 790 704 802.5 c 128,-1,18
 680 815 680 815 650.5 818.5 c 128,-1,19
 621 822 621 822 590 822 c 0,20,21
 552 822 552 822 513 809.5 c 128,-1,22
 474 797 474 797 439 776.5 c 128,-1,23
 404 756 404 756 372 730 c 128,-1,24
 340 704 340 704 313 675 c 1,25,26
 273 720 273 720 232 763 c 128,-1,27
 191 806 191 806 150 850 c 1,28,29
 250 951 250 951 365.5 1003.5 c 128,-1,30
 481 1056 481 1056 628 1056 c 0,31,32
 675 1056 675 1056 721 1047 c 128,-1,33
 767 1038 767 1038 808.5 1019.5 c 128,-1,34
 850 1001 850 1001 885 971.5 c 128,-1,35
 920 942 920 942 943 900 c 1,36,37
 1020 969 1020 969 1112 1010.5 c 128,-1,38
 1204 1052 1204 1052 1310 1052 c 0,39,40
 1494 1052 1494 1052 1592 956.5 c 128,-1,41
 1690 861 1690 861 1690 674 c 0,42,43
 1690 652 1690 652 1687.5 617 c 128,-1,44
 1685 582 1685 582 1679 546 c 128,-1,45
 1673 510 1673 510 1664 478.5 c 128,-1,46
 1655 447 1655 447 1641 430 c 1,47,-1
 934 430 l 1,48,49
 938 378 938 378 949 343 c 128,-1,50
 960 308 960 308 982 286 c 128,-1,51
 1004 264 1004 264 1037.5 254.5 c 128,-1,52
 1071 245 1071 245 1121 245 c 0,53,54
 1198 245 1198 245 1269.5 269.5 c 128,-1,55
 1341 294 1341 294 1397 353 c 1,56,-1
 1558 157 l 1,57,58
 1453 69 1453 69 1340 28.5 c 128,-1,59
 1227 -12 1227 -12 1088 -12 c 0,60,61
 1044 -12 1044 -12 997.5 -6.5 c 128,-1,62
 951 -1 951 -1 908 13.5 c 128,-1,63
 865 28 865 28 827.5 52.5 c 128,-1,64
 790 77 790 77 763 115 c 1,65,66
 660 46 660 46 542.5 13 c 128,-1,67
 425 -20 425 -20 301 -20 c 0,0,1
1433 623 m 1,68,69
 1433 674 1433 674 1425.5 712 c 128,-1,70
 1418 750 1418 750 1398.5 774.5 c 128,-1,71
 1379 799 1379 799 1346 811.5 c 128,-1,72
 1313 824 1313 824 1262 824 c 0,73,74
 1214 824 1214 824 1173 809.5 c 128,-1,75
 1132 795 1132 795 1097.5 768 c 128,-1,76
 1063 741 1063 741 1035 704.5 c 128,-1,77
 1007 668 1007 668 986 623 c 1,78,-1
 1433 623 l 1,68,69
368 202 m 0,79,80
 414 202 414 202 464 221.5 c 128,-1,81
 514 241 514 241 560.5 273.5 c 128,-1,82
 607 306 607 306 644 347 c 128,-1,83
 681 388 681 388 701 430 c 1,84,-1
 453 430 l 2,85,86
 424 430 424 430 386 419 c 128,-1,87
 348 408 348 408 314 387.5 c 128,-1,88
 280 367 280 367 256.5 336.5 c 128,-1,89
 233 306 233 306 233 270 c 1,90,-1
 230 270 l 1,91,-1
 229 261 l 2,92,93
 229 239 229 239 245 226.5 c 128,-1,94
 261 214 261 214 283.5 209 c 128,-1,95
 306 204 306 204 329 203 c 128,-1,96
 352 202 352 202 368 202 c 0,79,80
EndSplineSet
EndChar

StartChar: eth
Encoding: 240 240 175
Width: 1205
GlyphClass: 1
Flags: W
LayerCount: 2
Fore
SplineSet
494 -16 m 0,0,1
 393 -16 393 -16 309 11 c 128,-1,2
 225 38 225 38 164.5 92 c 128,-1,3
 104 146 104 146 70 227 c 128,-1,4
 36 308 36 308 36 415 c 0,5,6
 36 520 36 520 69 619 c 128,-1,7
 102 718 102 718 161.5 800.5 c 128,-1,8
 221 883 221 883 304 945 c 128,-1,9
 387 1007 387 1007 487 1037 c 0,10,11
 530 1049 530 1049 573 1054.5 c 128,-1,12
 616 1060 616 1060 661 1060 c 0,13,14
 701 1060 701 1060 736.5 1055 c 128,-1,15
 772 1050 772 1050 804 1038.5 c 128,-1,16
 836 1027 836 1027 866.5 1008.5 c 128,-1,17
 897 990 897 990 925 962 c 1,18,19
 917 1067 917 1067 862.5 1135.5 c 128,-1,20
 808 1204 808 1204 705 1249 c 1,21,-1
 595 1141 l 1,22,-1
 496 1204 l 1,23,-1
 587 1293 l 1,24,25
 557 1298 557 1298 527 1307 c 128,-1,26
 497 1316 497 1316 468 1325 c 1,27,-1
 632 1514 l 1,28,29
 665 1503 665 1503 698 1489.5 c 128,-1,30
 731 1476 731 1476 763 1461 c 1,31,-1
 863 1558 l 1,32,-1
 960 1501 l 1,33,-1
 868 1407 l 1,34,35
 1023 1303 1023 1303 1099.5 1163 c 128,-1,36
 1176 1023 1176 1023 1176 833 c 0,37,38
 1176 764 1176 764 1166.5 690 c 128,-1,39
 1157 616 1157 616 1137 541.5 c 128,-1,40
 1117 467 1117 467 1087 395 c 128,-1,41
 1057 323 1057 323 1016 259.5 c 128,-1,42
 975 196 975 196 922.5 144 c 128,-1,43
 870 92 870 92 805 58 c 0,44,45
 732 20 732 20 654.5 2 c 128,-1,46
 577 -16 577 -16 494 -16 c 0,0,1
518 235 m 0,47,48
 593 235 593 235 659 270.5 c 128,-1,49
 725 306 725 306 773 362.5 c 128,-1,50
 821 419 821 419 849 492 c 128,-1,51
 877 565 877 565 877 639 c 0,52,53
 877 735 877 735 820.5 786 c 128,-1,54
 764 837 764 837 674 837 c 0,55,56
 597 837 597 837 529.5 802.5 c 128,-1,57
 462 768 462 768 412.5 711.5 c 128,-1,58
 363 655 363 655 333.5 582 c 128,-1,59
 304 509 304 509 304 432 c 0,60,61
 304 381 304 381 320 343.5 c 128,-1,62
 336 306 336 306 364.5 281.5 c 128,-1,63
 393 257 393 257 432 246 c 128,-1,64
 471 235 471 235 518 235 c 0,47,48
EndSplineSet
EndChar

StartChar: divide
Encoding: 247 247 182
Width: 1359
GlyphClass: 1
Flags: W
LayerCount: 2
Fore
SplineSet
825 812 m 1,0,-1
 537 812 l 1,1,-1
 537 1098 l 1,2,-1
 825 1098 l 1,3,-1
 825 812 l 1,0,-1
1292 526 m 1,4,-1
 70 526 l 1,5,-1
 70 732 l 1,6,-1
 1292 732 l 1,7,-1
 1292 526 l 1,4,-1
825 143 m 1,8,-1
 537 143 l 1,9,-1
 537 431 l 1,10,-1
 825 431 l 1,11,-1
 825 143 l 1,8,-1
EndSplineSet
EndChar

StartChar: oslash
Encoding: 248 248 183
Width: 1149
GlyphClass: 1
Flags: W
LayerCount: 2
Fore
SplineSet
465 -20 m 0,0,1
 407 -20 407 -20 348.5 -9 c 128,-1,2
 290 2 290 2 237 28 c 1,3,-1
 212 -2 l 1,4,-1
 66 -2 l 1,5,-1
 146 92 l 1,6,7
 86 155 86 155 58 235.5 c 128,-1,8
 30 316 30 316 30 403 c 0,9,10
 30 489 30 489 54 569.5 c 128,-1,11
 78 650 78 650 120.5 722 c 128,-1,12
 163 794 163 794 222 854 c 128,-1,13
 281 914 281 914 352 958 c 0,14,15
 431 1008 431 1008 511.5 1030 c 128,-1,16
 592 1052 592 1052 685 1052 c 0,17,18
 743 1052 743 1052 800 1042 c 128,-1,19
 857 1032 857 1032 909 1006 c 1,20,-1
 938 1039 l 1,21,-1
 1082 1039 l 1,22,-1
 1000 943 l 1,23,24
 1062 880 1062 880 1090 800.5 c 128,-1,25
 1118 721 1118 721 1118 631 c 0,26,27
 1118 545 1118 545 1094.5 463 c 128,-1,28
 1071 381 1071 381 1028.5 308.5 c 128,-1,29
 986 236 986 236 926.5 175 c 128,-1,30
 867 114 867 114 795 70 c 0,31,32
 717 23 717 23 636 1.5 c 128,-1,33
 555 -20 555 -20 465 -20 c 0,0,1
322 307 m 1,34,-1
 736 805 l 1,35,36
 716 811 716 811 695.5 813.5 c 128,-1,37
 675 816 675 816 655 816 c 0,38,39
 583 816 583 816 527 789.5 c 128,-1,40
 471 763 471 763 429 718.5 c 128,-1,41
 387 674 387 674 359 614.5 c 128,-1,42
 331 555 331 555 316 488 c 0,43,44
 305 441 305 441 304 398 c 0,45,46
 304 374 304 374 308 351 c 128,-1,47
 312 328 312 328 322 307 c 1,34,-1
492 214 m 0,48,49
 563 214 563 214 619.5 241 c 128,-1,50
 676 268 676 268 718.5 313 c 128,-1,51
 761 358 761 358 789 417 c 128,-1,52
 817 476 817 476 831 542 c 0,53,54
 836 563 836 563 839.5 586 c 128,-1,55
 843 609 843 609 843 632 c 0,56,57
 843 657 843 657 839 681.5 c 128,-1,58
 835 706 835 706 823 728 c 1,59,-1
 408 227 l 1,60,61
 429 220 429 220 450 217 c 128,-1,62
 471 214 471 214 492 214 c 0,48,49
EndSplineSet
EndChar

StartChar: thorn
Encoding: 254 254 189
Width: 1196
GlyphClass: 1
Flags: W
LayerCount: 2
Fore
SplineSet
186 -438 m 1,0,-1
 -83 -438 l 1,1,-1
 362 1413 l 1,2,-1
 631 1413 l 1,3,4
 602 1306 602 1306 573 1200.5 c 128,-1,5
 544 1095 544 1095 514 988 c 1,6,7
 579 1027 579 1027 646 1043.5 c 128,-1,8
 713 1060 713 1060 790 1060 c 0,9,10
 881 1060 881 1060 950 1031 c 128,-1,11
 1019 1002 1019 1002 1065 949.5 c 128,-1,12
 1111 897 1111 897 1134 824 c 128,-1,13
 1157 751 1157 751 1157 661 c 0,14,15
 1157 582 1157 582 1138.5 501 c 128,-1,16
 1120 420 1120 420 1085.5 344.5 c 128,-1,17
 1051 269 1051 269 1001 202.5 c 128,-1,18
 951 136 951 136 888 86.5 c 128,-1,19
 825 37 825 37 750 8.5 c 128,-1,20
 675 -20 675 -20 590 -20 c 2,21,-1
 571 -20 l 2,22,23
 500 -20 500 -20 433 1.5 c 128,-1,24
 366 23 366 23 313 69 c 1,25,26
 282 -59 282 -59 249.5 -184.5 c 128,-1,27
 217 -310 217 -310 186 -438 c 1,0,-1
560 217 m 0,28,29
 632 217 632 217 687 244.5 c 128,-1,30
 742 272 742 272 783 317.5 c 128,-1,31
 824 363 824 363 851.5 423 c 128,-1,32
 879 483 879 483 894 547 c 0,33,34
 899 571 899 571 903 592.5 c 128,-1,35
 907 614 907 614 907 639 c 0,36,37
 907 732 907 732 858.5 775.5 c 128,-1,38
 810 819 810 819 723 819 c 0,39,40
 661 819 661 819 609 796.5 c 128,-1,41
 557 774 557 774 516 735.5 c 128,-1,42
 475 697 475 697 446 645.5 c 128,-1,43
 417 594 417 594 400 536 c 0,44,45
 391 503 391 503 383.5 468 c 128,-1,46
 376 433 376 433 376 399 c 0,47,48
 376 307 376 307 424.5 262 c 128,-1,49
 473 217 473 217 560 217 c 0,28,29
EndSplineSet
EndChar

StartChar: Aogonek
Encoding: 260 260 195
Width: 1355
GlyphClass: 1
Flags: W
LayerCount: 2
Fore
SplineSet
1023 -451 m 0,0,1
 983 -451 983 -451 946.5 -440 c 128,-1,2
 910 -429 910 -429 883 -406.5 c 128,-1,3
 856 -384 856 -384 840 -351.5 c 128,-1,4
 824 -319 824 -319 824 -275 c 0,5,6
 824 -229 824 -229 840.5 -188.5 c 128,-1,7
 857 -148 857 -148 884 -113.5 c 128,-1,8
 911 -79 911 -79 946 -50.5 c 128,-1,9
 981 -22 981 -22 1018 0 c 1,10,-1
 939 0 l 1,11,-1
 900 307 l 1,12,-1
 373 307 l 1,13,-1
 193 0 l 1,14,-1
 -120 0 l 1,15,-1
 781 1413 l 1,16,-1
 993 1413 l 1,17,-1
 1241 0 l 1,18,-1
 1126 0 l 1,19,-1
 1251 -5 l 1,20,21
 1228 -12 1228 -12 1205.5 -23.5 c 128,-1,22
 1183 -35 1183 -35 1163 -47 c 0,23,24
 1135 -63 1135 -63 1103 -84.5 c 128,-1,25
 1071 -106 1071 -106 1044 -133 c 128,-1,26
 1017 -160 1017 -160 999.5 -191.5 c 128,-1,27
 982 -223 982 -223 982 -259 c 0,28,29
 982 -282 982 -282 995.5 -286 c 128,-1,30
 1009 -290 1009 -290 1028 -290 c 0,31,32
 1064 -290 1064 -290 1094.5 -270.5 c 128,-1,33
 1125 -251 1125 -251 1149 -226 c 1,34,-1
 1264 -337 l 1,35,36
 1216 -391 1216 -391 1156 -421 c 128,-1,37
 1096 -451 1096 -451 1023 -451 c 0,0,1
860 546 m 1,38,-1
 799 996 l 1,39,-1
 527 546 l 1,40,-1
 860 546 l 1,38,-1
EndSplineSet
Position2: "'cpsp' Capital Spacing lookup 0 per glyph data 0" dx=5 dy=0 dh=10 dv=0
EndChar

StartChar: dcaron
Encoding: 271 271 206
Width: 1477
GlyphClass: 1
Flags: W
LayerCount: 2
Fore
SplineSet
397 -20 m 0,0,1
 308 -20 308 -20 240.5 9.5 c 128,-1,2
 173 39 173 39 128 92 c 128,-1,3
 83 145 83 145 60.5 217.5 c 128,-1,4
 38 290 38 290 38 377 c 0,5,6
 38 474 38 474 67 575.5 c 128,-1,7
 96 677 96 677 149 767 c 128,-1,8
 202 857 202 857 277 928 c 128,-1,9
 352 999 352 999 445 1033 c 0,10,11
 485 1048 485 1048 526.5 1054 c 128,-1,12
 568 1060 568 1060 611 1060 c 0,13,14
 648 1060 648 1060 686 1053 c 128,-1,15
 724 1046 724 1046 759.5 1032 c 128,-1,16
 795 1018 795 1018 825.5 995.5 c 128,-1,17
 856 973 856 973 876 941 c 1,18,-1
 1004 1413 l 1,19,-1
 1293 1413 l 1,20,-1
 954 0 l 1,21,-1
 666 0 l 1,22,-1
 688 80 l 1,23,24
 628 25 628 25 553 2.5 c 128,-1,25
 478 -20 478 -20 397 -20 c 0,0,1
1457 979 m 1,26,-1
 1293 979 l 1,27,-1
 1529 1413 l 1,28,-1
 1814 1413 l 1,29,-1
 1457 979 l 1,26,-1
492 233 m 0,30,31
 561 233 561 233 614.5 258 c 128,-1,32
 668 283 668 283 707.5 325.5 c 128,-1,33
 747 368 747 368 773.5 425 c 128,-1,34
 800 482 800 482 814 546 c 0,35,36
 819 570 819 570 822 593 c 128,-1,37
 825 616 825 616 825 640 c 0,38,39
 825 729 825 729 780 771 c 128,-1,40
 735 813 735 813 650 813 c 0,41,42
 589 813 589 813 537 790 c 128,-1,43
 485 767 485 767 441 723 c 0,44,45
 391 673 391 673 366 617 c 128,-1,46
 341 561 341 561 327 492 c 0,47,48
 322 469 322 469 318.5 447.5 c 128,-1,49
 315 426 315 426 315 403 c 0,50,51
 315 315 315 315 363 274 c 128,-1,52
 411 233 411 233 492 233 c 0,30,31
EndSplineSet
EndChar

StartChar: Dcroat
Encoding: 272 272 207
Width: 1430
GlyphClass: 1
Flags: W
LayerCount: 2
Fore
SplineSet
497 0 m 2,0,-1
 81 0 l 1,1,-1
 222 610 l 1,2,-1
 110 610 l 1,3,4
 122 661 122 661 133 712.5 c 128,-1,5
 144 764 144 764 155 816 c 1,6,-1
 267 816 l 1,7,-1
 407 1413 l 1,8,-1
 811 1413 l 2,9,10
 940 1413 940 1413 1053 1385 c 128,-1,11
 1166 1357 1166 1357 1250 1295 c 128,-1,12
 1334 1233 1334 1233 1382.5 1133.5 c 128,-1,13
 1431 1034 1431 1034 1431 891 c 0,14,15
 1431 816 1431 816 1418.5 743.5 c 128,-1,16
 1406 671 1406 671 1383 600 c 0,17,18
 1334 446 1334 446 1248 333 c 128,-1,19
 1162 220 1162 220 1047.5 146 c 128,-1,20
 933 72 933 72 793.5 36 c 128,-1,21
 654 0 654 0 497 0 c 2,0,-1
513 241 m 2,22,23
 636 241 636 241 742 271.5 c 128,-1,24
 848 302 848 302 931.5 363 c 128,-1,25
 1015 424 1015 424 1073.5 516 c 128,-1,26
 1132 608 1132 608 1159 731 c 0,27,28
 1167 768 1167 768 1172.5 805.5 c 128,-1,29
 1178 843 1178 843 1178 881 c 0,30,31
 1178 974 1178 974 1142 1031 c 128,-1,32
 1106 1088 1106 1088 1047.5 1119.5 c 128,-1,33
 989 1151 989 1151 915 1162 c 128,-1,34
 841 1173 841 1173 765 1173 c 2,35,-1
 606 1173 l 1,36,-1
 524 816 l 1,37,-1
 905 816 l 1,38,39
 893 765 893 765 882 713.5 c 128,-1,40
 871 662 871 662 860 610 c 1,41,-1
 479 610 l 1,42,-1
 392 241 l 1,43,-1
 513 241 l 2,22,23
EndSplineSet
Position2: "'cpsp' Capital Spacing lookup 0 per glyph data 0" dx=5 dy=0 dh=10 dv=0
EndChar

StartChar: dcroat
Encoding: 273 273 208
Width: 1224
GlyphClass: 1
Flags: W
LayerCount: 2
Fore
SplineSet
398 -20 m 0,0,1
 309 -20 309 -20 242 10 c 128,-1,2
 175 40 175 40 130 93 c 128,-1,3
 85 146 85 146 61.5 219 c 128,-1,4
 38 292 38 292 38 377 c 0,5,6
 38 475 38 475 67 576.5 c 128,-1,7
 96 678 96 678 149.5 768.5 c 128,-1,8
 203 859 203 859 279 929.5 c 128,-1,9
 355 1000 355 1000 448 1034 c 0,10,11
 487 1049 487 1049 528 1054.5 c 128,-1,12
 569 1060 569 1060 611 1060 c 0,13,14
 648 1060 648 1060 686 1053 c 128,-1,15
 724 1046 724 1046 759.5 1032 c 128,-1,16
 795 1018 795 1018 825.5 995.5 c 128,-1,17
 856 973 856 973 876 941 c 1,18,-1
 933 1152 l 1,19,-1
 684 1152 l 1,20,-1
 725 1331 l 1,21,-1
 979 1331 l 1,22,23
 985 1352 985 1352 991 1372.5 c 128,-1,24
 997 1393 997 1393 1004 1413 c 1,25,-1
 1293 1413 l 1,26,-1
 1269 1331 l 1,27,-1
 1386 1331 l 1,28,-1
 1344 1152 l 1,29,-1
 1227 1152 l 1,30,-1
 954 0 l 1,31,-1
 692 0 l 1,32,-1
 701 91 l 1,33,34
 638 31 638 31 561.5 5.5 c 128,-1,35
 485 -20 485 -20 398 -20 c 0,0,1
492 233 m 0,36,37
 561 233 561 233 615 257.5 c 128,-1,38
 669 282 669 282 709 325 c 128,-1,39
 749 368 749 368 775 424.5 c 128,-1,40
 801 481 801 481 814 546 c 0,41,42
 819 570 819 570 822 592.5 c 128,-1,43
 825 615 825 615 825 640 c 0,44,45
 825 729 825 729 780 771 c 128,-1,46
 735 813 735 813 650 813 c 0,47,48
 589 813 589 813 537.5 790 c 128,-1,49
 486 767 486 767 442 724 c 0,50,51
 390 674 390 674 365.5 618 c 128,-1,52
 341 562 341 562 327 492 c 0,53,54
 322 469 322 469 318.5 447.5 c 128,-1,55
 315 426 315 426 315 403 c 0,56,57
 315 315 315 315 363 274 c 128,-1,58
 411 233 411 233 492 233 c 0,36,37
EndSplineSet
EndChar

StartChar: Eogonek
Encoding: 280 280 215
Width: 1245
GlyphClass: 1
Flags: W
LayerCount: 2
Fore
SplineSet
784 -451 m 0,0,1
 743 -451 743 -451 706.5 -440 c 128,-1,2
 670 -429 670 -429 643 -407 c 128,-1,3
 616 -385 616 -385 600.5 -352 c 128,-1,4
 585 -319 585 -319 585 -275 c 0,5,6
 585 -229 585 -229 601.5 -188.5 c 128,-1,7
 618 -148 618 -148 645 -113.5 c 128,-1,8
 672 -79 672 -79 707 -50.5 c 128,-1,9
 742 -22 742 -22 779 0 c 1,10,-1
 58 0 l 1,11,-1
 383 1413 l 1,12,-1
 1330 1413 l 1,13,-1
 1271 1150 l 1,14,-1
 607 1150 l 1,15,-1
 532 838 l 1,16,-1
 1166 838 l 1,17,-1
 1106 574 l 1,18,-1
 473 574 l 1,19,20
 455 498 455 498 438 422.5 c 128,-1,21
 421 347 421 347 404 270 c 1,22,-1
 1068 270 l 1,23,-1
 1005 0 l 1,24,-1
 887 0 l 1,25,-1
 1012 -5 l 1,26,27
 976 -16 976 -16 929.5 -41 c 128,-1,28
 883 -66 883 -66 841 -100.5 c 128,-1,29
 799 -135 799 -135 770.5 -176 c 128,-1,30
 742 -217 742 -217 742 -259 c 0,31,32
 742 -282 742 -282 756.5 -286 c 128,-1,33
 771 -290 771 -290 789 -290 c 0,34,35
 825 -290 825 -290 855.5 -270.5 c 128,-1,36
 886 -251 886 -251 910 -226 c 1,37,-1
 1024 -337 l 1,38,39
 976 -391 976 -391 916.5 -421 c 128,-1,40
 857 -451 857 -451 784 -451 c 0,0,1
EndSplineSet
Position2: "'cpsp' Capital Spacing lookup 0 per glyph data 0" dx=5 dy=0 dh=10 dv=0
EndChar

StartChar: eogonek
Encoding: 281 281 216
Width: 1088
GlyphClass: 1
Flags: W
LayerCount: 2
Fore
SplineSet
515 -404 m 0,0,1
 473 -404 473 -404 435.5 -392.5 c 128,-1,2
 398 -381 398 -381 370.5 -358.5 c 128,-1,3
 343 -336 343 -336 327 -302 c 128,-1,4
 311 -268 311 -268 311 -223 c 0,5,6
 311 -156 311 -156 343.5 -99.5 c 128,-1,7
 376 -43 376 -43 424 0 c 1,8,9
 335 4 335 4 262.5 33 c 128,-1,10
 190 62 190 62 139 113.5 c 128,-1,11
 88 165 88 165 60.5 238.5 c 128,-1,12
 33 312 33 312 33 405 c 0,13,14
 33 489 33 489 54.5 570 c 128,-1,15
 76 651 76 651 115 723 c 128,-1,16
 154 795 154 795 209.5 855.5 c 128,-1,17
 265 916 265 916 332.5 960 c 128,-1,18
 400 1004 400 1004 479 1028 c 128,-1,19
 558 1052 558 1052 643 1052 c 0,20,21
 681 1052 681 1052 719.5 1051 c 128,-1,22
 758 1050 758 1050 796.5 1046 c 128,-1,23
 835 1042 835 1042 872 1034 c 128,-1,24
 909 1026 909 1026 943 1012 c 1,25,26
 1005 944 1005 944 1031 859 c 128,-1,27
 1057 774 1057 774 1057 683 c 0,28,29
 1057 656 1057 656 1054 622 c 128,-1,30
 1051 588 1051 588 1045 554 c 128,-1,31
 1039 520 1039 520 1030 488 c 128,-1,32
 1021 456 1021 456 1010 431 c 1,33,-1
 309 431 l 1,34,35
 311 425 311 425 311 421 c 0,36,37
 313 406 313 406 313.5 394 c 128,-1,38
 314 382 314 382 318 368 c 0,39,40
 326 338 326 338 344.5 318.5 c 128,-1,41
 363 299 363 299 386.5 288 c 128,-1,42
 410 277 410 277 437 272.5 c 128,-1,43
 464 268 464 268 492 268 c 0,44,45
 575 268 575 268 639.5 291 c 128,-1,46
 704 314 704 314 767 370 c 1,47,48
 807 322 807 322 846.5 273.5 c 128,-1,49
 886 225 886 225 925 176 c 1,50,51
 892 146 892 146 855 124.5 c 128,-1,52
 818 103 818 103 779 82 c 1,53,-1
 778 82 l 1,54,-1
 778 81 l 2,55,56
 777 80 777 80 776 80 c 0,57,58
 770 77 770 77 767 77 c 2,59,-1
 758 70 l 2,60,61
 754 69 754 69 750 66 c 128,-1,62
 746 63 746 63 742 63 c 2,63,-1
 735 59 l 2,64,65
 728 54 728 54 720.5 50.5 c 128,-1,66
 713 47 713 47 704 44 c 0,67,68
 683 35 683 35 663.5 21.5 c 128,-1,69
 644 8 644 8 625 -4 c 0,70,71
 599 -22 599 -22 571.5 -43 c 128,-1,72
 544 -64 544 -64 521 -90 c 128,-1,73
 498 -116 498 -116 483 -146 c 128,-1,74
 468 -176 468 -176 468 -211 c 0,75,76
 468 -223 468 -223 472.5 -229 c 128,-1,77
 477 -235 477 -235 483.5 -238 c 128,-1,78
 490 -241 490 -241 499 -241.5 c 128,-1,79
 508 -242 508 -242 517 -242 c 0,80,81
 554 -242 554 -242 586 -221.5 c 128,-1,82
 618 -201 618 -201 643 -176 c 1,83,-1
 762 -289 l 1,84,85
 711 -345 711 -345 652 -374.5 c 128,-1,86
 593 -404 593 -404 515 -404 c 0,0,1
797 624 m 1,87,-1
 797 658 l 2,88,89
 797 748 797 748 757 786 c 128,-1,90
 717 824 717 824 629 824 c 0,91,92
 580 824 580 824 538.5 809.5 c 128,-1,93
 497 795 497 795 463 768 c 128,-1,94
 429 741 429 741 403 704.5 c 128,-1,95
 377 668 377 668 357 624 c 1,96,-1
 797 624 l 1,87,-1
EndSplineSet
EndChar

StartChar: Hbar
Encoding: 294 294 229
Width: 1500
GlyphClass: 1
Flags: W
LayerCount: 2
Fore
SplineSet
1213 0 m 1,0,-1
 930 0 l 1,1,-1
 1061 574 l 1,2,-1
 473 574 l 1,3,-1
 341 0 l 1,4,-1
 58 0 l 1,5,-1
 296 1034 l 1,6,-1
 197 1034 l 1,7,-1
 234 1194 l 1,8,-1
 333 1194 l 1,9,-1
 383 1413 l 1,10,-1
 666 1413 l 1,11,-1
 615 1194 l 1,12,-1
 1204 1194 l 1,13,-1
 1256 1413 l 1,14,-1
 1539 1413 l 1,15,-1
 1489 1194 l 1,16,-1
 1587 1194 l 1,17,-1
 1550 1034 l 1,18,-1
 1453 1034 l 1,19,-1
 1213 0 l 1,0,-1
1121 838 m 1,20,-1
 1166 1034 l 1,21,-1
 578 1034 l 1,22,-1
 532 838 l 1,23,-1
 1121 838 l 1,20,-1
EndSplineSet
Position2: "'cpsp' Capital Spacing lookup 0 per glyph data 0" dx=5 dy=0 dh=10 dv=0
EndChar

StartChar: hbar
Encoding: 295 295 230
Width: 1209
GlyphClass: 1
Flags: W
LayerCount: 2
Fore
SplineSet
991 0 m 1,0,-1
 707 0 l 1,1,2
 732 115 732 115 757.5 227 c 128,-1,3
 783 339 783 339 809 454 c 0,4,5
 815 481 815 481 823.5 513 c 128,-1,6
 832 545 832 545 840 578.5 c 128,-1,7
 848 612 848 612 853 644 c 128,-1,8
 858 676 858 676 858 704 c 0,9,10
 858 733 858 733 850 751.5 c 128,-1,11
 842 770 842 770 827.5 781.5 c 128,-1,12
 813 793 813 793 792.5 797 c 128,-1,13
 772 801 772 801 746 801 c 0,14,15
 702 801 702 801 652 781 c 128,-1,16
 602 761 602 761 558.5 728.5 c 128,-1,17
 515 696 515 696 482.5 653 c 128,-1,18
 450 610 450 610 440 564 c 0,19,20
 409 422 409 422 377.5 282 c 128,-1,21
 346 142 346 142 314 0 c 1,22,-1
 24 0 l 1,23,-1
 287 1126 l 1,24,-1
 149 1126 l 1,25,-1
 190 1305 l 1,26,-1
 331 1305 l 1,27,-1
 362 1413 l 1,28,-1
 652 1413 l 1,29,-1
 619 1305 l 1,30,-1
 851 1305 l 1,31,-1
 809 1126 l 1,32,-1
 574 1126 l 1,33,34
 563 1080 563 1080 550 1036 c 128,-1,35
 537 992 537 992 525 946 c 1,36,37
 655 1056 655 1056 825 1056 c 0,38,39
 975 1056 975 1056 1057 972.5 c 128,-1,40
 1139 889 1139 889 1139 736 c 0,41,42
 1139 703 1139 703 1135 671 c 128,-1,43
 1131 639 1131 639 1124 607 c 2,44,-1
 991 0 l 1,0,-1
EndSplineSet
EndChar

StartChar: Iogonek
Encoding: 302 302 237
Width: 627
GlyphClass: 1
Flags: W
LayerCount: 2
Fore
SplineSet
120 -451 m 0,0,1
 80 -451 80 -451 43.5 -440 c 128,-1,2
 7 -429 7 -429 -20 -406.5 c 128,-1,3
 -47 -384 -47 -384 -63 -351.5 c 128,-1,4
 -79 -319 -79 -319 -79 -275 c 0,5,6
 -79 -229 -79 -229 -62.5 -188.5 c 128,-1,7
 -46 -148 -46 -148 -19 -113.5 c 128,-1,8
 8 -79 8 -79 43 -50.5 c 128,-1,9
 78 -22 78 -22 115 0 c 1,10,-1
 58 0 l 1,11,-1
 383 1413 l 1,12,-1
 666 1413 l 1,13,-1
 341 0 l 1,14,-1
 223 0 l 1,15,-1
 348 -5 l 1,16,17
 312 -16 312 -16 265.5 -41 c 128,-1,18
 219 -66 219 -66 177 -100.5 c 128,-1,19
 135 -135 135 -135 106.5 -176 c 128,-1,20
 78 -217 78 -217 78 -259 c 0,21,22
 78 -282 78 -282 92 -286 c 128,-1,23
 106 -290 106 -290 125 -290 c 0,24,25
 161 -290 161 -290 191.5 -270.5 c 128,-1,26
 222 -251 222 -251 246 -226 c 1,27,-1
 360 -337 l 1,28,29
 313 -393 313 -393 253 -422 c 128,-1,30
 193 -451 193 -451 120 -451 c 0,0,1
EndSplineSet
Position2: "'cpsp' Capital Spacing lookup 0 per glyph data 0" dx=5 dy=0 dh=10 dv=0
EndChar

StartChar: iogonek
Encoding: 303 303 238
Width: 543
GlyphClass: 1
Flags: W
LayerCount: 2
Fore
SplineSet
580 1178 m 1,0,-1
 287 1178 l 1,1,-1
 342 1413 l 1,2,-1
 635 1413 l 1,3,-1
 580 1178 l 1,0,-1
53 -451 m 0,4,5
 12 -451 12 -451 -25.5 -440 c 128,-1,6
 -63 -429 -63 -429 -90.5 -406.5 c 128,-1,7
 -118 -384 -118 -384 -134.5 -351.5 c 128,-1,8
 -151 -319 -151 -319 -151 -275 c 0,9,10
 -151 -229 -151 -229 -134.5 -188.5 c 128,-1,11
 -118 -148 -118 -148 -90.5 -113.5 c 128,-1,12
 -63 -79 -63 -79 -28 -50.5 c 128,-1,13
 7 -22 7 -22 44 0 c 1,14,-1
 22 0 l 1,15,-1
 260 999 l 1,16,-1
 519 999 l 1,17,-1
 281 0 l 1,18,-1
 157 0 l 1,19,-1
 287 -5 l 1,20,21
 263 -12 263 -12 239.5 -23.5 c 128,-1,22
 216 -35 216 -35 195 -47 c 0,23,24
 166 -63 166 -63 133 -84.5 c 128,-1,25
 100 -106 100 -106 71.5 -133 c 128,-1,26
 43 -160 43 -160 25 -191.5 c 128,-1,27
 7 -223 7 -223 7 -259 c 0,28,29
 7 -282 7 -282 21.5 -286 c 128,-1,30
 36 -290 36 -290 55 -290 c 0,31,32
 92 -290 92 -290 124 -270.5 c 128,-1,33
 156 -251 156 -251 181 -226 c 1,34,-1
 300 -337 l 1,35,36
 251 -393 251 -393 190 -422 c 128,-1,37
 129 -451 129 -451 53 -451 c 0,4,5
EndSplineSet
EndChar

StartChar: Idotaccent
Encoding: 304 304 239
Width: 627
GlyphClass: 1
Flags: W
LayerCount: 2
Fore
SplineSet
708 1589 m 1,0,-1
 426 1589 l 1,1,-1
 479 1824 l 1,2,-1
 761 1824 l 1,3,-1
 708 1589 l 1,0,-1
341 0 m 1,4,-1
 58 0 l 1,5,-1
 383 1413 l 1,6,-1
 666 1413 l 1,7,-1
 341 0 l 1,4,-1
EndSplineSet
Position2: "'cpsp' Capital Spacing lookup 0 per glyph data 0" dx=5 dy=0 dh=10 dv=0
EndChar

StartChar: dotlessi
Encoding: 305 305 240
Width: 519
GlyphClass: 2
Flags: W
LayerCount: 2
Fore
SplineSet
270 0 m 1,0,-1
 21 0 l 1,1,-1
 250 1039 l 1,2,-1
 499 1039 l 1,3,-1
 270 0 l 1,0,-1
EndSplineSet
EndChar

StartChar: kgreenlandic
Encoding: 312 312 247
Width: 1185
GlyphClass: 1
Flags: W
LayerCount: 2
Fore
SplineSet
1081 0 m 1,0,-1
 751 0 l 1,1,-1
 558 461 l 1,2,-1
 381 306 l 1,3,-1
 308 0 l 1,4,-1
 24 0 l 1,5,-1
 262 1039 l 1,6,-1
 547 1039 l 1,7,-1
 453 643 l 1,8,-1
 914 1039 l 1,9,-1
 1291 1039 l 1,10,-1
 790 630 l 1,11,-1
 1081 0 l 1,0,-1
EndSplineSet
EndChar

StartChar: Lcaron
Encoding: 317 317 252
Width: 1071
GlyphClass: 1
Flags: W
LayerCount: 2
Fore
SplineSet
946 0 m 1,0,-1
 59 0 l 1,1,-1
 384 1413 l 1,2,-1
 667 1413 l 1,3,-1
 405 270 l 1,4,-1
 1009 270 l 1,5,-1
 946 0 l 1,0,-1
951 939 m 1,6,-1
 791 939 l 1,7,-1
 1018 1413 l 1,8,-1
 1292 1413 l 1,9,-1
 951 939 l 1,6,-1
EndSplineSet
Position2: "'cpsp' Capital Spacing lookup 0 per glyph data 0" dx=5 dy=0 dh=10 dv=0
EndChar

StartChar: lcaron
Encoding: 318 318 253
Width: 841
GlyphClass: 1
Flags: W
LayerCount: 2
Fore
SplineSet
253 -20 m 0,0,1
 213 -20 213 -20 177 -11.5 c 128,-1,2
 141 -3 141 -3 115 16 c 128,-1,3
 89 35 89 35 73.5 65.5 c 128,-1,4
 58 96 58 96 58 141 c 0,5,6
 58 168 58 168 64 195 c 128,-1,7
 70 222 70 222 76 248 c 2,8,-1
 344 1413 l 1,9,-1
 628 1413 l 1,10,-1
 383 399 l 2,11,12
 376 370 376 370 368.5 341 c 128,-1,13
 361 312 361 312 355 283 c 0,14,15
 353 273 353 273 353 264 c 0,16,17
 353 249 353 249 361 241.5 c 128,-1,18
 369 234 369 234 381 231 c 128,-1,19
 393 228 393 228 406.5 227.5 c 128,-1,20
 420 227 420 227 430 227 c 0,21,22
 445 227 445 227 461.5 229.5 c 128,-1,23
 478 232 478 232 493 234 c 1,24,-1
 450 -2 l 1,25,26
 402 -10 402 -10 352 -15 c 128,-1,27
 302 -20 302 -20 253 -20 c 0,0,1
823 939 m 1,28,-1
 659 939 l 1,29,-1
 895 1413 l 1,30,-1
 1179 1413 l 1,31,-1
 823 939 l 1,28,-1
EndSplineSet
EndChar

StartChar: Ldot
Encoding: 319 319 254
Width: 1069
GlyphClass: 1
Flags: W
LayerCount: 2
Fore
SplineSet
945 0 m 1,0,-1
 58 0 l 1,1,-1
 383 1413 l 1,2,-1
 666 1413 l 1,3,-1
 404 270 l 1,4,-1
 1008 270 l 1,5,-1
 945 0 l 1,0,-1
735 551 m 0,6,7
 705 551 705 551 680.5 562 c 128,-1,8
 656 573 656 573 639 592 c 128,-1,9
 622 611 622 611 613 636.5 c 128,-1,10
 604 662 604 662 604 691 c 0,11,12
 604 727 604 727 618 758.5 c 128,-1,13
 632 790 632 790 656.5 813.5 c 128,-1,14
 681 837 681 837 713 850 c 128,-1,15
 745 863 745 863 781 863 c 0,16,17
 810 863 810 863 834.5 852.5 c 128,-1,18
 859 842 859 842 877 824 c 128,-1,19
 895 806 895 806 905 781 c 128,-1,20
 915 756 915 756 915 727 c 0,21,22
 915 690 915 690 900.5 658 c 128,-1,23
 886 626 886 626 861.5 602 c 128,-1,24
 837 578 837 578 804 564.5 c 128,-1,25
 771 551 771 551 735 551 c 0,6,7
EndSplineSet
EndChar

StartChar: ldot
Encoding: 320 320 255
Width: 823
GlyphClass: 1
Flags: W
LayerCount: 2
Fore
SplineSet
266 -20 m 0,0,1
 223 -20 223 -20 185.5 -12.5 c 128,-1,2
 148 -5 148 -5 119 13.5 c 128,-1,3
 90 32 90 32 73.5 63 c 128,-1,4
 57 94 57 94 57 141 c 0,5,6
 57 168 57 168 63 195 c 128,-1,7
 69 222 69 222 75 248 c 2,8,-1
 355 1413 l 1,9,-1
 634 1413 l 1,10,11
 567 1125 567 1125 498 840 c 0,12,13
 431 562 431 562 365 281 c 1,14,-1
 366 283 l 1,15,-1
 364 275 l 2,16,17
 363 271 363 271 363 263 c 0,18,19
 363 250 363 250 369.5 243 c 128,-1,20
 376 236 376 236 386.5 232.5 c 128,-1,21
 397 229 397 229 409 228.5 c 128,-1,22
 421 228 421 228 432 228 c 0,23,24
 450 228 450 228 468 230 c 128,-1,25
 486 232 486 232 503 234 c 1,26,-1
 461 -2 l 1,27,28
 413 -8 413 -8 364 -14 c 128,-1,29
 315 -20 315 -20 266 -20 c 0,0,1
646 541 m 0,30,31
 616 541 616 541 591.5 552 c 128,-1,32
 567 563 567 563 550 582 c 128,-1,33
 533 601 533 601 524 626.5 c 128,-1,34
 515 652 515 652 515 681 c 0,35,36
 515 717 515 717 529 748.5 c 128,-1,37
 543 780 543 780 567.5 803.5 c 128,-1,38
 592 827 592 827 624 840 c 128,-1,39
 656 853 656 853 692 853 c 0,40,41
 721 853 721 853 745.5 842.5 c 128,-1,42
 770 832 770 832 788 814 c 128,-1,43
 806 796 806 796 816 771 c 128,-1,44
 826 746 826 746 826 717 c 0,45,46
 826 680 826 680 811.5 648 c 128,-1,47
 797 616 797 616 772.5 592 c 128,-1,48
 748 568 748 568 715 554.5 c 128,-1,49
 682 541 682 541 646 541 c 0,30,31
EndSplineSet
EndChar

StartChar: Lslash
Encoding: 321 321 256
Width: 1094
GlyphClass: 1
Flags: W
LayerCount: 2
Fore
SplineSet
970 0 m 1,0,-1
 83 0 l 1,1,-1
 176 407 l 1,2,-1
 -18 278 l 1,3,-1
 59 569 l 1,4,-1
 240 688 l 1,5,-1
 408 1413 l 1,6,-1
 691 1413 l 1,7,-1
 576 907 l 1,8,-1
 801 1055 l 1,9,-1
 724 772 l 1,10,-1
 512 629 l 1,11,-1
 429 270 l 1,12,-1
 1033 270 l 1,13,-1
 970 0 l 1,0,-1
EndSplineSet
Position2: "'cpsp' Capital Spacing lookup 0 per glyph data 0" dx=5 dy=0 dh=10 dv=0
EndChar

StartChar: lslash
Encoding: 322 322 257
Width: 602
GlyphClass: 1
Flags: W
LayerCount: 2
Fore
SplineSet
260 -20 m 0,0,1
 215 -20 215 -20 177 -13.5 c 128,-1,2
 139 -7 139 -7 112 10.5 c 128,-1,3
 85 28 85 28 70.5 59.5 c 128,-1,4
 56 91 56 91 56 142 c 0,5,6
 56 177 56 177 63 217 c 128,-1,7
 70 257 70 257 79.5 296.5 c 128,-1,8
 89 336 89 336 100 374 c 128,-1,9
 111 412 111 412 119 444 c 1,10,11
 91 428 91 428 62.5 414.5 c 128,-1,12
 34 401 34 401 6 384 c 1,13,-1
 46 620 l 1,14,15
 78 640 78 640 111.5 657.5 c 128,-1,16
 145 675 145 675 177 695 c 1,17,-1
 343 1413 l 1,18,-1
 627 1413 l 1,19,-1
 503 901 l 1,20,-1
 681 1001 l 1,21,22
 671 941 671 941 662 882.5 c 128,-1,23
 653 824 653 824 642 764 c 1,24,-1
 443 649 l 1,25,-1
 399 466 l 2,26,27
 396 452 396 452 387.5 423 c 128,-1,28
 379 394 379 394 371.5 363 c 128,-1,29
 364 332 364 332 357.5 304 c 128,-1,30
 351 276 351 276 351 263 c 256,31,32
 351 250 351 250 358 243 c 128,-1,33
 365 236 365 236 375 232.5 c 128,-1,34
 385 229 385 229 397 228.5 c 128,-1,35
 409 228 409 228 420 228 c 0,36,37
 453 228 453 228 463 231 c 2,38,-1
 492 234 l 1,39,-1
 449 -2 l 1,40,41
 402 -8 402 -8 354.5 -14 c 128,-1,42
 307 -20 307 -20 260 -20 c 0,0,1
EndSplineSet
EndChar

StartChar: Eng
Encoding: 330 330 265
Width: 1465
GlyphClass: 1
Flags: W
LayerCount: 2
Fore
SplineSet
737 -370 m 2,0,-1
 616 -369 l 1,1,2
 624 -327 624 -327 632.5 -285 c 128,-1,3
 641 -243 641 -243 648 -200 c 1,4,-1
 647 -199 l 1,5,-1
 649 -197 l 1,6,-1
 648 -200 l 1,7,-1
 652 -204 l 1,8,-1
 666 -204 l 2,9,10
 703 -204 703 -204 749 -196 c 128,-1,11
 795 -188 795 -188 835.5 -169 c 128,-1,12
 876 -150 876 -150 903.5 -118 c 128,-1,13
 931 -86 931 -86 931 -39 c 0,14,15
 931 -38 931 -38 915 2.5 c 128,-1,16
 899 43 899 43 873 108 c 128,-1,17
 847 173 847 173 813.5 256.5 c 128,-1,18
 780 340 780 340 744.5 427.5 c 128,-1,19
 709 515 709 515 674.5 600.5 c 128,-1,20
 640 686 640 686 612 755 c 128,-1,21
 584 824 584 824 565.5 870 c 128,-1,22
 547 916 547 916 543 925 c 1,23,-1
 328 0 l 1,24,-1
 59 0 l 1,25,26
 140 355 140 355 221.5 705 c 128,-1,27
 303 1055 303 1055 384 1410 c 1,28,-1
 643 1410 l 1,29,-1
 1016 488 l 1,30,-1
 1232 1410 l 1,31,-1
 1501 1410 l 1,32,-1
 1297 531 l 2,33,34
 1265 394 1265 394 1234 259.5 c 128,-1,35
 1203 125 1203 125 1170 -11 c 0,36,37
 1153 -81 1153 -81 1122.5 -150.5 c 128,-1,38
 1092 -220 1092 -220 1037 -271 c 0,39,40
 991 -313 991 -313 941 -334 c 128,-1,41
 891 -355 891 -355 840 -362.5 c 128,-1,42
 789 -370 789 -370 737 -370 c 2,0,-1
EndSplineSet
Position2: "'cpsp' Capital Spacing lookup 0 per glyph data 0" dx=5 dy=0 dh=10 dv=0
EndChar

StartChar: eng
Encoding: 331 331 266
Width: 1199
GlyphClass: 1
Flags: W
LayerCount: 2
Fore
SplineSet
554 -369 m 2,0,-1
 413 -369 l 1,1,-1
 468 -146 l 1,2,-1
 546 -146 l 2,3,4
 587 -146 587 -146 615 -131 c 128,-1,5
 643 -116 643 -116 662 -91 c 128,-1,6
 681 -66 681 -66 693 -33.5 c 128,-1,7
 705 -1 705 -1 712 33 c 2,8,-1
 842 607 l 2,9,10
 848 634 848 634 852.5 660 c 128,-1,11
 857 686 857 686 857 713 c 0,12,13
 857 775 857 775 827 795.5 c 128,-1,14
 797 816 797 816 740 816 c 0,15,16
 692 816 692 816 641 794 c 128,-1,17
 590 772 590 772 545 736 c 128,-1,18
 500 700 500 700 468 654 c 128,-1,19
 436 608 436 608 424 561 c 0,20,21
 391 421 391 421 361.5 283.5 c 128,-1,22
 332 146 332 146 298 6 c 1,23,-1
 24 6 l 1,24,25
 26 15 26 15 34 48.5 c 128,-1,26
 42 82 42 82 52.5 131.5 c 128,-1,27
 63 181 63 181 76.5 239.5 c 128,-1,28
 90 298 90 298 104.5 358.5 c 128,-1,29
 119 419 119 419 132 476 c 128,-1,30
 145 533 145 533 154.5 577.5 c 128,-1,31
 164 622 164 622 170 649 c 2,32,-1
 179 682 l 1,33,-1
 180 690 l 1,34,-1
 182 696 l 2,35,36
 182 701 182 701 184 705 c 2,37,-1
 262 1039 l 1,38,-1
 538 1039 l 1,39,-1
 508 931 l 1,40,41
 639 1056 639 1056 821 1056 c 0,42,43
 894 1056 894 1056 950.5 1034.5 c 128,-1,44
 1007 1013 1007 1013 1046 972.5 c 128,-1,45
 1085 932 1085 932 1105 874.5 c 128,-1,46
 1125 817 1125 817 1125 744 c 0,47,48
 1125 711 1125 711 1121 680 c 128,-1,49
 1117 649 1117 649 1110 617 c 2,50,-1
 954 -63 l 2,51,52
 941 -121 941 -121 922 -168 c 128,-1,53
 903 -215 903 -215 862 -259 c 0,54,55
 833 -290 833 -290 796.5 -311 c 128,-1,56
 760 -332 760 -332 719.5 -345 c 128,-1,57
 679 -358 679 -358 636.5 -363.5 c 128,-1,58
 594 -369 594 -369 554 -369 c 2,0,-1
EndSplineSet
EndChar

StartChar: OE
Encoding: 338 338 273
Width: 2256
GlyphClass: 1
Flags: W
LayerCount: 2
Fore
SplineSet
647 -20 m 0,0,1
 524 -20 524 -20 422 15 c 128,-1,2
 320 50 320 50 247.5 117 c 128,-1,3
 175 184 175 184 134.5 282.5 c 128,-1,4
 94 381 94 381 94 507 c 0,5,6
 94 631 94 631 126 754 c 128,-1,7
 158 877 158 877 218.5 987 c 128,-1,8
 279 1097 279 1097 366.5 1187.5 c 128,-1,9
 454 1278 454 1278 565 1338 c 0,10,11
 660 1389 660 1389 759.5 1411.5 c 128,-1,12
 859 1434 859 1434 966 1434 c 0,13,14
 1019 1434 1019 1434 1072.5 1426.5 c 128,-1,15
 1126 1419 1126 1419 1176.5 1402.5 c 128,-1,16
 1227 1386 1227 1386 1272.5 1358.5 c 128,-1,17
 1318 1331 1318 1331 1355 1290 c 1,18,19
 1363 1321 1363 1321 1371.5 1351.5 c 128,-1,20
 1380 1382 1380 1382 1389 1413 c 1,21,-1
 2341 1413 l 1,22,-1
 2282 1150 l 1,23,-1
 1613 1150 l 1,24,-1
 1538 838 l 1,25,-1
 2172 838 l 1,26,-1
 2111 574 l 1,27,-1
 1478 574 l 1,28,-1
 1408 270 l 1,29,-1
 2079 270 l 1,30,31
 2062 202 2062 202 2047 135 c 128,-1,32
 2032 68 2032 68 2015 0 c 1,33,-1
 1062 0 l 1,34,35
 1079 53 1079 53 1092 105 c 1,36,37
 1040 69 1040 69 987 45 c 128,-1,38
 934 21 934 21 879.5 6.5 c 128,-1,39
 825 -8 825 -8 767 -14 c 128,-1,40
 709 -20 709 -20 647 -20 c 0,0,1
701 249 m 0,41,42
 809 249 809 249 896.5 287.5 c 128,-1,43
 984 326 984 326 1051 392 c 128,-1,44
 1118 458 1118 458 1163 545.5 c 128,-1,45
 1208 633 1208 633 1231 731 c 0,46,47
 1239 766 1239 766 1244 801 c 128,-1,48
 1249 836 1249 836 1249 872 c 0,49,50
 1249 951 1249 951 1226 1006.5 c 128,-1,51
 1203 1062 1203 1062 1160.5 1097 c 128,-1,52
 1118 1132 1118 1132 1058 1148 c 128,-1,53
 998 1164 998 1164 924 1164 c 0,54,55
 815 1164 815 1164 727 1126 c 128,-1,56
 639 1088 639 1088 573 1022 c 128,-1,57
 507 956 507 956 462 868 c 128,-1,58
 417 780 417 780 394 681 c 0,59,60
 386 646 386 646 380.5 610.5 c 128,-1,61
 375 575 375 575 375 539 c 0,62,63
 375 460 375 460 398.5 405 c 128,-1,64
 422 350 422 350 464.5 315.5 c 128,-1,65
 507 281 507 281 567.5 265 c 128,-1,66
 628 249 628 249 701 249 c 0,41,42
EndSplineSet
Position2: "'cpsp' Capital Spacing lookup 0 per glyph data 0" dx=5 dy=0 dh=10 dv=0
EndChar

StartChar: oe
Encoding: 339 339 274
Width: 1891
GlyphClass: 1
Flags: W
LayerCount: 2
Fore
SplineSet
471 -20 m 0,0,1
 375 -20 375 -20 294 9 c 128,-1,2
 213 38 213 38 154 92.5 c 128,-1,3
 95 147 95 147 62 226.5 c 128,-1,4
 29 306 29 306 29 406 c 0,5,6
 29 494 29 494 54 576.5 c 128,-1,7
 79 659 79 659 123.5 731 c 128,-1,8
 168 803 168 803 229 862 c 128,-1,9
 290 921 290 921 363.5 963 c 128,-1,10
 437 1005 437 1005 519 1028.5 c 128,-1,11
 601 1052 601 1052 688 1052 c 0,12,13
 792 1052 792 1052 883 1014 c 128,-1,14
 974 976 974 976 1038 895 c 1,15,16
 1200 1052 1200 1052 1433 1052 c 0,17,18
 1529 1052 1529 1052 1604.5 1024.5 c 128,-1,19
 1680 997 1680 997 1732 944 c 128,-1,20
 1784 891 1784 891 1811 814.5 c 128,-1,21
 1838 738 1838 738 1838 640 c 0,22,23
 1838 583 1838 583 1830 525 c 128,-1,24
 1822 467 1822 467 1799 414 c 1,25,-1
 1098 414 l 1,26,27
 1099 369 1099 369 1116.5 339.5 c 128,-1,28
 1134 310 1134 310 1161 292 c 128,-1,29
 1188 274 1188 274 1223 266.5 c 128,-1,30
 1258 259 1258 259 1293 259 c 0,31,32
 1380 259 1380 259 1450.5 294.5 c 128,-1,33
 1521 330 1521 330 1586 389 c 1,34,-1
 1751 178 l 1,35,36
 1644 90 1644 90 1520 39 c 128,-1,37
 1396 -12 1396 -12 1254 -12 c 0,38,39
 1203 -12 1203 -12 1151 -3.5 c 128,-1,40
 1099 5 1099 5 1051 23 c 128,-1,41
 1003 41 1003 41 961 70 c 128,-1,42
 919 99 919 99 888 141 c 1,43,44
 799 63 799 63 695.5 21.5 c 128,-1,45
 592 -20 592 -20 471 -20 c 0,0,1
482 207 m 0,46,47
 557 207 557 207 613.5 233.5 c 128,-1,48
 670 260 670 260 711.5 306 c 128,-1,49
 753 352 753 352 781 412.5 c 128,-1,50
 809 473 809 473 824 542 c 0,51,52
 830 569 830 569 834 595 c 128,-1,53
 838 621 838 621 838 648 c 0,54,55
 838 738 838 738 789.5 779 c 128,-1,56
 741 820 741 820 658 820 c 0,57,58
 584 820 584 820 528 793 c 128,-1,59
 472 766 472 766 430 720 c 128,-1,60
 388 674 388 674 360.5 614 c 128,-1,61
 333 554 333 554 316 486 c 0,62,63
 310 460 310 460 306 433.5 c 128,-1,64
 302 407 302 407 302 380 c 0,65,66
 302 290 302 290 351 248.5 c 128,-1,67
 400 207 400 207 482 207 c 0,46,47
1576 610 m 1,68,69
 1573 628 1573 628 1572.5 645.5 c 128,-1,70
 1572 663 1572 663 1570 681 c 0,71,72
 1560 757 1560 757 1518 784.5 c 128,-1,73
 1476 812 1476 812 1409 812 c 0,74,75
 1362 812 1362 812 1322.5 797 c 128,-1,76
 1283 782 1283 782 1250 755 c 128,-1,77
 1217 728 1217 728 1191.5 691 c 128,-1,78
 1166 654 1166 654 1147 610 c 1,79,-1
 1576 610 l 1,68,69
EndSplineSet
EndChar

StartChar: tcaron
Encoding: 357 357 292
Width: 819
GlyphClass: 1
Flags: W
LayerCount: 2
Fore
SplineSet
835 1067 m 1,0,-1
 670 1067 l 1,1,-1
 906 1503 l 1,2,-1
 1190 1503 l 1,3,-1
 835 1067 l 1,0,-1
405 -21 m 0,4,5
 349 -21 349 -21 299 -5 c 128,-1,6
 249 11 249 11 212 42.5 c 128,-1,7
 175 74 175 74 153.5 120.5 c 128,-1,8
 132 167 132 167 132 229 c 0,9,10
 132 269 132 269 141 308 c 2,11,-1
 251 809 l 1,12,-1
 85 809 l 1,13,-1
 140 1039 l 1,14,-1
 309 1039 l 1,15,-1
 365 1274 l 1,16,17
 443 1316 443 1316 520 1358.5 c 128,-1,18
 597 1401 597 1401 675 1444 c 1,19,-1
 571 1039 l 1,20,-1
 843 1039 l 1,21,-1
 787 809 l 1,22,-1
 514 809 l 1,23,-1
 484 676 l 2,24,25
 469 608 469 608 453.5 542 c 128,-1,26
 438 476 438 476 424 409 c 0,27,28
 419 381 419 381 410.5 349.5 c 128,-1,29
 402 318 402 318 402 291 c 0,30,31
 402 268 402 268 410 255 c 128,-1,32
 418 242 418 242 430.5 235 c 128,-1,33
 443 228 443 228 459.5 226 c 128,-1,34
 476 224 476 224 494 224 c 0,35,36
 541 224 541 224 584.5 237.5 c 128,-1,37
 628 251 628 251 668 272 c 1,38,39
 654 205 654 205 642.5 140 c 128,-1,40
 631 75 631 75 618 8 c 1,41,42
 598 1 598 1 570.5 -4.5 c 128,-1,43
 543 -10 543 -10 513.5 -14 c 128,-1,44
 484 -18 484 -18 455.5 -19.5 c 128,-1,45
 427 -21 427 -21 405 -21 c 0,4,5
EndSplineSet
EndChar

StartChar: Tbar
Encoding: 358 358 293
Width: 1159
GlyphClass: 1
Flags: W
LayerCount: 2
Fore
SplineSet
606 0 m 1,0,-1
 323 0 l 1,1,-1
 465 618 l 1,2,-1
 288 618 l 1,3,-1
 328 797 l 1,4,-1
 506 797 l 1,5,-1
 589 1156 l 1,6,-1
 156 1156 l 1,7,-1
 216 1413 l 1,8,-1
 1363 1413 l 1,9,-1
 1303 1156 l 1,10,-1
 871 1156 l 1,11,-1
 788 797 l 1,12,-1
 963 797 l 1,13,-1
 923 618 l 1,14,-1
 747 618 l 1,15,-1
 606 0 l 1,0,-1
EndSplineSet
Position2: "'cpsp' Capital Spacing lookup 0 per glyph data 0" dx=5 dy=0 dh=10 dv=0
EndChar

StartChar: tbar
Encoding: 359 359 294
Width: 807
GlyphClass: 1
Flags: W
LayerCount: 2
Fore
SplineSet
423 -20 m 0,0,1
 366 -20 366 -20 313 -6 c 128,-1,2
 260 8 260 8 220 38 c 128,-1,3
 180 68 180 68 156 115 c 128,-1,4
 132 162 132 162 132 228 c 0,5,6
 132 281 132 281 144.5 331 c 128,-1,7
 157 381 157 381 168 431 c 1,8,-1
 36 431 l 1,9,-1
 78 610 l 1,10,-1
 209 610 l 1,11,-1
 251 809 l 1,12,-1
 85 809 l 1,13,-1
 140 1039 l 1,14,-1
 309 1039 l 1,15,-1
 365 1271 l 1,16,17
 443 1313 443 1313 520 1354.5 c 128,-1,18
 597 1396 597 1396 675 1439 c 1,19,-1
 571 1039 l 1,20,-1
 843 1039 l 1,21,-1
 787 809 l 1,22,-1
 514 809 l 1,23,-1
 472 610 l 1,24,-1
 728 610 l 1,25,-1
 686 431 l 1,26,-1
 428 431 l 1,27,28
 421 399 421 399 411.5 362.5 c 128,-1,29
 402 326 402 326 402 293 c 0,30,31
 402 270 402 270 410 256.5 c 128,-1,32
 418 243 418 243 430.5 235.5 c 128,-1,33
 443 228 443 228 459.5 226 c 128,-1,34
 476 224 476 224 494 224 c 0,35,36
 541 224 541 224 584.5 238 c 128,-1,37
 628 252 628 252 668 274 c 1,38,39
 654 207 654 207 642.5 141 c 128,-1,40
 631 75 631 75 618 8 c 1,41,42
 572 -6 572 -6 522 -13 c 128,-1,43
 472 -20 472 -20 423 -20 c 0,0,1
EndSplineSet
EndChar

StartChar: longs
Encoding: 383 383 318
Width: 721
GlyphClass: 2
Flags: W
LayerCount: 2
Fore
SplineSet
383 0 m 1,0,-1
 86 0 l 1,1,2
 133 203 133 203 178 404.5 c 128,-1,3
 223 606 223 606 269 809 c 1,4,-1
 80 809 l 1,5,6
 95 866 95 866 108 923 c 128,-1,7
 121 980 121 980 135 1037 c 1,8,-1
 328 1037 l 1,9,10
 349 1124 349 1124 377 1197 c 128,-1,11
 405 1270 405 1270 453 1323 c 128,-1,12
 501 1376 501 1376 577 1405 c 128,-1,13
 653 1434 653 1434 770 1434 c 0,14,15
 820 1434 820 1434 867 1420.5 c 128,-1,16
 914 1407 914 1407 958 1387 c 1,17,-1
 811 1180 l 1,18,19
 782 1198 782 1198 744 1198 c 0,20,21
 722 1198 722 1198 706.5 1189.5 c 128,-1,22
 691 1181 691 1181 679 1167 c 128,-1,23
 667 1153 667 1153 659.5 1135.5 c 128,-1,24
 652 1118 652 1118 647 1101 c 0,25,26
 575 826 575 826 513 551 c 128,-1,27
 451 276 451 276 383 0 c 1,0,-1
EndSplineSet
EndChar

StartChar: florin
Encoding: 402 402 319
Width: 1072
GlyphClass: 1
Flags: W
LayerCount: 2
Fore
SplineSet
-177 -457 m 1,0,1
 -166 -400 -166 -400 -156.5 -343.5 c 128,-1,2
 -147 -287 -147 -287 -135 -230 c 1,3,4
 -46 -230 -46 -230 24 -219 c 128,-1,5
 94 -208 94 -208 146.5 -176.5 c 128,-1,6
 199 -145 199 -145 234 -87 c 128,-1,7
 269 -29 269 -29 291 64 c 2,8,-1
 464 815 l 1,9,-1
 279 815 l 1,10,11
 294 872 294 872 306 927.5 c 128,-1,12
 318 983 318 983 333 1039 c 1,13,-1
 518 1039 l 1,14,15
 534 1098 534 1098 554 1157 c 128,-1,16
 574 1216 574 1216 606.5 1267.5 c 128,-1,17
 639 1319 639 1319 686.5 1360 c 128,-1,18
 734 1401 734 1401 805 1426 c 0,19,20
 836 1437 836 1437 870 1442 c 128,-1,21
 904 1447 904 1447 938 1447 c 0,22,23
 982 1447 982 1447 1016 1438.5 c 128,-1,24
 1050 1430 1050 1430 1080 1414 c 128,-1,25
 1110 1398 1110 1398 1137.5 1375.5 c 128,-1,26
 1165 1353 1165 1353 1194 1324 c 1,27,28
 1147 1287 1147 1287 1102.5 1250 c 128,-1,29
 1058 1213 1058 1213 1011 1177 c 1,30,31
 999 1188 999 1188 989 1196 c 128,-1,32
 979 1204 979 1204 968.5 1209.5 c 128,-1,33
 958 1215 958 1215 944.5 1217.5 c 128,-1,34
 931 1220 931 1220 911 1220 c 0,35,36
 865 1220 865 1220 838 1201.5 c 128,-1,37
 811 1183 811 1183 795 1155 c 128,-1,38
 779 1127 779 1127 770.5 1096 c 128,-1,39
 762 1065 762 1065 755 1039 c 1,40,-1
 1071 1039 l 1,41,42
 1056 983 1056 983 1044 927.5 c 128,-1,43
 1032 872 1032 872 1017 815 c 1,44,-1
 700 815 l 1,45,-1
 523 46 l 2,46,47
 492 -89 492 -89 429 -184.5 c 128,-1,48
 366 -280 366 -280 276 -340.5 c 128,-1,49
 186 -401 186 -401 71.5 -429 c 128,-1,50
 -43 -457 -43 -457 -177 -457 c 1,0,1
EndSplineSet
EndChar

StartChar: uni01C3
Encoding: 451 451 324
Width: 479
GlyphClass: 1
Flags: W
LayerCount: 2
Fore
SplineSet
330 443 m 1,0,-1
 124 443 l 1,1,-1
 322 1433 l 1,2,-1
 586 1433 l 1,3,-1
 330 443 l 1,0,-1
270 0 m 1,4,-1
 -20 0 l 1,5,-1
 45 286 l 1,6,-1
 334 286 l 1,7,-1
 270 0 l 1,4,-1
EndSplineSet
EndChar

StartChar: uni01DD
Encoding: 477 477 350
Width: 1094
GlyphClass: 1
Flags: W
LayerCount: 2
Fore
SplineSet
435 -12 m 256,0,1
 342 -12 342 -12 266.5 10 c 128,-1,2
 191 32 191 32 137.5 78.5 c 128,-1,3
 84 125 84 125 54.5 197.5 c 128,-1,4
 25 270 25 270 25 369 c 0,5,6
 25 397 25 397 28 431 c 128,-1,7
 31 465 31 465 37 500 c 128,-1,8
 43 535 43 535 51.5 568.5 c 128,-1,9
 60 602 60 602 70 629 c 1,10,-1
 777 629 l 1,11,-1
 776 638 l 2,12,13
 773 684 773 684 760 714.5 c 128,-1,14
 747 745 747 745 723.5 762.5 c 128,-1,15
 700 780 700 780 667 787 c 128,-1,16
 634 794 634 794 593 794 c 0,17,18
 549 794 549 794 512.5 789 c 128,-1,19
 476 784 476 784 443.5 772 c 128,-1,20
 411 760 411 760 379.5 740 c 128,-1,21
 348 720 348 720 315 690 c 1,22,-1
 156 884 l 1,23,24
 260 970 260 970 375 1011 c 128,-1,25
 490 1052 490 1052 628 1052 c 0,26,27
 724 1052 724 1052 804.5 1026 c 128,-1,28
 885 1000 885 1000 942.5 949 c 128,-1,29
 1000 898 1000 898 1032 821.5 c 128,-1,30
 1064 745 1064 745 1064 645 c 0,31,32
 1064 568 1064 568 1044.5 492.5 c 128,-1,33
 1025 417 1025 417 992 349 c 0,34,35
 952 266 952 266 894 198.5 c 128,-1,36
 836 131 836 131 765 84.5 c 128,-1,37
 694 38 694 38 611 13 c 128,-1,38
 528 -12 528 -12 435 -12 c 256,0,1
453 216 m 0,39,40
 504 216 504 216 546 231 c 128,-1,41
 588 246 588 246 621.5 273.5 c 128,-1,42
 655 301 655 301 681.5 338.5 c 128,-1,43
 708 376 708 376 728 422 c 1,44,-1
 284 398 l 1,45,-1
 284 365 l 2,46,47
 284 321 284 321 296 292 c 128,-1,48
 308 263 308 263 330 246.5 c 128,-1,49
 352 230 352 230 383.5 223 c 128,-1,50
 415 216 415 216 453 216 c 0,39,40
EndSplineSet
EndChar

StartChar: uni01EB
Encoding: 491 491 354
Width: 1147
GlyphClass: 1
Flags: W
LayerCount: 2
Fore
SplineSet
384 -453 m 0,0,1
 344 -453 344 -453 310 -439.5 c 128,-1,2
 276 -426 276 -426 250.5 -402.5 c 128,-1,3
 225 -379 225 -379 210.5 -346.5 c 128,-1,4
 196 -314 196 -314 196 -275 c 0,5,6
 196 -233 196 -233 211 -195.5 c 128,-1,7
 226 -158 226 -158 250.5 -125 c 128,-1,8
 275 -92 275 -92 306.5 -64.5 c 128,-1,9
 338 -37 338 -37 370 -14 c 1,10,11
 292 1 292 1 228.5 36.5 c 128,-1,12
 165 72 165 72 121 126 c 128,-1,13
 77 180 77 180 53 250.5 c 128,-1,14
 29 321 29 321 29 404 c 0,15,16
 29 512 29 512 66 612.5 c 128,-1,17
 103 713 103 713 168.5 797 c 128,-1,18
 234 881 234 881 321.5 941.5 c 128,-1,19
 409 1002 409 1002 509 1030 c 0,20,21
 555 1042 555 1042 599 1047 c 128,-1,22
 643 1052 643 1052 690 1052 c 0,23,24
 785 1052 785 1052 863 1022.5 c 128,-1,25
 941 993 941 993 997.5 938 c 128,-1,26
 1054 883 1054 883 1085 804.5 c 128,-1,27
 1116 726 1116 726 1116 628 c 0,28,29
 1116 518 1116 518 1079 416.5 c 128,-1,30
 1042 315 1042 315 976.5 232 c 128,-1,31
 911 149 911 149 822.5 88 c 128,-1,32
 734 27 734 27 631 -1 c 1,33,-1
 643 -1 l 1,34,35
 633 -3 633 -3 623 -7 c 128,-1,36
 613 -11 613 -11 604 -15 c 0,37,38
 569 -30 569 -30 525.5 -54.5 c 128,-1,39
 482 -79 482 -79 443.5 -110.5 c 128,-1,40
 405 -142 405 -142 379 -179.5 c 128,-1,41
 353 -217 353 -217 353 -259 c 0,42,43
 353 -282 353 -282 367.5 -286 c 128,-1,44
 382 -290 382 -290 402 -290 c 0,45,46
 439 -290 439 -290 471 -270.5 c 128,-1,47
 503 -251 503 -251 528 -226 c 1,48,-1
 646 -337 l 1,49,50
 590 -398 590 -398 529 -425.5 c 128,-1,51
 468 -453 468 -453 384 -453 c 0,0,1
492 225 m 0,52,53
 562 225 562 225 618.5 251.5 c 128,-1,54
 675 278 675 278 717.5 322 c 128,-1,55
 760 366 760 366 788 424.5 c 128,-1,56
 816 483 816 483 829 547 c 0,57,58
 834 570 834 570 837.5 591.5 c 128,-1,59
 841 613 841 613 841 636 c 0,60,61
 841 730 841 730 791 773 c 128,-1,62
 741 816 741 816 653 816 c 0,63,64
 589 816 589 816 534.5 793 c 128,-1,65
 480 770 480 770 434 726 c 0,66,67
 383 677 383 677 356.5 620 c 128,-1,68
 330 563 330 563 316 494 c 0,69,70
 311 472 311 472 307.5 450.5 c 128,-1,71
 304 429 304 429 304 406 c 0,72,73
 304 313 304 313 354 269 c 128,-1,74
 404 225 404 225 492 225 c 0,52,53
EndSplineSet
EndChar

StartChar: uni0237
Encoding: 567 567 368
Width: 568
GlyphClass: 2
Flags: W
LayerCount: 2
Fore
SplineSet
-115 -438 m 0,0,1
 -162 -438 -162 -438 -206 -427.5 c 128,-1,2
 -250 -417 -250 -417 -292 -400 c 1,3,-1
 -189 -185 l 1,4,5
 -141 -197 -141 -197 -90 -197 c 0,6,7
 -64 -197 -64 -197 -47 -186.5 c 128,-1,8
 -30 -176 -30 -176 -19 -159.5 c 128,-1,9
 -8 -143 -8 -143 -2 -122.5 c 128,-1,10
 4 -102 4 -102 8 -80 c 0,11,12
 29 15 29 15 51.5 109 c 128,-1,13
 74 203 74 203 96 298 c 2,14,-1
 267 1039 l 1,15,-1
 534 1039 l 1,16,-1
 265 -106 l 2,17,18
 248 -178 248 -178 216 -239 c 128,-1,19
 184 -300 184 -300 136.5 -344.5 c 128,-1,20
 89 -389 89 -389 26.5 -413.5 c 128,-1,21
 -36 -438 -36 -438 -115 -438 c 0,0,1
EndSplineSet
EndChar

StartChar: uni0250
Encoding: 592 592 369
Width: 1125
GlyphClass: 1
Flags: W
LayerCount: 2
Fore
SplineSet
488 -20 m 0,0,1
 411 -20 411 -20 342 -1 c 128,-1,2
 273 18 273 18 220 59 c 128,-1,3
 167 100 167 100 136 162 c 128,-1,4
 105 224 105 224 105 309 c 0,5,6
 105 338 105 338 108.5 364.5 c 128,-1,7
 112 391 112 391 118 419 c 2,8,-1
 254 1035 l 1,9,-1
 467 1035 l 1,10,-1
 469 911 l 1,11,12
 507 952 507 952 544 979.5 c 128,-1,13
 581 1007 581 1007 621.5 1024 c 128,-1,14
 662 1041 662 1041 708.5 1048.5 c 128,-1,15
 755 1056 755 1056 811 1056 c 0,16,17
 876 1056 876 1056 935.5 1037 c 128,-1,18
 995 1018 995 1018 1040.5 981 c 128,-1,19
 1086 944 1086 944 1113 890 c 128,-1,20
 1140 836 1140 836 1140 764 c 0,21,22
 1140 723 1140 723 1132.5 681 c 128,-1,23
 1125 639 1125 639 1104 603 c 0,24,25
 1065 533 1065 533 1003 494.5 c 128,-1,26
 941 456 941 456 869 437 c 128,-1,27
 797 418 797 418 719.5 414 c 128,-1,28
 642 410 642 410 572 407 c 0,29,30
 523 405 523 405 474 402 c 128,-1,31
 425 399 425 399 375 398 c 1,32,33
 372 384 372 384 370 370 c 128,-1,34
 368 356 368 356 368 342 c 0,35,36
 368 306 368 306 381 281.5 c 128,-1,37
 394 257 394 257 415.5 243 c 128,-1,38
 437 229 437 229 464.5 223.5 c 128,-1,39
 492 218 492 218 522 218 c 0,40,41
 558 218 558 218 596.5 231.5 c 128,-1,42
 635 245 635 245 671 267.5 c 128,-1,43
 707 290 707 290 737 319 c 128,-1,44
 767 348 767 348 787 379 c 1,45,-1
 968 192 l 1,46,47
 916 141 916 141 863 101.5 c 128,-1,48
 810 62 810 62 752 35 c 128,-1,49
 694 8 694 8 629 -6 c 128,-1,50
 564 -20 564 -20 488 -20 c 0,0,1
421 591 m 1,51,52
 451 592 451 592 480 593.5 c 128,-1,53
 509 595 509 595 540 597 c 0,54,55
 581 599 581 599 623 600.5 c 128,-1,56
 665 602 665 602 706 610 c 128,-1,57
 747 618 747 618 782 638.5 c 128,-1,58
 817 659 817 659 844 700 c 0,59,60
 852 712 852 712 857.5 726 c 128,-1,61
 863 740 863 740 863 755 c 0,62,63
 863 778 863 778 848.5 792 c 128,-1,64
 834 806 834 806 813 814 c 128,-1,65
 792 822 792 822 770 824 c 128,-1,66
 748 826 748 826 732 826 c 0,67,68
 688 826 688 826 637.5 807 c 128,-1,69
 587 788 587 788 542.5 755.5 c 128,-1,70
 498 723 498 723 464.5 680.5 c 128,-1,71
 431 638 431 638 421 591 c 1,51,52
EndSplineSet
EndChar

StartChar: uni0254
Encoding: 596 596 370
Width: 1036
GlyphClass: 1
Flags: W
LayerCount: 2
Fore
SplineSet
372 -20 m 0,0,1
 296 -20 296 -20 230 1.5 c 128,-1,2
 164 23 164 23 112 63 c 128,-1,3
 60 103 60 103 25 161.5 c 128,-1,4
 -10 220 -10 220 -24 295 c 1,5,-1
 259 377 l 1,6,7
 263 304 263 304 304 272.5 c 128,-1,8
 345 241 345 241 412 241 c 0,9,10
 487 241 487 241 546 275 c 128,-1,11
 605 309 605 309 646 364.5 c 128,-1,12
 687 420 687 420 708.5 489.5 c 128,-1,13
 730 559 730 559 730 630 c 0,14,15
 730 715 730 715 687 754.5 c 128,-1,16
 644 794 644 794 564 794 c 256,17,18
 484 794 484 794 421.5 750 c 128,-1,19
 359 706 359 706 321 634 c 1,20,-1
 85 757 l 1,21,22
 125 825 125 825 178.5 880 c 128,-1,23
 232 935 232 935 296.5 974.5 c 128,-1,24
 361 1014 361 1014 434.5 1035 c 128,-1,25
 508 1056 508 1056 589 1056 c 0,26,27
 684 1056 684 1056 761 1028 c 128,-1,28
 838 1000 838 1000 891.5 947 c 128,-1,29
 945 894 945 894 974.5 817 c 128,-1,30
 1004 740 1004 740 1004 644 c 0,31,32
 1004 511 1004 511 955.5 390.5 c 128,-1,33
 907 270 907 270 822.5 179 c 128,-1,34
 738 88 738 88 622.5 34 c 128,-1,35
 507 -20 507 -20 372 -20 c 0,0,1
EndSplineSet
EndChar

StartChar: uni0258
Encoding: 600 600 371
Width: 1094
GlyphClass: 1
Flags: W
LayerCount: 2
Fore
SplineSet
415 -12 m 0,0,1
 351 -12 351 -12 294 -2.5 c 128,-1,2
 237 7 237 7 186 29 c 128,-1,3
 135 51 135 51 90.5 86.5 c 128,-1,4
 46 122 46 122 8 174 c 1,5,-1
 232 329 l 1,6,7
 255 299 255 299 279.5 281.5 c 128,-1,8
 304 264 304 264 331.5 256 c 128,-1,9
 359 248 359 248 390 246.5 c 128,-1,10
 421 245 421 245 456 245 c 0,11,12
 557 245 557 245 629 292.5 c 128,-1,13
 701 340 701 340 742 435 c 1,14,-1
 34 435 l 1,15,16
 34 479 34 479 43 523.5 c 128,-1,17
 52 568 52 568 64 610 c 0,18,19
 127 824 127 824 277.5 938 c 128,-1,20
 428 1052 428 1052 649 1052 c 0,21,22
 745 1052 745 1052 821 1024 c 128,-1,23
 897 996 897 996 951 943 c 128,-1,24
 1005 890 1005 890 1033.5 813.5 c 128,-1,25
 1062 737 1062 737 1062 641 c 0,26,27
 1062 503 1062 503 1012.5 383 c 128,-1,28
 963 263 963 263 876 175.5 c 128,-1,29
 789 88 789 88 670.5 38 c 128,-1,30
 552 -12 552 -12 415 -12 c 0,0,1
344 618 m 1,31,-1
 791 641 l 1,32,-1
 791 650 l 2,33,34
 791 730 791 730 754 777 c 128,-1,35
 717 824 717 824 629 824 c 0,36,37
 522 824 522 824 452 772 c 128,-1,38
 382 720 382 720 344 618 c 1,31,-1
EndSplineSet
EndChar

StartChar: uni0259
Encoding: 601 601 372
Width: 1094
GlyphClass: 1
Flags: W
LayerCount: 2
Fore
SplineSet
435 -12 m 256,0,1
 342 -12 342 -12 266.5 10 c 128,-1,2
 191 32 191 32 137.5 78.5 c 128,-1,3
 84 125 84 125 54.5 197.5 c 128,-1,4
 25 270 25 270 25 369 c 0,5,6
 25 397 25 397 28 431 c 128,-1,7
 31 465 31 465 37 500 c 128,-1,8
 43 535 43 535 51.5 568.5 c 128,-1,9
 60 602 60 602 70 629 c 1,10,-1
 777 629 l 1,11,-1
 776 638 l 2,12,13
 773 684 773 684 760 714.5 c 128,-1,14
 747 745 747 745 723.5 762.5 c 128,-1,15
 700 780 700 780 667 787 c 128,-1,16
 634 794 634 794 593 794 c 0,17,18
 549 794 549 794 512.5 789 c 128,-1,19
 476 784 476 784 443.5 772 c 128,-1,20
 411 760 411 760 379.5 740 c 128,-1,21
 348 720 348 720 315 690 c 1,22,-1
 156 884 l 1,23,24
 260 970 260 970 375 1011 c 128,-1,25
 490 1052 490 1052 628 1052 c 0,26,27
 724 1052 724 1052 804.5 1026 c 128,-1,28
 885 1000 885 1000 942.5 949 c 128,-1,29
 1000 898 1000 898 1032 821.5 c 128,-1,30
 1064 745 1064 745 1064 645 c 0,31,32
 1064 568 1064 568 1044.5 492.5 c 128,-1,33
 1025 417 1025 417 992 349 c 0,34,35
 952 266 952 266 894 198.5 c 128,-1,36
 836 131 836 131 765 84.5 c 128,-1,37
 694 38 694 38 611 13 c 128,-1,38
 528 -12 528 -12 435 -12 c 256,0,1
453 216 m 0,39,40
 504 216 504 216 546 231 c 128,-1,41
 588 246 588 246 621.5 273.5 c 128,-1,42
 655 301 655 301 681.5 338.5 c 128,-1,43
 708 376 708 376 728 422 c 1,44,-1
 284 398 l 1,45,-1
 284 365 l 2,46,47
 284 321 284 321 296 292 c 128,-1,48
 308 263 308 263 330 246.5 c 128,-1,49
 352 230 352 230 383.5 223 c 128,-1,50
 415 216 415 216 453 216 c 0,39,40
EndSplineSet
EndChar

StartChar: uni0261
Encoding: 609 609 373
Width: 1214
GlyphClass: 1
Flags: W
LayerCount: 2
Fore
SplineSet
362 -440 m 0,0,1
 291 -440 291 -440 227.5 -428 c 128,-1,2
 164 -416 164 -416 109.5 -389 c 128,-1,3
 55 -362 55 -362 10 -318 c 128,-1,4
 -35 -274 -35 -274 -69 -211 c 1,5,6
 -10 -176 -10 -176 49 -141.5 c 128,-1,7
 108 -107 108 -107 168 -73 c 1,8,9
 178 -109 178 -109 202 -133.5 c 128,-1,10
 226 -158 226 -158 258 -172.5 c 128,-1,11
 290 -187 290 -187 325.5 -193.5 c 128,-1,12
 361 -200 361 -200 393 -200 c 0,13,14
 505 -200 505 -200 572.5 -144.5 c 128,-1,15
 640 -89 640 -89 666 19 c 0,16,17
 672 44 672 44 678 69 c 128,-1,18
 684 94 684 94 691 117 c 1,19,20
 627 60 627 60 555 38 c 128,-1,21
 483 16 483 16 397 16 c 256,22,23
 311 16 311 16 245 45.5 c 128,-1,24
 179 75 179 75 133.5 127 c 128,-1,25
 88 179 88 179 65 249.5 c 128,-1,26
 42 320 42 320 42 403 c 0,27,28
 42 498 42 498 70.5 595 c 128,-1,29
 99 692 99 692 151.5 778.5 c 128,-1,30
 204 865 204 865 278 932 c 128,-1,31
 352 999 352 999 442 1033 c 0,32,33
 482 1047 482 1047 522.5 1053.5 c 128,-1,34
 563 1060 563 1060 606 1060 c 0,35,36
 643 1060 643 1060 682 1054 c 128,-1,37
 721 1048 721 1048 756.5 1034 c 128,-1,38
 792 1020 792 1020 822.5 997.5 c 128,-1,39
 853 975 853 975 873 942 c 1,40,41
 881 966 881 966 887.5 990.5 c 128,-1,42
 894 1015 894 1015 901 1039 c 1,43,-1
 1188 1039 l 1,44,-1
 947 1 l 2,45,46
 921 -110 921 -110 868.5 -193 c 128,-1,47
 816 -276 816 -276 740.5 -331 c 128,-1,48
 665 -386 665 -386 569 -413 c 128,-1,49
 473 -440 473 -440 362 -440 c 0,0,1
498 270 m 0,50,51
 564 270 564 270 616 293.5 c 128,-1,52
 668 317 668 317 708 356.5 c 128,-1,53
 748 396 748 396 775 449.5 c 128,-1,54
 802 503 802 503 816 564 c 0,55,56
 820 583 820 583 822.5 602.5 c 128,-1,57
 825 622 825 622 825 641 c 0,58,59
 825 730 825 730 777.5 770.5 c 128,-1,60
 730 811 730 811 647 811 c 0,61,62
 575 811 575 811 514.5 778.5 c 128,-1,63
 454 746 454 746 410 692.5 c 128,-1,64
 366 639 366 639 342 572 c 128,-1,65
 318 505 318 505 318 435 c 0,66,67
 318 391 318 391 330.5 359.5 c 128,-1,68
 343 328 343 328 366 308 c 128,-1,69
 389 288 389 288 422.5 279 c 128,-1,70
 456 270 456 270 498 270 c 0,50,51
EndSplineSet
EndChar

StartChar: circumflex
Encoding: 710 710 375
Width: 620
GlyphClass: 1
Flags: W
LayerCount: 2
Fore
SplineSet
742 1098 m 1,0,-1
 552 1098 l 1,1,-1
 467 1230 l 1,2,-1
 321 1098 l 1,3,-1
 117 1098 l 1,4,-1
 508 1449 l 1,5,-1
 742 1098 l 1,0,-1
EndSplineSet
EndChar

StartChar: caron
Encoding: 711 711 376
Width: 627
GlyphClass: 1
Flags: W
LayerCount: 2
Fore
SplineSet
455 1078 m 1,0,-1
 216 1410 l 1,1,-1
 410 1410 l 1,2,-1
 492 1290 l 1,3,-1
 641 1410 l 1,4,-1
 842 1410 l 1,5,-1
 455 1078 l 1,0,-1
EndSplineSet
EndChar

StartChar: uni02D0
Encoding: 720 720 377
Width: 586
GlyphClass: 1
Flags: W
LayerCount: 2
Fore
SplineSet
557 0 m 1,0,-1
 23 12 l 1,1,-1
 287 489 l 1,2,-1
 29 999 l 1,3,-1
 563 987 l 1,4,-1
 301 510 l 1,5,-1
 557 0 l 1,0,-1
EndSplineSet
EndChar

StartChar: uni02D1
Encoding: 721 721 378
Width: 574
GlyphClass: 1
Flags: W
LayerCount: 2
Fore
SplineSet
281 194 m 1,0,-1
 23 709 l 1,1,-1
 557 698 l 1,2,-1
 281 194 l 1,0,-1
EndSplineSet
EndChar

StartChar: breve
Encoding: 728 728 379
Width: 803
GlyphClass: 1
Flags: W
LayerCount: 2
Fore
SplineSet
564 1143 m 0,0,1
 515 1143 515 1143 465 1150.5 c 128,-1,2
 415 1158 415 1158 375.5 1179 c 128,-1,3
 336 1200 336 1200 311 1237.5 c 128,-1,4
 286 1275 286 1275 286 1335 c 0,5,6
 286 1355 286 1355 289 1374.5 c 128,-1,7
 292 1394 292 1394 297 1413 c 1,8,-1
 476 1413 l 1,9,10
 474 1403 474 1403 473 1393 c 128,-1,11
 472 1383 472 1383 472 1373 c 0,12,13
 472 1349 472 1349 479.5 1333.5 c 128,-1,14
 487 1318 487 1318 500 1309.5 c 128,-1,15
 513 1301 513 1301 531.5 1298 c 128,-1,16
 550 1295 550 1295 571 1295 c 0,17,18
 600 1295 600 1295 628 1302.5 c 128,-1,19
 656 1310 656 1310 680.5 1325 c 128,-1,20
 705 1340 705 1340 723.5 1362 c 128,-1,21
 742 1384 742 1384 750 1413 c 1,22,-1
 930 1413 l 1,23,24
 912 1337 912 1337 881 1285 c 128,-1,25
 850 1233 850 1233 804.5 1201.5 c 128,-1,26
 759 1170 759 1170 699 1156.5 c 128,-1,27
 639 1143 639 1143 564 1143 c 0,0,1
EndSplineSet
EndChar

StartChar: dotaccent
Encoding: 729 729 380
Width: 513
GlyphClass: 1
Flags: W
LayerCount: 2
Fore
SplineSet
558 1178 m 1,0,-1
 276 1178 l 1,1,-1
 329 1413 l 1,2,-1
 611 1413 l 1,3,-1
 558 1178 l 1,0,-1
EndSplineSet
EndChar

StartChar: ring
Encoding: 730 730 381
Width: 631
GlyphClass: 1
Flags: W
LayerCount: 2
Fore
SplineSet
462 1066 m 0,0,1
 419 1066 419 1066 382 1081.5 c 128,-1,2
 345 1097 345 1097 318 1124 c 128,-1,3
 291 1151 291 1151 275.5 1188 c 128,-1,4
 260 1225 260 1225 260 1268 c 0,5,6
 260 1323 260 1323 283 1373 c 128,-1,7
 306 1423 306 1423 345 1461 c 128,-1,8
 384 1499 384 1499 434.5 1521.5 c 128,-1,9
 485 1544 485 1544 540 1544 c 0,10,11
 584 1544 584 1544 621 1529 c 128,-1,12
 658 1514 658 1514 685.5 1487 c 128,-1,13
 713 1460 713 1460 728.5 1423 c 128,-1,14
 744 1386 744 1386 744 1342 c 0,15,16
 744 1287 744 1287 720.5 1237 c 128,-1,17
 697 1187 697 1187 658 1149 c 128,-1,18
 619 1111 619 1111 568 1088.5 c 128,-1,19
 517 1066 517 1066 462 1066 c 0,0,1
483 1205 m 0,20,21
 508 1205 508 1205 530 1215.5 c 128,-1,22
 552 1226 552 1226 568 1243 c 128,-1,23
 584 1260 584 1260 593 1283 c 128,-1,24
 602 1306 602 1306 602 1330 c 0,25,26
 602 1370 602 1370 580.5 1391 c 128,-1,27
 559 1412 559 1412 519 1412 c 0,28,29
 492 1412 492 1412 470 1402 c 128,-1,30
 448 1392 448 1392 433 1375 c 128,-1,31
 418 1358 418 1358 410 1334.5 c 128,-1,32
 402 1311 402 1311 402 1285 c 0,33,34
 402 1247 402 1247 423.5 1226 c 128,-1,35
 445 1205 445 1205 483 1205 c 0,20,21
EndSplineSet
EndChar

